<?xml version="1.0" standalone="no"?>
<!DOCTYPE svg PUBLIC "-//W3C//DTD SVG 1.1//EN" "http://www.w3.org/Graphics/SVG/1.1/DTD/svg11.dtd" >
<svg xmlns="http://www.w3.org/2000/svg" xmlns:xlink="http://www.w3.org/1999/xlink" version="1.1">
<metadata>
Created by FontForge 20201107 at Fri Jan  1 02:30:17 1904
 By www-data
Converted by ALLTYPE
</metadata>
<defs>
<font id="Optima-Italic" horiz-adv-x="276" >
  <font-face 
    font-family="Optima"
    font-weight="5"
    font-style="italic"
    font-stretch="normal"
    units-per-em="1000"
    panose-1="0 0 0 0 0 0 0 0 0 0"
    ascent="800"
    descent="-200"
    x-height="472"
    cap-height="693"
    bbox="-66 -268 1159 951"
    underline-thickness="50"
    underline-position="-105"
    slope="23853"
    unicode-range="U+0020-F002"
  />
<missing-glyph 
 />
    <glyph glyph-name=".notdef" 
 />
    <glyph glyph-name="glyph1" horiz-adv-x="0" 
 />
    <glyph glyph-name="glyph2" 
 />
    <glyph glyph-name="space" unicode=" " 
 />
    <glyph glyph-name="space" unicode="&#xa0;" 
 />
    <glyph glyph-name="exclam" unicode="!" horiz-adv-x="331" 
d="M124 55q7 14 15.5 25.5t18.5 18.5q5 4 10 6.5l11 5.5q5 2 10 3l10 2h0.5h1.5h0.5h1.5q12 0 21.5 -4.5t17.5 -12.5q8 -9 10 -20.5t-2 -25.5q-4 -16 -12.5 -28t-20.5 -20q-6 -3 -11.5 -5.5t-11.5 -4.5t-11.5 -3t-11.5 -1q-12 0 -22 3.5t-18 10.5q-8 8 -9.5 20t2.5 28v2v0z
M211 173l83 457v-1l1 1v0.5v1.5t0.5 1.5t0.5 1.5v0.5v1.5q4 16 11 28t17 21t19 13.5t18 4.5v0h1v0v0h0.5h1.5q9 -1 16.5 -7t12.5 -18t4.5 -30.5t-7.5 -44.5l-155 -431h-24v0v0z" />
    <glyph glyph-name="quotedbl" unicode="&#x22;" horiz-adv-x="331" 
d="M160 425l62 229q2 9 7 17t12 14q8 6 15 9.5t14 3.5t11.5 -3.5t8.5 -9.5t4 -16.5t-4 -24.5l-63 -235q-1 -7 -5.5 -12t-11.5 -10q-7 -4 -13.5 -6.5t-12.5 -3.5h-1.5h-1.5h-1.5h-0.5q-6 -1 -11.5 1t-8.5 6q-4 5 -4.5 12t1.5 17v0l1 1v0.5v0.5l0.5 1t1.5 2v0.5v1.5q1 1 1 1.5
v1.5v2v0zM323 441l55 205q2 10 8 19t13 16q8 8 16.5 11.5t16.5 4.5q5 0 9.5 -2t7.5 -7q4 -4 4.5 -11.5t-1.5 -17.5l-63 -234q-2 -11 -7.5 -20t-13.5 -15q-7 -6 -14.5 -9t-14.5 -3t-12 2.5t-9 8.5t-4 15.5t4 22.5v0.5t1 1.5q0 1 0.5 2t1.5 2v0v0v0.5v1.5v0l1 1v0.5v0.5v0.5
v1.5l1 2v0z" />
    <glyph glyph-name="numbersign" unicode="#" horiz-adv-x="559" 
d="M102 0l89 213h-110l14 55h118l59 134h-110l15 55h118l87 204h63l-87 -204h126l87 204h63l-87 -204h95l-15 -55h-103l-59 -134h102l-14 -55h-110l-89 -213h-63l89 213h-126l-89 -213h-63v0v0zM276 268h126l59 134h-126l-59 -134v0v0z" />
    <glyph glyph-name="dollar" unicode="$" horiz-adv-x="559" 
d="M143 126q2 -5 3.5 -10t4.5 -11q2 -3 3.5 -6t2.5 -6q2 -4 4 -7t5 -6q8 -10 18 -18.5t23 -16.5t30 -12t39 -4l74 278q-43 8 -72 26t-43 44q-15 26 -18.5 53.5t3.5 56.5q9 32 28 61t50 57q31 27 68.5 45t82.5 25l21 81q0 -2 0.5 -2.5l0.5 -0.5q0 -1 0.5 -1h0.5q1 -1 2 -1h2
q1 -1 2 -1.5t2 -1.5h1h1h2h2h1h2h5.5t4.5 1q3 1 5.5 2.5t4.5 2.5l-21 -77q8 -2 16.5 -2.5t18.5 -2.5q10 -1 20 -3.5t21 -5.5q10 -3 19.5 -6.5t18.5 -8.5q10 -4 17.5 -9.5t13.5 -10.5q-8 -9 -16 -19.5t-14 -21.5q-7 -11 -13 -22.5t-12 -23.5l-8 2q-2 13 -9 27t-18 27
q-11 14 -27.5 23.5t-38.5 15.5l-67 -250q1 -2 2.5 -2.5t2.5 -1.5q2 -1 4.5 -2.5t5.5 -2.5t6.5 -2.5t7.5 -3.5q28 -13 51 -27.5t39 -31.5q17 -16 20.5 -41.5t-5.5 -59.5v-1.5v-1.5q-1 -1 -1 -1.5v-1.5t-0.5 -1.5t-0.5 -1.5t-0.5 -1.5t-0.5 -1.5q-9 -34 -24.5 -61.5
t-37.5 -50.5q-22 -22 -43.5 -39.5t-44.5 -29.5q-13 -7 -25.5 -12.5t-23.5 -6.5q-11 -3 -20.5 -5t-17.5 -2l-29 -110q-2 1 -3.5 2t-3.5 1q-1 0 -2 0.5l-1 0.5h-2h-2h-4h-4q-1 0 -3 -0.5t-4 -1.5h-1.5t-1.5 -1h-1.5h-1.5h-1.5t-0.5 -1h-1.5h-0.5l29 110h-6t-5 -1h-5.5h-5.5
h-5.5t-4.5 -1h-5.5h-5.5q-26 0 -47.5 3.5t-38.5 8.5q-16 7 -29.5 17.5t-23.5 25.5q4 5 7.5 9.5t7.5 9.5q1 2 2.5 3.5l2.5 2.5q2 4 4.5 7.5t5.5 7.5q2 4 3.5 8t4.5 8q1 2 2.5 4t2.5 4t2.5 4t2.5 4v1t1 2q0 1 1 2l2 2l8 2v0v0zM317 39q21 4 38.5 11.5t30.5 17.5
q14 11 24.5 21.5t18.5 21.5q3 5 5.5 9.5t4.5 8.5q1 2 2.5 4.5t2.5 4.5q2 7 4.5 13t3.5 12q6 20 3 39t-13 36q-11 17 -25.5 29.5t-32.5 21.5l-67 -250v0v0zM375 402l61 228q-22 -8 -42 -19t-38 -27q-17 -16 -28 -32.5t-16 -33.5q-3 -21 0 -39t10 -35q8 -16 21 -27.5t32 -16.5
v2v0z" />
    <glyph glyph-name="percent" unicode="%" horiz-adv-x="890" 
d="M211 -31l574 732h56l-574 -732q-1 0 -1.5 0.5t-0.5 1.5h-0.5h-0.5h-1.5h-0.5q-1 1 -1.5 1h-0.5q-2 1 -3.5 1.5t-3.5 0.5h-3.5h-4.5h-7.5t-8.5 -1h-2.5t-3.5 -1q-3 0 -5.5 -1t-6.5 -2v0v0zM562 157q11 38 31.5 68.5t52.5 52.5q32 21 64.5 33t64.5 13h1.5h1.5h1.5h1.5
q29 0 53 -9.5t43 -29.5q19 -19 23.5 -49.5t-6.5 -71.5q0 -1 -0.5 -1.5l-0.5 -0.5q0 -1 -0.5 -1.5t-0.5 -1.5v-2t-1 -2q-13 -40 -33 -69.5t-47 -49.5q-28 -19 -55 -30t-53 -14h-5.5h-4.5h-2t-2 -1h-3h-2h-4.5h-4.5h-2h-2q-2 1 -3 1h-2q-31 3 -54.5 15t-38.5 34t-18 50.5
t6 63.5l1 2v0zM640 157q-1 -4 -2 -7t-1 -5q-1 -2 -1.5 -4.5t-0.5 -4.5q-4 -22 -4 -42t6 -38q5 -19 18 -29.5t34 -12.5v0h1v0v0h0.5h1.5q17 0 33.5 11t33.5 33q17 23 30 47t23 51q0 2 0.5 3.5t1.5 2.5q0 1 0.5 2t0.5 2q1 2 1.5 4.5t1.5 5.5q7 24 8.5 45t-3.5 39
q-4 18 -15.5 27.5t-31.5 10.5h-1.5h-1.5h-1.5h-0.5q-2 -1 -3 -1h-1h-1.5h-1.5q-18 0 -33.5 -7.5t-29.5 -22.5q-13 -15 -24.5 -31t-19.5 -34l-6 -12t-5 -12t-3.5 -12t-3.5 -11l1 2v0zM186 520q9 34 27.5 61t46.5 47t56.5 31.5t56.5 14.5h4.5h5.5h2.5t2.5 1h3.5h2.5
q34 0 57 -8.5t36 -25.5q13 -16 19.5 -34.5t7.5 -38.5q0 -4 -0.5 -7.5t-0.5 -7.5t-0.5 -7.5t-0.5 -7.5q0 -2 -0.5 -4.5t-1.5 -5.5q-1 -5 -1.5 -9.5t-2.5 -8.5q0 -2 -1 -4t-1 -4q-1 -3 -2 -5t-1 -4q-2 -4 -3.5 -8t-2.5 -8q-13 -27 -31.5 -51t-43.5 -46t-54.5 -32.5
t-62.5 -10.5q-42 0 -68.5 13t-39.5 38q-13 26 -16.5 53.5t3.5 58.5q-1 2 -0.5 4t1.5 4q0 1 0.5 1.5t0.5 1.5q0 2 0.5 3.5t1.5 3.5v2v0zM255 512q-9 -34 -9.5 -60t6.5 -46q8 -19 20.5 -28.5t30.5 -9.5q21 0 40.5 11t37.5 33t31.5 46t21.5 51q0 1 0.5 1.5t0.5 1.5v0.5v1.5
q1 2 1.5 3.5t0.5 2.5q7 24 7 45.5t-5 40.5t-18.5 28.5t-35.5 9.5t-40.5 -7.5t-32.5 -21.5q-15 -15 -25.5 -31t-18.5 -33q-3 -6 -5 -11t-3 -10t-2.5 -10t-3.5 -10l1 2v0z" />
    <glyph glyph-name="ampersand" unicode="&#x26;" horiz-adv-x="724" 
d="M343 370q-11 23 -17.5 45t-8.5 42t-0.5 39t5.5 36q8 29 23 53t38 42q22 18 44.5 30t45.5 19q3 1 6 1.5t7 1.5q3 0 6 0.5t6 1.5q5 1 8.5 1t7.5 1h4h4q35 -3 58 -12t36 -24t17 -33t-1 -39q-3 -10 -8 -21t-12 -22t-15 -22t-17 -22q-13 -13 -28.5 -26.5t-32.5 -27.5
q-17 -13 -36.5 -26t-40.5 -24l116 -211q12 10 23.5 22t22.5 24t22.5 25t22.5 26l10 12t10 13l10 12l10 12l10 12t10 13l10 12t9 12l29 -37q1 -4 -5.5 -13t-20.5 -26q-15 -16 -31.5 -33.5t-36.5 -36.5l-4 -4l-4 -4l-4 -4l-4 -4q-4 -4 -8.5 -8t-8.5 -8t-8 -7.5t-7 -6.5
q-4 -4 -8 -7l-8 -6q-7 -7 -14 -12.5t-13 -10.5l89 -140h-118l-50 79q-2 -3 -4 -5.5t-4 -4.5q-2 -3 -4.5 -5.5t-5.5 -4.5q-6 -5 -12.5 -10t-14.5 -10q-16 -11 -36 -21t-43 -18q-23 -7 -47.5 -11.5t-50.5 -4.5h-4.5h-4.5h-4h-4q-39 0 -67 7.5t-45 22.5q-17 16 -27.5 33.5
t-12.5 36.5v6v7v2v2v4v4q0 3 0.5 6t0.5 6q1 2 1.5 5t1.5 6q0 1 0.5 1.5t0.5 1.5v1.5v1.5v1.5t1 1.5v1.5v1.5l0.5 0.5t0.5 1.5t0.5 1.5t0.5 1.5v1.5t1 1.5v1.5v1.5q8 30 22.5 55t36.5 45t44.5 37.5t46.5 31.5q5 3 10.5 6t11.5 6q5 3 10.5 6t10.5 6q11 5 20.5 10.5t17.5 9.5
l1 2v0zM476 102l-118 237q-6 -5 -12.5 -9t-13.5 -8q-4 -2 -7.5 -4.5t-6.5 -4.5q-4 -2 -7.5 -4.5t-7.5 -4.5q-16 -11 -32 -24.5t-31 -28.5t-25.5 -33t-15.5 -38q-1 -2 -1.5 -4.5t-0.5 -4.5q-1 -3 -1.5 -5.5t-0.5 -4.5q-1 -5 -1 -10.5v-10.5q3 -28 13 -48.5t26 -32.5t35 -18.5
t41 -6.5h3.5h2.5h2h2l1 0.5t2 0.5q20 2 40.5 7t40.5 14t38.5 20t34.5 24v2v0zM426 417q1 -1 2 -1t3 1q1 0 2 0.5t2 1.5q15 7 31 18t33 26q16 15 29.5 31.5t23.5 33.5q2 2 3 4.5t3 5.5q1 2 2.5 4.5t2.5 5.5q1 2 2 4.5t2 5.5q0 2 1 4.5t2 5.5q4 13 3 24.5t-6 21.5
q-4 11 -14 18.5t-27 11.5q-1 0 -2.5 0.5t-2.5 0.5q-1 1 -2.5 1h-2.5h-5.5h-4.5q-19 0 -34.5 -6t-28.5 -19t-21.5 -29t-13.5 -35q-2 -8 -3.5 -16.5t-2.5 -16.5q-1 -9 -1 -17.5t1 -16.5q1 -10 2.5 -19.5t5.5 -19.5q2 -10 6.5 -19t9.5 -17v2v0z" />
    <glyph glyph-name="quotesingle" unicode="'" 
d="M158 417l145 244q5 7 10.5 13.5t12.5 11.5q6 5 12.5 8t13.5 4h0.5t1.5 1h0.5h1.5h2h2q7 0 12.5 -3t9.5 -8q5 -5 6 -12t-1 -16q-1 -4 -3.5 -9t-4.5 -10q-3 -5 -7 -10.5t-9 -10.5l-183 -211l-22 8v0v0z" />
    <glyph glyph-name="parenleft" unicode="(" 
d="M190 -110q-7 11 -13 22t-11 22q-5 12 -10 23t-9 22q-8 22 -14 44.5t-10 45.5q-3 16 -4.5 32t-2.5 32q-1 15 -1 31t1 32q3 32 8.5 63t13.5 61q17 65 43.5 124t63.5 113q36 54 71.5 96t69.5 73q5 4 9.5 7.5t8.5 7.5q2 2 4 3.5t5 3.5l1 0.5t2 1.5t3 2t3 2l18 -22
q-18 -18 -33.5 -35.5t-29.5 -35.5t-26.5 -35.5t-23.5 -34.5q-23 -37 -41.5 -72t-31.5 -70q-13 -34 -23 -64t-17 -56q-14 -58 -21.5 -105.5t-8.5 -85.5t0.5 -69t5.5 -54q3 -20 8 -36t10 -27t9 -19t5 -12l-32 -31v0v0z" />
    <glyph glyph-name="parenright" unicode=")" 
d="M27 -102l-18 23q43 44 75 83.5t54 75.5t39 71.5t29 69.5q4 11 7.5 22t6.5 23q3 11 6.5 23t7.5 24q17 66 25 125t6 111q-3 52 -9.5 91.5t-18.5 67.5q0 2 -1 3t-2 3v0.5t-1 0.5q0 1 -0.5 2t-1.5 2l-1.5 3l-1.5 3q-1 1 -1.5 2.5t-0.5 2.5l31 26q21 -28 35.5 -58.5
t21.5 -64.5q8 -34 11.5 -68t3.5 -69q-1 -27 -3.5 -54t-6.5 -54q-5 -27 -10.5 -51.5t-11.5 -47.5q0 -2 -1 -4t-1 -4l-2 -4t-1 -4l-2 -8t-2 -7q-16 -46 -38.5 -90.5t-51.5 -86.5q-29 -43 -57.5 -77t-57.5 -61q-4 -3 -7.5 -6.5l-6.5 -6.5q-4 -3 -7.5 -6t-7.5 -6
q-8 -6 -14.5 -11t-12.5 -9v0v0z" />
    <glyph glyph-name="asterisk" unicode="*" horiz-adv-x="441" 
d="M326 512l-125 63v-1h1v0.5v0.5q0 1 1 1.5t2 1.5q1 2 3 4.5t4 4.5l5 5l6 6l6 6t6 7t6 8.5t6 8.5l103 -85l24 150q2 -3 5.5 -4.5t7.5 -2.5q3 -1 7.5 -1h8.5h3h3q3 0 6 0.5t6 0.5q5 1 8.5 2.5t7.5 2.5l-58 -156l143 95q1 -5 2 -8.5t2 -6.5q1 -4 2.5 -7.5t3.5 -6.5q1 -4 3 -8
t4 -7q2 -4 4 -7l4 -6l-158 -61l119 -55q-6 -11 -11.5 -20t-10.5 -17q-5 -9 -9.5 -16t-9.5 -12l-103 88l-24 -149q-9 -2 -18 -2h-17h-15h-13l56 151l-141 -86l-25 55l159 63v0v0z" />
    <glyph glyph-name="plus" unicode="+" horiz-adv-x="606" 
d="M124 291h229l62 229h63l-62 -229h220l-16 -63h-220l-61 -228h-63l61 228h-229l16 63v0v0z" />
    <glyph glyph-name="comma" unicode="," 
d="M16 -173l-21 8l144 244q5 10 11.5 17.5t13.5 12.5t13.5 8.5t12.5 4.5h0.5t0.5 1h0.5h0.5h0.5h0.5h2h2q8 0 14.5 -3.5t11.5 -10.5q4 -7 5 -15.5t-1 -18.5q-1 -4 -3 -7.5t-4 -7.5t-5 -7.5t-6 -7.5l-193 -218v0v0z" />
    <glyph glyph-name="hyphen" unicode="-" horiz-adv-x="331" 
d="M110 268h252l-19 -71h-252l19 71v0v0z" />
    <glyph glyph-name="period" unicode="." 
d="M83 47q7 17 15 30.5t20 22.5q6 4 11.5 7t10.5 6q5 2 10.5 3t11.5 1h0.5h1.5h1.5h1.5q11 -1 20.5 -6t16.5 -14t9 -19.5t-2 -24.5q-6 -16 -15 -27.5t-20 -19.5q-7 -5 -14.5 -8t-15.5 -4q-4 -1 -7.5 -1.5t-7.5 -0.5h-1.5h-0.5v0v0h-1v0q-10 1 -18.5 4.5t-16.5 8.5
q-7 7 -9.5 17t-0.5 23v2v0z" />
    <glyph glyph-name="slash" unicode="/" 
d="M-66 -102l512 858q2 -3 5 -4.5t7 -2.5t8.5 -1h8.5h4h5q2 0 4 0.5t4 0.5q5 1 9 2.5t8 2.5l-512 -856h-1h-3q-1 1 -2 1h-2h-2h-2q-1 1 -2 1h-2q-3 1 -5.5 1.5t-4.5 0.5h-5h-6h-5t-6 -1q-3 0 -6 -1t-7 -2h-2v0z" />
    <glyph glyph-name="zero" unicode="0" horiz-adv-x="559" 
d="M125 323l0.5 0.5t0.5 1.5t0.5 2.5t0.5 2.5l2.5 5t2.5 6q4 13 9.5 29.5t12.5 36.5t16.5 41.5t21.5 43.5q18 35 43.5 66.5t57.5 59.5q32 29 75 43t96 14q49 0 81 -14.5t48 -43.5q17 -29 24.5 -60.5t7.5 -66.5q0 -26 -2.5 -51t-7.5 -48q-6 -24 -10 -41.5t-7 -28.5
l-9.5 -28.5t-13.5 -37.5q-7 -21 -17.5 -43t-23.5 -45q-19 -33 -44.5 -63.5t-57.5 -57.5q-31 -28 -70.5 -41t-86.5 -13h-1.5h-1.5h-1.5h-0.5h-1.5h-1.5h-1.5h-0.5q-60 0 -96.5 22t-49.5 68q-13 45 -14 95.5t11 105.5q0 2 0.5 4.5t1.5 5.5q0 2 0.5 4.5t1.5 4.5q0 2 0.5 4.5
t1.5 5.5q1 2 1.5 4.5t1.5 4.5v2v0zM208 307q-4 -13 -7 -26.5t-5 -27.5q-2 -7 -3.5 -14.5t-1.5 -14.5q-1 -8 -2 -15t-1 -15q-3 -31 0 -59.5t13 -54.5q9 -25 30 -38t53 -13q38 0 69 16t54 47q24 32 42.5 66.5t32.5 71.5q3 7 5.5 14t4.5 14q2 6 4 13l4 14q1 5 2.5 9t2.5 9
q3 9 5.5 17.5t4.5 16.5q17 65 22.5 119t-1.5 96t-27.5 63t-53.5 21h-1.5h-0.5h-1.5h-1.5h-2h-2q-51 -3 -89.5 -30t-63.5 -77q-26 -50 -47.5 -106t-38.5 -118l1 2v0z" />
    <glyph glyph-name="one" unicode="1" horiz-adv-x="559" 
d="M258 583q33 13 65 26t63 26q31 12 56.5 24t47.5 24l22 -6l-184 -685q-1 0 -2.5 0.5t-2.5 0.5q-4 2 -8 2.5t-7 1.5q-4 1 -8.5 1h-9.5h-10.5t-10.5 -1q-2 0 -3.5 -0.5t-3.5 -0.5l-10 -2t-11 -2l165 614l-127 -63q-1 0 -2 1.5t-2 4.5q0 2 -0.5 3.5t-1.5 2.5q-1 2 -1.5 3.5
t-0.5 2.5l-1.5 3l-1.5 3q-1 1 -1.5 2.5t-1.5 2.5q-1 3 -3 5.5t-5 3.5l1 2v0z" />
    <glyph glyph-name="two" unicode="2" horiz-adv-x="559" 
d="M241 575q25 28 49.5 48t49.5 30q24 11 51.5 16.5t57.5 5.5h3h2q1 -1 2.5 -1h2.5h6h6q32 -3 58.5 -15.5t47.5 -35.5q21 -22 25.5 -56.5t-7.5 -80.5q-6 -21 -16 -43t-24 -45t-36 -46.5t-52 -46.5l-291 -234l317 8q-3 -6 -5 -10.5t-4 -9.5q-2 -4 -3.5 -8.5t-2.5 -9.5
t-2.5 -10.5t-2.5 -10.5t-1.5 -10.5t0.5 -9.5h-433l4 16q9 6 19.5 13.5t20.5 14.5q10 8 20.5 16t20.5 17q8 6 16.5 12t15.5 13l8 6t8 7q4 3 8 6.5t8 6.5q39 32 75 62.5t69 59.5q32 29 54.5 50.5t34.5 36.5q10 11 19.5 24t16.5 26q6 9 10.5 18.5t9.5 18.5q3 5 5.5 10t4.5 10
t3.5 10.5t3.5 10.5q1 3 2 5.5t2 5.5q0 2 1 5l2 6q8 28 7.5 52.5t-8.5 45.5t-27.5 32t-51.5 11h-1.5h-0.5h-1.5h-1.5h-2h-2q-19 0 -36 -5t-33 -16q-15 -10 -28 -22t-22 -25q-3 -4 -5.5 -7.5t-4.5 -6.5l-3.5 -7t-2.5 -6l-18 -5l-18 47v0v0z" />
    <glyph glyph-name="three" unicode="3" horiz-adv-x="559" 
d="M258 614q4 1 8 3t8 5q5 3 10.5 6.5t12.5 7.5q10 6 22.5 11.5t28.5 9.5q14 5 33 7.5t41 2.5q41 0 73.5 -8t54.5 -25q22 -16 27.5 -45.5t-5.5 -70.5q-7 -27 -22 -52t-36 -49q-22 -24 -50 -40t-63 -25q43 -6 70 -19.5t38 -36.5q11 -22 12.5 -49.5t-6.5 -59.5
q-15 -44 -41 -80.5t-63 -65.5q-38 -29 -90.5 -43t-120.5 -14q-7 0 -15 0.5t-16 1.5q-4 0 -9 0.5t-9 1.5q-5 0 -9.5 0.5t-9.5 1.5q-11 3 -21.5 6t-20.5 5q-10 4 -17.5 9t-11.5 12l31 57l18 8q5 -17 15 -29t25 -20q14 -8 31 -12.5t36 -4.5h2h2h1.5h1.5h0.5h1.5q14 1 27.5 3.5
t27.5 8.5q14 5 27.5 12t27.5 17q28 19 48.5 48t33.5 69v2t1 2l0.5 1t0.5 2v2t1 2l0.5 1t0.5 2q10 36 6.5 61.5t-20.5 40.5t-39 22.5t-49 7.5h-2.5h-3.5q-1 -1 -2.5 -1h-3.5h-5.5h-4.5t-4 -0.5t-4 -1.5h-2h-2h-2.5h-2.5q-2 -1 -3 -1h-3q0 1 0.5 1.5l1.5 1.5l1.5 1.5t0.5 1.5
q1 2 2 3.5t2 2.5v0.5t1 1.5v1.5v1.5q1 2 1.5 3.5t1.5 2.5q1 3 1 6v6v6t-1 6q3 -1 6.5 -1.5t7.5 -0.5h6.5h7.5h6.5h7.5t8 1l8 2q19 3 37.5 12t37.5 24q20 15 35 41.5t27 63.5q8 29 6 51t-15 38q-12 15 -28 23t-36 8h-2h-2h-1.5h-0.5q-16 -1 -31.5 -6t-31.5 -14t-30.5 -22
t-26.5 -31l-18 -6l-7 63v0v0z" />
    <glyph glyph-name="four" unicode="4" horiz-adv-x="559" 
d="M66 189l7 24l445 456h70l-112 -417l97 8l-5.5 -11t-4.5 -10q-2 -4 -3.5 -9.5t-3.5 -10.5q0 -3 -0.5 -5.5t-1.5 -4.5q-1 -3 -1.5 -5.5t-0.5 -5.5q-1 -5 -1 -9.5t1 -9.5l-93 10l-50 -189h-18h-19h-22.5h-26.5l50 189h-307v0v0zM390 252l87 323l-308 -323h221v0v0z" />
    <glyph glyph-name="five" unicode="5" horiz-adv-x="559" 
d="M96 94q6 -18 17 -31.5t27 -22.5q17 -9 35.5 -13.5t38.5 -4.5q29 0 58 10t58 30q30 20 50.5 52.5t32.5 77.5v0.5t1 1.5v0.5v0.5v1t1 2v0.5v1.5q1 1 1 1.5v1.5q9 43 6 73t-18 48q-16 17 -36 26t-45 9h-4h-4h-2h-1q-1 -1 -2 -1h-2q-13 -1 -25 -3.5t-23 -6.5
q-12 -4 -23.5 -8.5t-22.5 -10.5l-14 10l89 330h331q-1 -5 -2.5 -8.5t-2.5 -6.5q0 -1 -0.5 -3t-1.5 -3q-1 -2 -1.5 -3.5t-0.5 -3.5q-2 -4 -3.5 -7.5t-2.5 -6.5q-1 -4 -2 -7.5t-2 -7.5q-1 -2 -1.5 -4t-0.5 -4q-1 -2 -1.5 -3.5t0.5 -3.5q-1 -2 -1.5 -4t0.5 -4q-1 -2 -1 -4v-4
q-10 3 -24 5.5t-28 4.5t-32 3.5t-38 1.5l-157 2l-57 -212q11 4 22.5 8t25.5 7t28 4.5t29 1.5h4.5h5.5q2 -1 4.5 -1h5.5q4 -1 9 -1.5t10 -0.5q29 -5 53 -18.5t44 -35.5t24.5 -57t-4.5 -82v-1.5v-0.5v-0.5v-0.5l-1 -1v0v-1.5v-0.5q-1 -1 -1 -1.5v-0.5q-13 -47 -42.5 -86
t-76.5 -70q-46 -31 -96 -46t-103 -15q-15 0 -29.5 1t-28.5 3q-14 3 -27.5 6.5t-27.5 8.5q-1 1 -3 1.5t-3 0.5q-3 1 -6 2.5t-6 2.5q-4 2 -8.5 4.5t-8.5 5.5l35 72h8v0v0z" />
    <glyph glyph-name="six" unicode="6" horiz-adv-x="559" 
d="M130 283q30 101 73 175.5t101 120.5q29 23 57 40.5t57 29.5q28 11 56.5 17t56.5 6h6.5h7.5h4h4q1 -1 3 -1h4q2 -1 5.5 -1.5t7.5 -0.5t7.5 -0.5t6.5 -1.5l-2 -37q-3 -1 -6 -0.5t-6 1.5q-4 0 -7 0.5t-6 1.5q-5 1 -11 1.5t-12 0.5q-46 0 -88.5 -21.5t-82.5 -64.5
t-70.5 -97.5t-50.5 -122.5v0v0v0l1 1v0v0l6 4t5 4t5 4.5t6 4.5q13 10 28 19t32 17t41 12.5t53 4.5q39 0 70.5 -12t54.5 -36t28.5 -59t-7.5 -82v-2t-1 -2v-1.5v-0.5q-1 -1 -1 -1.5v-0.5v-1.5v-0.5q-1 -1 -1 -1.5v-0.5v-1.5v-0.5q-1 -1 -1 -1.5v-0.5q-13 -40 -37.5 -75
t-58.5 -67q-34 -31 -79 -46t-99 -15h-4h-4h-4.5h-4.5q-46 0 -80.5 16t-57.5 49q-24 33 -26.5 83.5t15.5 118.5q0 1 0.5 1.5t0.5 1.5l0.5 0.5t0.5 1.5v1.5t1 1.5v1.5v1.5t0.5 1.5t0.5 1.5v0.5v1.5q1 2 1.5 3.5t0.5 2.5v2v0zM204 205q-1 -8 -2.5 -14.5t-3.5 -13.5
q-1 -7 -1.5 -13.5t-0.5 -12.5q-1 -24 3.5 -46.5t14.5 -42.5q11 -20 29.5 -30t43.5 -10h0.5h1.5h1.5h1.5h0.5h1.5h1.5h1.5q26 2 49.5 12t42.5 29t34.5 40t26.5 43q2 4 3.5 7.5t2.5 7.5q1 1 1.5 2t0.5 2q1 3 2 5.5t2 4.5q1 3 1.5 5t1.5 5q2 4 3.5 9t2.5 9q10 35 7.5 63.5
t-16.5 50.5q-14 21 -33 32t-42 11h-2.5h-2.5q-2 -1 -3 -1h-3h-2.5h-2.5q-2 -1 -3 -1h-2q-12 -2 -23.5 -6t-22.5 -10t-22.5 -14t-23.5 -18q-23 -19 -41 -46t-29 -61v2v0z" />
    <glyph glyph-name="seven" unicode="7" horiz-adv-x="559" 
d="M250 669h441l-11 -39q-32 -37 -64.5 -74.5t-65.5 -75.5q-21 -25 -43.5 -51t-44.5 -52l-22 -26l-22 -26q-32 -37 -63.5 -75.5t-63.5 -76.5q-16 -19 -32 -38.5t-31 -38.5q-16 -20 -31.5 -39t-30.5 -39q-2 -3 -4.5 -5.5l-4.5 -4.5q-2 -3 -3.5 -5t-3.5 -3h-11.5h-10.5h-9.5
h-9.5h-8.5h-9.5h-9.5h-10.5l512 591l-358 -16q1 1 2.5 3.5t2.5 5.5t2.5 6t2.5 6l1.5 3t0.5 3v0.5v0.5q0 1 0.5 2t0.5 2q0 2 1 3.5t2 2.5q0 2 1 3.5t1 2.5q2 6 2.5 12t1.5 12t1.5 12t0.5 12l1 2v0z" />
    <glyph glyph-name="eight" unicode="8" horiz-adv-x="559" 
d="M298 378q-26 4 -43 16.5t-27 32.5t-11 42.5t6 46.5v0.5t1 1.5v0.5v1.5v0.5t1 1.5v0.5v1.5q9 29 28 54.5t50 49.5q30 23 70.5 35t90.5 12q48 0 80 -12t50 -36q17 -24 22 -49.5t-2 -54.5v-0.5v-0.5l-1 -1v0v0v0v-1v0q-6 -24 -20 -46t-35 -43q-20 -21 -46 -34.5t-57 -20.5
q38 -4 63 -18.5t38 -40.5q12 -25 14 -53.5t-6 -59.5q0 -1 -0.5 -2.5t-0.5 -2.5q0 -2 -0.5 -3t-0.5 -2t-0.5 -2t-1.5 -2l-1.5 -3t-0.5 -2q-13 -37 -37.5 -70t-60.5 -63q-37 -30 -80.5 -44.5t-96.5 -15.5h-2.5h-3.5h-2h-2q-60 1 -99.5 16t-58.5 44t-24.5 61t4.5 67v0.5t1 1.5
v0.5v1.5q9 32 27 62.5t46 58.5q29 29 60.5 46.5t68.5 24.5v2v0zM192 189q-7 -40 -5.5 -69.5t12.5 -49.5q11 -21 34 -31t58 -10q29 0 52.5 9.5t42.5 28.5t34 40t25 43l2 6t3 6q1 2 2 5l2 6t2 5.5t2 5.5q0 2 1 5l2 6q1 4 1.5 8t1.5 8q1 2 1.5 4t0.5 4t0.5 4t1.5 4q3 23 0.5 45
t-10.5 41q-9 20 -31 29.5t-57 9.5q-28 0 -51.5 -8.5t-43.5 -25.5q-19 -16 -34 -34.5t-26 -38.5q-4 -7 -7.5 -14.5t-6.5 -15.5q-3 -7 -5 -14.5t-4 -13.5v2v0zM310 512q-7 -28 -6.5 -49.5t10.5 -38.5q9 -16 26 -24t41 -8h1.5h1.5h1.5h1.5q1 -1 1.5 -1h1.5h1.5h1.5q23 0 43.5 9
t37.5 28q17 18 29 39t18 43q7 23 5.5 45t-9.5 41q-8 20 -25.5 30t-45.5 10q-27 0 -49.5 -10t-39.5 -30q-18 -19 -29.5 -41t-18.5 -45l1 2v0z" />
    <glyph glyph-name="nine" unicode="9" horiz-adv-x="559" 
d="M167 449q0 1 0.5 3t1.5 4t1.5 4.5t0.5 4.5q1 2 2 4.5t2 5.5q0 2 1 4.5t2 4.5q13 35 35 66.5t53 59.5q32 29 78.5 43t109.5 14q44 0 73.5 -12t45.5 -35q17 -23 25.5 -48.5t10.5 -52.5q1 -16 0.5 -31t-3.5 -30q-1 -5 -1.5 -9.5t-1.5 -9.5q-1 -9 -2.5 -17t-3.5 -15
q-1 -1 -1 -2v-2q-1 -1 -1 -2v-2t-0.5 -1.5t-0.5 -1.5t-0.5 -1.5l-0.5 -0.5v-2t-1 -2q-25 -94 -63 -164.5t-88 -117.5q-52 -46 -101.5 -74t-97.5 -36q-8 -2 -15 -2.5t-14 -1.5q-2 0 -4.5 -0.5t-4.5 -0.5q-5 0 -9.5 -0.5t-8.5 -0.5q-8 0 -15.5 0.5t-15.5 1.5t-15 2.5t-14 3.5
l-16 63h24q8 -11 15.5 -17.5t17.5 -10.5q5 -2 9.5 -3.5t9.5 -2.5t9.5 -1.5t9.5 -0.5q38 0 78 23.5t82 70.5q41 47 70.5 98.5t45.5 107.5q0 1 0.5 1.5t0.5 1.5l0.5 0.5t0.5 1.5v2t1 2q0 1 0.5 2t0.5 2t0.5 2t0.5 2q0 2 0.5 4t1.5 4q-11 -15 -23 -26.5t-24 -19.5
q-12 -9 -23.5 -15t-22.5 -11q-12 -4 -23 -7t-21 -5q-11 -1 -19.5 -1.5t-16.5 -0.5q-41 0 -73 10.5t-55 32.5t-28 56.5t8 81.5v2v0zM270 480q-1 -4 -1.5 -7t-1.5 -6t-1.5 -6t-0.5 -5q-6 -27 -6 -51.5t6 -47.5q6 -22 26 -33t53 -11q35 2 63 15t50 36t37 48.5t22 53.5v1.5v1.5
l0.5 0.5t0.5 1.5t0.5 1.5t0.5 1.5t0.5 1.5t0.5 1.5q6 30 4.5 57t-11.5 52t-28.5 37.5t-45.5 12.5q-23 0 -43 -7t-37 -21t-31 -29.5t-25 -32.5q-7 -10 -12 -19t-9 -18t-6.5 -17t-4.5 -14v2v0z" />
    <glyph glyph-name="colon" unicode=":" 
d="M93 55q5 13 13.5 24.5t19.5 18.5q6 4 11.5 7t10.5 5t10.5 3.5t11.5 1.5v0h1v0v0h0.5h1.5q12 0 21.5 -3.5t17.5 -11.5t9.5 -20t-2.5 -27q-6 -16 -15 -28t-20 -20q-5 -3 -10.5 -5.5t-11.5 -4.5t-11.5 -3t-10.5 -1q-11 0 -20.5 3.5t-17.5 10.5q-7 8 -9.5 20t0.5 28v2v0z
M188 409q5 14 13.5 25t19.5 18t22 10.5t22 3.5v0h1v0v0h0.5h1.5q11 0 20.5 -4t16.5 -12q8 -8 10.5 -18.5t-1.5 -24.5q-4 -16 -12.5 -28t-20.5 -20t-23.5 -12t-22.5 -4q-13 -1 -22.5 3t-17.5 12t-9.5 20.5t2.5 28.5v2v0z" />
    <glyph glyph-name="semicolon" unicode=";" 
d="M16 -173l-19 16l142 236q5 8 10.5 15.5t12.5 12.5q3 2 6.5 4t6.5 4q3 1 6.5 2t6.5 2h1.5h1.5h0.5h1.5q8 0 14.5 -3.5t11.5 -10.5q4 -7 5.5 -15t-0.5 -18q-1 -5 -4 -10.5t-6 -10.5q-3 -6 -7.5 -11.5t-9.5 -10.5l-181 -202v0v0zM201 402q6 15 14.5 26.5t19.5 18.5
q11 8 22 11.5t22 4.5v0h1v0v0h0.5h1.5q11 -1 20.5 -5t16.5 -12q8 -7 10.5 -17t-0.5 -22q-5 -18 -13.5 -31t-20.5 -21t-23.5 -12t-22.5 -4q-13 -1 -22.5 3t-17.5 12q-9 8 -10.5 19.5t2.5 26.5v2v0z" />
    <glyph glyph-name="less" unicode="&#x3c;" horiz-adv-x="606" 
d="M108 228l16 63l582 229l-19 -71l-476 -189l364 -197l-19 -71l-448 236v0v0z" />
    <glyph glyph-name="equal" unicode="=" horiz-adv-x="606" 
d="M80 126l19 71h512l-19 -71h-512v0v0zM150 386h512l-19 -71h-512l19 71v0v0z" />
    <glyph glyph-name="greater" unicode="&#x3e;" horiz-adv-x="606" 
d="M541 260l-374 189l19 71l456 -237l-14 -55l-584 -236l19 71l478 197v0v0z" />
    <glyph glyph-name="question" unicode="?" horiz-adv-x="386" 
d="M132 55q5 13 13.5 24t21.5 19q4 3 8 5l8 4q8 3 16 5.5t16 2.5v0h1v0v0h0.5h1.5q11 0 20.5 -3.5t17.5 -11.5q8 -7 10.5 -19t-0.5 -28v-0.5v-0.5l-1 -1v0v-1v0v-1.5v-0.5q-1 -1 -1 -1.5v-0.5q-4 -14 -12 -24.5t-19 -17.5q-6 -3 -12 -5.5t-11 -3.5q-6 -2 -12 -3t-12 -1h-1.5
h-0.5v0v0h-1v0q-13 0 -23.5 4t-19.5 11q-8 8 -10 19.5t2 27.5v2v0zM164 291q6 20 18 41t31 40q19 20 39 38t41 36q20 16 37.5 31t34.5 30q16 15 27.5 29.5t18.5 28.5v0.5t1 1.5v0.5v1.5v0.5t1 1.5v0.5v1.5q1 1 1 2v2q1 1 1 2v2q3 14 0 27.5t-10 25.5q-8 12 -21.5 18t-31.5 6
q-10 0 -20.5 -1.5t-23.5 -6.5q-13 -4 -26.5 -11.5t-28.5 -18.5l-3 49q11 4 22 9t23 9q11 4 22.5 7t22.5 5q5 0 10 0.5t10 1.5h4.5t4.5 1h4.5h4.5q28 0 50.5 -8.5t38.5 -25.5q17 -17 20.5 -45t-7.5 -66q0 -1 -0.5 -2.5t-1.5 -3.5q-1 -1 -1.5 -2.5t-0.5 -3.5q0 -1 -0.5 -2.5
t-1.5 -3.5q-1 -1 -1.5 -2.5t-0.5 -3.5q-7 -13 -15.5 -26t-18.5 -26q-11 -13 -21 -24t-20 -21q-9 -8 -17 -15t-16 -13q-7 -6 -13.5 -10t-9.5 -6q-1 -1 -2 -1.5t-2 -1.5t-2 -1.5t-2 -1.5t-2.5 -2t-3.5 -2q-22 -16 -39 -32.5t-28 -32.5q-12 -16 -19.5 -29.5t-10.5 -25.5
t-2.5 -21t4.5 -17q4 -7 12 -10.5t19 -3.5q4 0 8.5 0.5t9.5 1.5t10 2.5t11 3.5l-18 -37q-3 -2 -5.5 -3t-4.5 -1q-2 -1 -4 -1.5t-4 -0.5h-2.5h-2.5q-1 -1 -2.5 -1h-2.5h-4h-4q-24 -1 -42.5 7.5t-29.5 26.5q-12 17 -15 37.5t3 43.5v2v0z" />
    <glyph glyph-name="at" unicode="@" horiz-adv-x="803" 
d="M135 331q5 14 10.5 31t14.5 36q8 20 19.5 39.5t25.5 39.5q27 41 65.5 79.5t87.5 72.5q50 35 111.5 52.5t134.5 17.5q67 0 115 -13.5t77 -40.5t46.5 -57t24.5 -62q3 -18 4.5 -34.5t-0.5 -33.5q-1 -16 -3 -31t-5 -27q-3 -11 -8.5 -24t-13.5 -28q-4 -7 -8 -14.5t-9 -14.5
q-4 -8 -9 -15t-11 -15q-22 -30 -49 -57t-59 -51q-32 -25 -65 -37t-68 -12q-21 0 -35.5 4.5t-22.5 14.5q-7 10 -12 21t-8 23q-7 -8 -15 -14.5t-15 -12.5q-8 -6 -15.5 -10.5t-15.5 -7.5q-16 -7 -31.5 -10.5t-30.5 -3.5q-27 0 -48.5 10t-38.5 30t-21 46t5 58q1 5 2.5 10t3.5 10
t4.5 10.5t5.5 10.5q18 37 41 67t50 52q27 23 53.5 39t52.5 25q4 2 8.5 3t8.5 3q4 1 8.5 2t8.5 2q9 2 17.5 2.5t15.5 0.5q16 0 29 -3.5t23 -10.5t15 -16.5t6 -23.5l29 49h94l-142 -268q-2 -5 -3.5 -9t-3.5 -7l-2 -6t-2 -5q-2 -8 -2 -14t2 -10q3 -4 7.5 -6t10.5 -2t13.5 1.5
t15.5 4.5t17 8t18 12q20 14 39.5 33t39.5 44q20 26 34.5 55.5t24.5 63.5q2 8 3 15.5t2 14.5q1 8 1 15.5t-1 14.5q-2 33 -16.5 63.5t-41.5 58.5q-28 27 -67.5 41t-92.5 14q-7 0 -14 -0.5t-14 -1.5t-14.5 -1.5t-14.5 -2.5q-50 -10 -99.5 -34t-99.5 -63q-49 -39 -82 -88.5
t-49 -108.5q0 -1 -0.5 -1.5t-0.5 -1.5t-0.5 -1.5t-0.5 -1.5v-1.5v-1.5q-1 -1 -1 -1.5v-1.5q-16 -58 -11.5 -104.5t30.5 -81.5q26 -34 57.5 -57.5t70.5 -35.5q5 -2 10 -3.5t10 -3.5l10 -2l10 -2q10 -2 20.5 -3.5t20.5 -1.5h2h2h2.5h2.5q0 -1 1 -1h2h2h2q36 0 70.5 8t66.5 24
t58.5 33.5t47.5 36.5q5 5 10.5 10t10.5 10t9.5 10.5t8.5 10.5l71 2l-1.5 -3l-0.5 -1v0v0l-1 -1v0q-30 -37 -68 -70t-84 -63t-102 -44.5t-121 -14.5h-2.5h-2.5h-3h-3h-5.5h-4.5q-74 3 -130 29t-94 76t-48 106.5t6 120.5q1 1 1 1.5v1.5q1 1 1 2v2v0l1 1v0.5v1.5v0.5t1 1.5v0.5
v0.5v2v0zM381 339q-7 -14 -12.5 -26t-10.5 -23q-4 -10 -7 -18.5t-5 -16.5q-5 -19 -4.5 -32t5.5 -19q6 -6 15 -10.5t19 -6.5v0h1v0v0h0.5h1.5q0 -1 0.5 -1h1.5h0.5h1.5q4 0 8.5 1t9.5 3t10 5t11 7q14 9 28.5 22t29.5 31q15 17 29 35.5t26 37.5q3 5 5.5 9.5t4.5 9.5l4.5 9
l4.5 9q4 9 7.5 18t5.5 18q4 14 4 25.5t-2 21.5q-4 9 -11.5 15t-19.5 7q-6 0 -14 -2t-17 -6q-3 -1 -6.5 -3t-7.5 -4q-7 -3 -13.5 -7.5t-14.5 -9.5q-11 -8 -22.5 -18.5t-22.5 -22.5q-11 -13 -22 -28t-22 -32v2v0z" />
    <glyph glyph-name="A" unicode="A" horiz-adv-x="669" 
d="M8 0l502 701h23l121 -701h-6.5h-7.5h-7.5h-8.5h-4.5t-4.5 1h-5.5h-4.5h-5.5t-4.5 1h-5.5h-4.5h-2h-1h-2h-2h-3.5h-3.5q-4 -1 -7.5 -1.5t-6.5 -0.5h-4h-3h-3.5h-3.5l-37 276h-244l-175 -276h-3h-3q-2 0 -3.5 0.5t-3.5 0.5h-3t-3 1h-3.5h-3.5h-4h-4h-2h-2q-1 -1 -2 -1h-2
h-1.5h-1.5q-1 -1 -1.5 -1h-1.5h-2.5h-3.5h-3h-3h-3.5h-3.5h-6h-6v0v0zM299 323h204l-37 244l-167 -244v0v0z" />
    <glyph glyph-name="B" unicode="B" horiz-adv-x="614" 
d="M94 0l183 685h237q2 -2 4.5 -2h4.5h4.5h4.5q31 -1 58.5 -8.5t50.5 -21.5q23 -13 29.5 -39.5t-4.5 -66.5v-2t-1 -2v-1.5t-1 -1.5v-2t-1 -2v-1.5v-1.5q-8 -29 -26 -55.5t-46 -50.5q-27 -24 -57.5 -38.5t-65.5 -20.5q34 -6 61.5 -17t49.5 -27q21 -16 25.5 -46.5t-7.5 -74.5
q-14 -53 -42 -91.5t-69 -61.5q-40 -24 -82 -36.5t-84 -13.5h-2.5h-2.5h-3h-3h-5.5h-4.5h-205v0v0zM191 39h95q35 -2 65 6.5t56 25.5t44.5 35.5t31.5 39.5l2 4t2 5q0 2 1 4l2 4l4 8t3 8q14 50 6.5 83.5t-34.5 49.5t-76 24t-120 8l-82 -305v0v0zM284 386h63q44 -2 80.5 6.5
t64.5 25.5t48 42t32 58v1.5v1.5l0.5 1t1.5 2v0.5t1 1.5v1.5t1 1.5q8 29 1.5 51t-26.5 36t-46 21t-57 7l-94 2l-70 -260v0v0z" />
    <glyph glyph-name="C" unicode="C" horiz-adv-x="669" 
d="M129 339q20 70 61 131.5t105 114.5q63 53 138.5 79.5t160.5 26.5h10h10q5 -1 10 -1h10q10 -1 20.5 -1.5t21.5 -1.5q20 -1 39.5 -4.5t38.5 -8.5t35 -12.5t29 -17.5l-45 -77h-8q-13 16 -28.5 29.5t-32.5 23.5q-18 10 -36 16.5t-38 10.5q-6 1 -11.5 1.5t-10.5 1.5h-6t-5 1
h-5.5h-5.5q-53 0 -105.5 -20t-103.5 -60t-86.5 -95t-54.5 -126q-1 -2 -1.5 -3.5t-0.5 -3.5q0 -1 -0.5 -1.5t-0.5 -1.5t-0.5 -1.5t-0.5 -1.5q-21 -85 -15.5 -146t37.5 -96q32 -36 73.5 -53.5t92.5 -17.5h4h4h4.5h5.5q28 2 56.5 7.5t56.5 15.5q29 10 55.5 23.5t50.5 29.5
l-25 -61q-5 -4 -10.5 -7t-10.5 -5q-11 -5 -21.5 -9.5t-20.5 -8.5q-12 -4 -23.5 -7t-22.5 -7q-4 -1 -7.5 -2t-7.5 -2q-16 -3 -31 -6t-29 -5t-28 -3t-28 -1q-73 0 -129.5 23t-97.5 72t-49.5 115.5t13.5 150.5v2v0z" />
    <glyph glyph-name="D" unicode="D" horiz-adv-x="780" 
d="M279 693h323q86 -2 139 -26.5t74 -72.5t22.5 -104.5t-15.5 -121.5q-4 -16 -10 -33t-14 -36t-18 -37.5t-21 -37.5q-26 -40 -61.5 -77.5t-80.5 -72.5q-46 -34 -103.5 -53t-127.5 -21h-292l185 693v0v0zM362 646l-161 -599q8 -2 15.5 -2.5t14.5 -1.5q4 0 7.5 -0.5t7.5 -0.5
q11 -1 22.5 -1h21.5q87 0 155.5 18t117.5 54t88 98t67 149q2 4 3.5 8t2.5 8t2 7.5t2 7.5q18 68 13 115t-33 74t-61.5 44t-74.5 23q-10 2 -19.5 2.5t-20.5 1.5q-10 1 -20 1.5t-19 0.5q-13 0 -25.5 -0.5t-23.5 -1.5t-21 -1.5t-20 -1.5q-7 -1 -13 -1.5t-11 -0.5q-5 -1 -10 -1.5
t-8 -0.5l1 2v0z" />
    <glyph glyph-name="E" unicode="E" horiz-adv-x="504" 
d="M87 0l183 685h362q-3 -5 -4.5 -8.5t-3.5 -6.5q-1 -1 -1.5 -2.5t-1.5 -2.5l-1.5 -3t-0.5 -3v-1.5v-1.5t-0.5 -1.5l-0.5 -0.5q0 -1 -0.5 -1.5l-0.5 -0.5q-1 -4 -1.5 -7.5t-1.5 -7.5v-4t1 -4v-5v-4q-14 3 -28.5 5t-31.5 3q-8 0 -16 0.5t-16 0.5q-9 1 -17 1h-16h-10h-10
h-10.5h-10.5q-4 -1 -8 -1h-8h-8h-7h-8.5h-9.5q-4 -1 -8.5 -1h-8.5h-17.5h-16.5l-65 -242h150l96 8q-1 -2 -1.5 -3.5t-1.5 -2.5q-2 -2 -3.5 -4.5t-2.5 -4.5t-1.5 -4t-0.5 -3q-1 -2 -1.5 -4t-1.5 -4q0 -1 -0.5 -2.5t-0.5 -3.5l-0.5 -1l-0.5 -1q0 -3 -0.5 -5t-0.5 -4v-6v-6
v-2.5v-3.5l-116 10h-126l-76 -284q7 -2 14.5 -3t16.5 -1q9 -1 19 -1h20h16h17h9t9 1h8.5h8.5l40 2t39 2q18 2 33.5 3.5t27.5 2.5q-1 -2 -2.5 -4.5t-2.5 -4.5t-2.5 -4.5t-2.5 -4.5q-1 -4 -2.5 -8t-2.5 -8l-2 -8t-1 -8q-1 -4 0 -7t2 -4h-370v0v0z" />
    <glyph glyph-name="F" unicode="F" horiz-adv-x="504" 
d="M270 685h354q-1 -4 -2.5 -6.5t-3.5 -4.5q-1 -2 -1.5 -4t-1.5 -4q-1 -3 -2.5 -5t-1.5 -4q-1 -2 -1.5 -4.5t-1.5 -4.5q0 -1 -0.5 -2.5t-0.5 -3.5q-1 -3 -1.5 -6t-0.5 -6q-1 -4 -1 -8.5t1 -9.5q-4 0 -7.5 0.5t-6.5 1.5h-2.5t-2.5 1q-2 0 -3 0.5l-3 1.5q-28 5 -57 8l-58 6
q-29 2 -59.5 3.5t-62.5 1.5l-65 -242h150l104 8q-1 -3 -2 -5l-2 -4q-1 -1 -2 -2.5t-2 -3.5q-1 -1 -1.5 -2.5t-0.5 -2.5l-1.5 -3t-0.5 -3q-1 -1 -1 -1.5v-1.5q-1 -1 -1 -2v-2q-1 -4 -2 -7.5t-1 -7.5v-4v-4v-2v-1v-3v-3l-100 9h-150l-92 -346q-4 0 -8.5 0.5t-9.5 1.5
q-4 1 -9.5 1.5t-10.5 0.5h-4h-4q-4 -1 -7.5 -1t-8.5 -1q-6 -1 -12 -1.5t-12 -0.5l183 685v0v0z" />
    <glyph glyph-name="G" unicode="G" horiz-adv-x="780" 
d="M145 339q26 79 61 138t81 97q45 38 90 64t91 40q24 8 47 13t45 8t42 5t36 3q32 0 63.5 -3.5t62.5 -10.5t60 -19.5t57 -29.5l-55 -85q-4 2 -8.5 6.5t-9.5 10.5q-4 6 -9.5 12t-10.5 12q-12 11 -27 21t-34 19t-44.5 14t-57.5 5q-10 0 -19.5 -0.5t-20.5 -2.5q-11 -1 -22.5 -3
t-22.5 -5q-40 -10 -80 -31.5t-81 -54.5q-40 -33 -71 -81t-53 -113v-2t-1 -2v-1.5v-0.5q-1 -1 -1 -1.5v-0.5v-1.5v-0.5q-1 -1 -1 -1.5v-0.5v-1.5v-0.5q-1 -1 -1 -1.5v-0.5q-20 -73 -16.5 -133t31.5 -106q29 -46 76 -68.5t113 -22.5q26 0 50.5 2.5t48.5 7.5t43 12.5t33 16.5
l70 262q2 -2 4 -2.5t4 -1.5t4 -1.5t4 -0.5q3 -1 7 -1.5t8 -0.5h2h2h3.5h2.5h10.5t10.5 1q6 1 12 2.5t13 2.5l-78 -290q-1 -2 -2 -3t-2 -1h-0.5h-0.5q-1 -1 -1.5 -1h-0.5q-6 -2 -13 -4l-14 -4q-8 -3 -16.5 -5t-18.5 -4q-19 -4 -38 -7t-39 -5q-19 -3 -36.5 -5.5t-34.5 -3.5
q-16 -2 -30.5 -3t-25.5 -1h-4.5h-4.5h-4.5h-4.5q-85 0 -145.5 23t-97.5 72q-37 48 -44.5 112.5t14.5 145.5v2v0z" />
    <glyph glyph-name="H" unicode="H" horiz-adv-x="780" 
d="M79 0l187 701q3 -2 6.5 -3.5t7.5 -2.5q5 -1 9.5 -1.5t8.5 -0.5h1.5h1.5h0.5h1.5h3.5h2.5h12t13 1q5 1 10 2.5t8 2.5l-78 -290q14 -4 35 -6t51 -4q29 -1 59.5 -2t62.5 -1h0.5h1.5h1.5h1.5q32 0 63 0.5t61 1.5q30 2 52.5 4t36.5 5l78 294q1 -2 2 -2.5t2 -0.5q0 -1 1 -1h2
q1 -1 3 -1h4q2 -1 3.5 -1.5t3.5 -0.5q2 -1 3.5 -1h3.5h7.5h7.5h10.5t11.5 1q2 0 3.5 0.5t3.5 0.5q4 1 7.5 2t6.5 2l-187 -699q-4 0 -8.5 0.5t-9.5 1.5q-4 1 -9.5 1.5t-10.5 0.5h-4h-4q-4 -1 -7.5 -1t-8.5 -1q-6 -1 -12 -1.5t-12 -0.5l92 346q-7 0 -16 0.5t-20 1.5
q-10 0 -22.5 0.5t-26.5 1.5q-28 2 -59.5 2.5t-65.5 0.5h-12h-12q-7 -1 -13 -1h-12h-12h-12q-7 -1 -13 -1h-12q-15 -1 -30 -1.5t-30 -1.5t-29.5 -1.5t-28.5 -2.5l-92 -344q-6 0 -11 0.5t-10 1.5q-4 1 -8 1.5t-9 0.5t-10.5 -0.5t-11.5 -1.5t-12 -1.5t-14 -0.5v0v0z" />
    <glyph glyph-name="I" unicode="I" 
d="M279 693q4 -3 8.5 -4.5t10.5 -2.5q5 -1 10.5 -1h11.5h4h4q4 0 8 0.5t8 0.5q6 1 11.5 2.5t10.5 2.5l-185 -691q-4 0 -9.5 0.5t-10.5 1.5t-10.5 1.5t-11.5 0.5t-12 -0.5t-13 -1.5q-6 -1 -10.5 -1.5t-9.5 -0.5l185 693v0v0z" />
    <glyph glyph-name="J" unicode="J" 
d="M295 693q4 -3 8.5 -4.5t10.5 -2.5q5 -1 10.5 -1h11.5h4h4q4 0 8 0.5t8 0.5q6 1 11.5 2.5t10.5 2.5l-173 -644q-10 -38 -32.5 -69t-58.5 -58t-72.5 -40.5t-74.5 -14.5h-2.5h-1.5h-1.5h-0.5q0 1 -0.5 1h-1.5h-2h-2l6 32q41 3 70.5 19t45.5 45q17 28 31 62.5t25 75.5
l158 593v0v0z" />
    <glyph glyph-name="K" unicode="K" horiz-adv-x="614" 
d="M87 0l185 693q3 -2 7 -3.5t8 -2.5q2 0 4 -0.5t5 -0.5q2 -1 4 -1h4h2h2h2h2h4h4q4 0 8 0.5t8 0.5q6 1 11.5 2.5t10.5 2.5l-86 -321q7 3 14.5 7.5t15.5 10.5l16 12t17 13q2 2 5 4t7 4q2 2 5 4.5t7 5.5q2 1 3.5 2.5t3.5 2.5q3 3 6.5 5.5t7.5 5.5q5 4 9.5 8t10.5 8l289 230
q2 -2 4.5 -3t5.5 -2q2 0 4.5 -1t4.5 -1q4 -1 8.5 -1h8.5h1.5h1.5h0.5h1.5h3.5t3.5 1h4.5t5.5 1l6 2t7 2l-389 -305l224 -370l-4 -16h-6t-6 1q-4 0 -7 0.5t-6 0.5q-6 1 -12.5 1.5t-13.5 0.5h-4.5h-5.5q-5 -1 -9.5 -1t-10.5 -1q-7 -1 -14.5 -1.5t-15.5 -0.5l-159 291l-2.5 2.5
t-3.5 4.5q-2 2 -3.5 4.5t-2.5 5.5q-4 7 -8 13t-9 12q-4 6 -9 9t-11 3h-2h-2h-0.5h-0.5q-1 -1 -1.5 -1h-0.5l-92 -344q-4 0 -8.5 0.5t-9.5 1.5q-4 1 -9.5 1.5t-10.5 0.5h-4h-4q-4 -1 -7.5 -1t-8.5 -1q-6 -1 -12 -1.5t-12 -0.5v0v0z" />
    <glyph glyph-name="L" unicode="L" horiz-adv-x="504" 
d="M87 0l185 693q3 -3 8 -4.5t11 -2.5q5 -1 11 -1h13h12t13 1q5 1 9.5 2.5t8.5 2.5l-171 -636q7 -2 14.5 -3t16.5 -1q9 -1 19 -1h20h16h17h9t9 1h8.5h8.5l40 2t39 2q18 2 33.5 3.5t27.5 2.5q-2 -3 -3.5 -6t-2.5 -6l-2 -6t-2 -5q-1 -3 -1.5 -6t-1.5 -5q-1 -3 -1 -5.5v-4.5
q0 -1 -0.5 -2.5t-0.5 -3.5q0 -1 -0.5 -2.5t-0.5 -2.5v-3.5v-2.5h-362v0v0z" />
    <glyph glyph-name="M" unicode="M" horiz-adv-x="890" 
d="M39 0l280 693h31l135 -528l424 528h32l-106 -693q-6 0 -12 0.5t-11 1.5q-5 0 -9.5 0.5t-9.5 1.5h-2h-2h-2h-2q-6 0 -12.5 -0.5t-13.5 -1.5q-6 -1 -12.5 -1.5t-14.5 -0.5l92 520l-395 -504h-16l-119 496l-184 -512q-3 0 -6.5 0.5t-7.5 1.5t-8 1.5t-9 0.5h-2h-1h-2h-2h-1.5
h-1.5q-1 -1 -1.5 -1h-1.5h-2.5h-2.5q-3 -1 -5.5 -1t-4.5 -1q-3 -1 -6 -1h-6v0v0z" />
    <glyph glyph-name="N" unicode="N" horiz-adv-x="780" 
d="M94 0l185 693h48l339 -528l141 528q2 -3 5.5 -4.5t7.5 -2.5q3 -1 7.5 -1h8.5h3h3q3 0 6 0.5t6 0.5q5 1 8.5 2.5t7.5 2.5l-185 -691h-39l-344 543l-145 -543q-3 0 -6 0.5t-7 1.5q-3 1 -6.5 1.5t-7.5 0.5h-2.5h-3.5q-3 -1 -5.5 -1t-6.5 -1t-8.5 -1.5t-9.5 -0.5v0v0z" />
    <glyph glyph-name="O" unicode="O" horiz-adv-x="835" 
d="M131 346q1 1 1.5 3.5t1.5 4.5q0 2 0.5 4.5t1.5 4.5t2 4.5t2 5.5q0 2 1 4.5t2 5.5q23 60 65 115.5t103 106.5t136.5 76.5t166.5 25.5q91 -3 151.5 -24t88.5 -62q29 -40 43 -84t12 -92v-12t-1 -11q0 -6 -1 -12l-2 -12q-1 -12 -3.5 -23.5t-4.5 -22.5v-1.5t-1 -1.5v-1.5v-0.5
l-1 -1v0v-2t-1 -2v-1.5v-1.5q-22 -83 -68 -148.5t-117 -112.5q-71 -48 -143 -71t-145 -23h-4h-4h-4.5h-4.5q-13 0 -25.5 0.5t-24.5 2.5q-13 1 -25 4l-24 6q-47 11 -85.5 38t-70.5 68q-31 41 -35 101.5t17 139.5v2v0zM234 346q-20 -78 -16.5 -138t31.5 -102q29 -42 74.5 -63
t107.5 -21q56 0 108.5 21t101.5 63t87.5 102t64.5 136q1 2 1.5 4.5t0.5 3.5t0.5 2t0.5 2t0.5 2t0.5 2q18 65 13 120t-32 99q-28 44 -74 66t-109 22q-57 0 -105 -18t-88 -53q-39 -36 -70 -75t-54 -81q-7 -13 -13 -25t-11 -24q-6 -12 -10.5 -24t-9.5 -23v2v0z" />
    <glyph glyph-name="P" unicode="P" horiz-adv-x="559" 
d="M256 693h252q50 -2 84.5 -12.5t53.5 -30.5t23 -49.5t-6 -67.5q-1 -1 -1 -2v-2q-1 -1 -1 -2v-2v-2t-1 -2v-2t-1 -2q-12 -45 -36 -78t-59 -56q-35 -22 -71 -37t-73 -23q-13 -3 -26 -4.5t-26 -3.5q-12 -1 -23.5 -1.5t-22.5 -0.5t-21.5 0.5t-19.5 1.5q-10 1 -17.5 2.5
t-12.5 3.5l-86 -321q-6 0 -11.5 0.5t-10.5 1.5q-4 1 -9.5 1.5t-10.5 0.5q-6 0 -12 -0.5t-13 -1.5q-6 -1 -12.5 -1.5t-14.5 -0.5l185 693v0v0zM261 362h95q36 -2 67 9.5t57 33.5q26 23 44.5 48t28.5 53q0 1 0.5 1.5l0.5 0.5q1 2 1.5 3.5t0.5 2.5q1 2 1.5 4t1.5 4q7 26 5 48.5
t-13 42.5q-10 20 -31.5 30t-53.5 10h-2h-2h-2h-1q-2 -1 -3 -1h-2h-2h-2l-110 2l-79 -292v0v0z" />
    <glyph glyph-name="Q" unicode="Q" horiz-adv-x="835" 
d="M133 354q26 85 73 150t116 111q68 46 139 69t145 23q89 0 151 -24.5t98 -73.5q35 -49 43.5 -113t-9.5 -144q-16 -59 -46.5 -113t-76.5 -103q-45 -49 -103 -83t-128 -53l176 -165q-2 -1 -4.5 -2t-4.5 -2q-2 0 -4.5 -1t-4.5 -2l-4 -2t-3 -2q-2 0 -3.5 -1t-3.5 -2l-14 -6
t-13 -6t-12 -7l-12 -8q-1 0 -1.5 -0.5t-0.5 -1.5q-1 0 -1.5 -0.5t-1.5 -0.5q-1 -1 -1.5 -2t-2.5 -2l-167 197h-6t-5 -1h-5.5h-5.5h-5.5t-4.5 -1h-5.5h-5.5q-91 0 -153.5 25.5t-94.5 77.5q-33 53 -41.5 110.5t4.5 120.5q0 2 0.5 4t1.5 5q0 1 0.5 1.5t0.5 1.5q0 2 0.5 3.5
t1.5 3.5v2t1 2v2.5t1 2.5v2t1 2v0.5t1 1.5v0.5v1.5v2v0zM236 354q-22 -87 -21 -150t26 -103q26 -40 71.5 -59.5t110.5 -19.5q71 0 128.5 24.5t102.5 73.5q45 50 75 104t46 113q4 13 7 27.5t6 30.5q2 16 4.5 32t3.5 32q2 38 -7 72t-28 65q-18 32 -58.5 47.5t-102.5 15.5h-4
h-4h-2h-1h-2h-2q-59 0 -112.5 -23t-101.5 -68q-48 -46 -81.5 -100t-53.5 -116v2v0z" />
    <glyph glyph-name="R" unicode="R" horiz-adv-x="614" 
d="M87 0l185 693h244q50 -2 84.5 -14t51.5 -35q18 -24 22 -53.5t-5 -64.5q-10 -34 -26.5 -61.5t-41.5 -47.5q-13 -10 -25.5 -19t-24.5 -16q-13 -8 -25.5 -13.5t-25.5 -10.5q-13 -4 -24.5 -8t-22.5 -6q-11 -3 -21.5 -4.5t-18.5 -2.5l178 -337h-7.5t-7.5 1q-4 0 -7.5 0.5
t-5.5 1.5h-8h-7h-4t-3 1h-4h-4q-7 0 -15 -0.5t-16 -1.5q-7 -1 -14.5 -1.5t-15.5 -0.5l-171 331h-32l-88 -331h-6t-6 1q-3 0 -5.5 0.5t-4.5 1.5h-6h-6h-2.5t-2.5 1h-3h-3q-6 0 -12 -0.5t-13 -1.5q-6 -1 -12 -1.5t-12 -0.5v0v0zM280 370q3 -2 6 -2.5t6 -0.5h3h3h4h5h4h4
q44 0 79 6t61 19t45.5 27.5t32.5 30.5q10 11 17.5 22.5t11.5 21.5q5 11 8 19t4 13q0 2 0.5 5t0.5 6t0.5 6.5t0.5 7.5q1 8 -0.5 16t-4.5 17q-4 13 -13.5 25t-23.5 22q-14 11 -37 16t-55 5l-86 2l-76 -284v0v0z" />
    <glyph glyph-name="S" unicode="S" horiz-adv-x="504" 
d="M198 535q17 43 43.5 74.5t60.5 51.5q17 10 33.5 17.5t33.5 13.5t33.5 10t33.5 5h6h6h3.5t3.5 1h3h3q25 0 47.5 -4t41.5 -12q20 -7 32 -17.5t17 -22.5q-7 -6 -13 -12.5t-11 -14.5t-10.5 -18.5t-12.5 -22.5q0 -1 -0.5 -1.5l-0.5 -0.5q0 -1 -0.5 -1.5t-0.5 -1.5
q-1 -1 -1.5 -2.5t-1.5 -3.5l-15 2q-1 2 -1.5 5.5t-1.5 7.5q-1 5 -2 9.5t-3 8.5q-4 10 -12.5 19t-19.5 17t-27.5 12.5t-36.5 4.5q-22 0 -43.5 -9t-44.5 -27t-37 -39t-21 -44q0 -2 -0.5 -4.5t-1.5 -4.5t-1 -4v-4q-1 -13 1 -26.5t9 -27.5q8 -13 20.5 -24.5t31.5 -21.5l99 -45
q26 -14 43.5 -32t24.5 -40q8 -22 8 -45.5t-6 -47.5q-1 -3 -1.5 -5.5t-1.5 -4.5t-1.5 -4.5t-1.5 -4.5q-15 -40 -43 -76t-70 -69t-87 -49t-95 -16h-1.5h-0.5h-1.5h-1.5h-2h-2h-4h-4q-2 1 -4 1h-4h-4t-4 1q-2 0 -4 0.5t-4 0.5q-19 3 -35.5 8.5t-32.5 12.5q-16 8 -27.5 16.5
t-19.5 17.5h-0.5t-0.5 1h-1v0v0.5v1.5q6 10 11.5 19t8.5 16q2 4 3.5 7.5t2.5 7.5q1 1 1.5 2t0.5 2q1 3 2 5.5t2 4.5q1 3 2.5 7t2.5 8q0 2 0.5 4t1.5 4t1.5 4t0.5 4l17 2q16 -40 32 -63t33 -29q17 -7 33 -10t31 -3q33 0 60.5 10t50.5 31q22 21 37 44t22 48q5 20 4.5 38.5
t-6.5 36.5q-5 18 -18 31t-33 21l-90 49q-39 19 -58.5 41t-20.5 46t2 49t10 51v2v0z" />
    <glyph glyph-name="T" unicode="T" horiz-adv-x="559" 
d="M236 0l173 646q-10 -2 -22 -2.5t-27 -2.5q-8 -1 -16 -1.5t-16 -1.5t-16 -1.5t-16 -1.5q-6 -1 -12 -1.5t-11 -1.5t-10.5 -1.5t-10.5 -0.5q-8 -1 -15.5 -2t-14.5 -2q-3 -1 -5.5 -1.5t-4.5 -0.5q-10 -1 -17 -2t-13 -2q2 2 3 4.5t2 4.5t2.5 4t2.5 5q0 2 0.5 4t1.5 4t1.5 4.5
t1.5 4.5q1 3 1.5 6t0.5 6q0 2 0.5 3.5t0.5 2.5q1 5 1 9.5v8.5l527 2q-1 -4 -2.5 -6.5t-2.5 -4.5l-2 -4l-2 -4q-1 -3 -2.5 -5t-1.5 -4q-1 -2 -1.5 -4.5t-0.5 -4.5q-1 -4 -2.5 -8.5t-1.5 -9.5v-6v-6v-2.5v-3.5q-34 6 -65.5 10.5t-60.5 7.5t-51.5 4.5t-36.5 1.5l-172 -644h-4.5
t-4.5 1q-3 0 -5.5 0.5t-4.5 0.5q-4 1 -9.5 1.5t-10.5 0.5h-4h-4q-4 -1 -7.5 -1t-8.5 -1q-6 -1 -12 -1.5t-12 -0.5v0v0z" />
    <glyph glyph-name="U" unicode="U" horiz-adv-x="780" 
d="M158 268l114 425q3 -2 6 -3t7 -2q3 0 6 -1t6 -1t5.5 -0.5t5.5 -0.5h5.5h5.5h2h2h1h2h4t5 1h6.5t7.5 1l8 2t9 2l-110 -408q-18 -70 -16.5 -118.5t23.5 -77.5q23 -29 57.5 -43.5t81.5 -14.5q59 0 104.5 16t77.5 47q33 32 58.5 77.5t44.5 104.5l112 419q2 -2 3 -2.5l3 -1.5
q1 -1 2.5 -1.5t2.5 -0.5q2 0 3 -0.5t3 -0.5q1 -1 2.5 -1h2.5h1h2h2h2h8t8 1t8.5 2.5t9.5 2.5l-108 -400q-18 -70 -49.5 -125.5t-75.5 -97.5q-44 -43 -106 -63.5t-142 -20.5h-4.5h-4.5h-4.5h-4.5q-83 0 -133.5 21t-67.5 64q-16 44 -17.5 93t13.5 104v2v0z" />
    <glyph glyph-name="V" unicode="V" horiz-adv-x="669" 
d="M199 685q3 -2 6 -3t7 -2q3 0 6 -1t6 -1q7 -1 13.5 -1h12.5h6h7q3 0 6 0.5t6 0.5t6.5 0.5t6.5 1.5t6.5 1.5t6.5 1.5l84 -565q15 16 34.5 40t41.5 55t45.5 64.5t48.5 70.5q8 12 16 24.5t16 25.5q8 12 16.5 24.5t16.5 25.5q20 32 39.5 62.5t38.5 61.5q19 30 36 58t32 53
q2 -1 5 -2t7 -2q3 -1 6.5 -1.5t7.5 -0.5h1.5h1.5h0.5h1.5h1.5h1.5h0.5h1.5h10.5t10.5 1t10.5 2.5t10.5 2.5l-474 -683h-2t-1 1q-1 0 -2 0.5t-2 0.5q-1 1 -3.5 1.5t-4.5 0.5h-2h-2q-2 -1 -3.5 -1t-4.5 -1t-6 -1.5t-6 -0.5l-132 685v0v0z" />
    <glyph glyph-name="W" unicode="W" horiz-adv-x="1000" 
d="M220 0l-37 685q2 -2 4 -2.5t4 -1.5q4 -1 8.5 -1.5t7.5 -1.5q6 -1 12 -1h12h12t12 1q7 1 14.5 2.5t15.5 2.5l20 -573l350 575q2 -2 3 -2.5l3 -1.5q1 -1 2.5 -1.5t2.5 -0.5q2 -1 5 -1.5t6 -0.5h1h2h2h2h7.5t7.5 1q5 1 9.5 2.5t9.5 2.5l37 -565l334 567q2 -2 3.5 -3t3.5 -2
t4.5 -1h4.5q1 -1 3 -1.5t4 -0.5h4.5h4.5h9.5t8.5 1q3 0 5.5 0.5t4.5 1.5t4.5 1.5t5.5 1.5l-419 -683h-4t-4 1q-3 0 -5 0.5t-4 0.5q-4 1 -8 1.5t-9 0.5q-4 0 -9 -0.5t-10 -1.5q-4 -1 -8.5 -1.5t-9.5 -0.5l-30 567l-340 -567q-3 0 -6.5 0.5t-7.5 1.5t-8.5 1.5t-9.5 0.5
t-10.5 -0.5t-12.5 -1.5q-6 -1 -12 -1.5t-12 -0.5v0v0z" />
    <glyph glyph-name="X" unicode="X" horiz-adv-x="614" 
d="M360 346l-122 339q5 -3 11 -4.5t13 -2.5t14 -1h14h7.5h7.5q3 0 6.5 0.5t7.5 0.5q8 1 15 2.5t14 2.5l88 -258l235 260q4 -3 7.5 -4.5t7.5 -2.5t7.5 -1h7.5h8.5t8.5 1q5 1 11 2.5t13 2.5l-295 -305l136 -378q-7 0 -14.5 0.5t-15.5 1.5q-7 1 -13.5 1.5t-13.5 0.5t-15 -0.5
t-16 -1.5q-7 -1 -14.5 -1.5t-15.5 -0.5l-92 307l-255 -307h-1.5h-0.5h-1.5h-1.5h-2t-2 1h-2h-2q-2 1 -4 1.5t-4 0.5h-4t-3 1h-4h-4q-5 0 -11 -0.5t-13 -1.5q-6 -1 -12.5 -1.5t-14.5 -0.5l329 346v0v0z" />
    <glyph glyph-name="Y" unicode="Y" horiz-adv-x="614" 
d="M337 291l-138 394q3 -2 5.5 -2.5t4.5 -1.5q5 -1 10.5 -1.5t9.5 -1.5q4 0 7.5 -0.5t7.5 -0.5h6.5h7.5h4.5h4.5h4.5t5.5 1h9.5t9.5 1l10 2t11 2l100 -329l270 331q2 -2 4.5 -3t5.5 -2q2 0 4.5 -1t4.5 -1q5 -1 10.5 -1h10.5h2h2h1h2h4t4 1h7t8 1l8 2t9 2q-8 -8 -15.5 -16
t-15.5 -16t-15.5 -16t-14.5 -16q-8 -8 -15.5 -16.5t-15.5 -16.5t-15.5 -16.5t-15.5 -16.5q-31 -33 -59.5 -65t-57.5 -64q-28 -32 -53 -62t-46 -57l-81 -305q-6 0 -11.5 0.5t-10.5 1.5q-4 1 -9.5 1.5t-10.5 0.5q-6 0 -12 -0.5t-13 -1.5q-6 -1 -12.5 -1.5t-14.5 -0.5l77 291v0
v0z" />
    <glyph glyph-name="Z" unicode="Z" horiz-adv-x="614" 
d="M238 685h536l-6 -24q-73 -73 -146.5 -146t-147.5 -148t-152.5 -155.5t-159.5 -166.5h3.5h2.5h1.5h1.5h0.5h1.5q57 0 113.5 1t112.5 2q56 2 106 7t96 14l-5.5 -11t-4.5 -10q-2 -4 -3.5 -8.5t-2.5 -8.5q0 -1 -0.5 -2.5t-1.5 -3.5v-1.5v-0.5v-1.5v-1.5t-0.5 -2.5t-0.5 -2.5
q-1 -2 -1 -3v-3q0 -3 0.5 -5.5t1.5 -3.5h-567l8 31l595 607q-56 -2 -109.5 -3.5t-103.5 -3.5q-25 -1 -49 -2.5t-48 -2.5q-23 -2 -45 -3t-43 -3q2 3 3.5 6t2.5 6q2 3 3.5 6t2.5 6v0l1 1v0.5v1.5v0.5t1 1.5v0.5v1.5q2 4 2 7.5v7.5q1 4 1 8.5v8.5v2v0z" />
    <glyph glyph-name="bracketleft" unicode="[" horiz-adv-x="331" 
d="M102 -118l232 866h165l-8 -31h-102l-216 -804h102l-8 -31h-165v0v0z" />
    <glyph glyph-name="backslash" unicode="\" horiz-adv-x="504" 
d="M402 0l-178 748q2 -2 4 -3.5t5 -1.5q2 0 3 -0.5t3 -0.5q1 -1 2.5 -1h2.5t2 -0.5t2 -0.5h1h2h4h4h9.5t8.5 1q5 1 9 2.5t8 2.5l178 -746h-4.5t-4.5 1q-2 0 -4 0.5t-3 1.5h-4.5h-4.5h-2t-2 1h-2h-2q-4 0 -9 -0.5t-10 -1.5q-4 -1 -8.5 -1.5t-9.5 -0.5v0v0z" />
    <glyph glyph-name="bracketright" unicode="]" horiz-adv-x="331" 
d="M9 -79h103l214 796h-103l8 31h166l-230 -858h-166l8 31v0v0z" />
    <glyph glyph-name="asciicircum" unicode="^" horiz-adv-x="606" 
d="M112 276l339 409h63l118 -409h-79l-94 322l-268 -322h-79v0v0z" />
    <glyph glyph-name="underscore" unicode="_" horiz-adv-x="504" 
d="M-29 -110h495l-13 -47h-495l13 47v0v0z" />
    <glyph glyph-name="grave" unicode="`" horiz-adv-x="331" 
d="M340 535l-131 103q-2 1 -4.5 2.5t-4.5 3.5q-1 1 -1.5 2t-0.5 2q-1 1 -1.5 2t-1.5 2q-1 2 -1.5 3.5t-0.5 3.5v2t1 2v2v2q2 7 6.5 13t12.5 10q7 5 15 7.5t17 3.5v0h1v0v0h0.5h1.5h3.5t3.5 -1q2 0 3.5 -0.5t3.5 -1.5q1 -1 2.5 -1.5t2.5 -1.5t2.5 -2t2.5 -2l115 -156h-47v0v0
z" />
    <glyph glyph-name="a" unicode="a" horiz-adv-x="504" 
d="M76 110q6 22 18 42t31 37t47 30.5t66 22.5l132 26q12 1 21.5 5.5t16.5 11.5q7 8 12 17t8 19q0 1 0.5 2t0.5 2q0 3 0.5 5.5t1.5 5.5v8v8q-1 16 -6.5 31t-16.5 28q-10 14 -26 21t-37 7h-1.5h-2.5h-2h-2q-9 0 -17 -1t-16 -4q-2 0 -4.5 -1t-5.5 -2q-10 -4 -20 -9t-21 -12
q-7 -4 -13.5 -9t-11.5 -10q-7 -5 -13.5 -11t-14.5 -12l-14 2l14 55q3 0 6 1.5t7 2.5q3 2 6.5 4t7.5 4q16 8 33.5 14.5t36.5 13.5q20 6 40.5 9.5t42.5 3.5q44 0 74.5 -9.5t46.5 -28.5t17.5 -51t-9.5 -76l-68 -250q-2 -10 -2 -15.5t3 -8.5t8 -4.5t11 -1.5h6t7 1q4 0 8 1l8 2
l-6 -21q-3 -4 -6.5 -6t-6.5 -4t-6.5 -3t-6.5 -2t-6.5 -1t-6.5 -1t-6.5 -1.5t-6.5 -0.5h-1.5t-1.5 -1h-1.5h-1.5h-1.5h-0.5h-1.5h-1.5q-15 0 -27.5 3.5t-23.5 10.5q-10 8 -14.5 19t-2.5 24q-4 -3 -7 -5t-5 -4q-4 -2 -7 -4l-6 -4q-22 -14 -41.5 -24t-37.5 -15q-19 -6 -36.5 -9
t-32.5 -3q-30 0 -52 8.5t-37 25.5q-15 18 -18.5 40.5t3.5 48.5v2v0zM366 102l36 134q-57 -7 -99.5 -16t-69.5 -23q-28 -13 -45.5 -32t-24.5 -45q0 -1 -0.5 -2.5t-0.5 -2.5q-1 -2 -1.5 -4.5t-0.5 -4.5q0 -1 -0.5 -3t-0.5 -4q0 -1 -0.5 -3t-0.5 -4v-2.5v-3.5v-1.5v-0.5
q0 -1 0.5 -1.5t0.5 -1.5q2 -9 8 -17t16 -16q10 -7 22.5 -11t28.5 -4q8 0 15.5 1t16.5 3q6 1 12.5 3.5t13.5 5.5q2 1 4.5 2.5t4.5 2.5q8 4 16 9t16 11t16 13t17 16v2v0z" />
    <glyph glyph-name="b" unicode="b" horiz-adv-x="559" 
d="M63 0l200 748q4 -3 8.5 -4.5t9.5 -2.5t11 -1h12h6h6q2 0 5 0.5t6 0.5q7 1 12.5 2.5t10.5 2.5l-97 -360q16 16 38 31.5t50 30.5t55.5 22.5t54.5 7.5q51 0 84.5 -18.5t49.5 -54.5q17 -37 19.5 -77.5t-9.5 -85.5q0 -1 -0.5 -1.5t-0.5 -1.5t-0.5 -1.5t-0.5 -1.5t-0.5 -1.5
t-0.5 -1.5t-0.5 -1.5t-0.5 -1.5q-14 -45 -39.5 -85.5t-63.5 -78.5q-37 -37 -83.5 -57.5t-102.5 -24.5q-21 0 -40 4.5t-37 11.5q-18 9 -33 22t-28 31l-77 -53h-24v0v0zM211 228q-2 -5 -3 -8l-2 -6t-1.5 -6t-1.5 -5v-2t-1 -1q0 -1 -0.5 -2t-0.5 -2v-1.5v-1.5q-1 -1 -1 -1.5
v-1.5q-7 -31 -6.5 -60.5t10.5 -55.5q8 -26 29.5 -39t55.5 -13q29 0 58.5 13t59.5 40q29 26 51.5 66t36.5 93q11 37 12.5 70.5t-5.5 64.5t-28 46.5t-56 15.5h-2.5h-3.5h-2.5h-3.5q-15 0 -29.5 -4t-28.5 -11q-14 -8 -28.5 -19.5t-29.5 -26.5q-29 -31 -49 -67t-31 -77l1 2v0z
" />
    <glyph glyph-name="c" unicode="c" horiz-adv-x="504" 
d="M100 228q14 55 43 100.5t71 79.5q42 35 97.5 52.5t123.5 17.5q18 0 33 -1.5t27 -4.5q11 -3 22.5 -6t21.5 -8q5 -2 9 -4.5t8 -4.5q4 -3 8.5 -5.5t9.5 -4.5l-34 -69h-16q-7 16 -17.5 29t-23.5 22q-14 9 -33 13.5t-42 4.5q-38 0 -71.5 -16t-62.5 -48q-28 -31 -47.5 -66.5
t-29.5 -73.5q-10 -39 -9.5 -74.5t13.5 -67.5q12 -32 41 -48t73 -16q23 0 42.5 4t37.5 11q17 8 35 19t37 24q0 1 0.5 1.5t1.5 0.5l0.5 0.5l0.5 0.5q1 0 1.5 0.5l1.5 1.5l7 -5l-21 -48q-20 -14 -41 -24t-43 -15t-44.5 -8.5t-43.5 -3.5h-1.5h-1.5h-1.5h-1.5q-46 1 -84 15.5
t-69 43.5t-38.5 71.5t7.5 97.5v0.5v1.5v0.5t1 1.5v0.5v0.5v0.5t1 1.5v1.5v1.5l1 2v0z" />
    <glyph glyph-name="d" unicode="d" horiz-adv-x="559" 
d="M88 213q17 64 45 114t65 86q38 36 84.5 54.5t99.5 18.5h2h3q1 -1 2.5 -1h2.5h4.5h5.5q20 -3 37.5 -9t32.5 -16t24.5 -21t12.5 -22q1 -2 1 -4.5v-4.5q-1 -2 -1 -4v-4l95 356q2 -2 4.5 -3t5.5 -2q2 0 4.5 -1t4.5 -1q5 -1 10.5 -1h10.5h10.5t10.5 1q6 1 12 2.5t13 2.5
l-202 -754q-4 0 -8.5 0.5t-9.5 1.5q-4 1 -9.5 1.5t-10.5 0.5h-4h-4q-4 -1 -7.5 -1t-8.5 -1q-6 -1 -12 -1.5t-12 -0.5l23 87q-22 -23 -43 -39t-41 -27q-21 -11 -40 -17.5t-37 -9.5h-4t-4 -1h-3.5h-3.5h-2.5h-2.5h-1.5t-1.5 -1h-3.5h-3.5q-40 0 -72 14.5t-55 45.5
q-23 32 -28.5 69.5t6.5 80.5v2t1 2q0 1 0.5 1.5t0.5 1.5v0.5v1.5l1 2v0zM187 228q-10 -40 -13 -69t3 -49t15 -34.5t20 -22.5q6 -4 12 -7.5t13 -5.5q8 -1 14 -2t11 -1h1.5h1.5h1h2q-1 -1 -0.5 -1h1.5h1.5h1.5q28 0 55.5 13t55.5 38q28 26 48 62.5t33 84.5l4.5 18t4.5 20
q2 11 3.5 22t2.5 23q1 23 -3.5 44t-12.5 40t-27 28.5t-48 9.5h-1.5h-1.5h-1.5h-0.5h-2h-1h-1.5h-1.5q-31 -2 -57 -12.5t-45 -30.5q-19 -19 -33.5 -40.5t-25.5 -44.5q-6 -12 -10.5 -23t-7.5 -22l-4 -14l-4 -14l-2 -6l-2 -6l1 2v0z" />
    <glyph glyph-name="e" unicode="e" horiz-adv-x="504" 
d="M89 220q17 64 47 112.5t72 80.5q43 32 88 48.5t92 16.5q42 0 72 -10.5t47 -30.5q17 -21 27 -43.5t12 -47.5q1 -10 1 -20.5t-2 -21.5q0 -3 -0.5 -6.5t-1.5 -6.5q-1 -7 -1.5 -12.5t-2.5 -11.5q-1 -5 -2.5 -9.5t-3.5 -8.5q-1 -4 -2.5 -8t-3.5 -7l-338 2q-12 -46 -12.5 -82
t9.5 -63q11 -27 42 -40.5t81 -13.5q20 0 40.5 4t42.5 13q22 8 41 19.5t35 26.5l-7 -53q0 -1 -0.5 -1.5t-0.5 -1.5q-1 0 -1.5 -0.5l-0.5 -0.5h-0.5h-0.5l-1 -1v0q-2 -1 -3.5 -2t-3.5 -2t-3.5 -2t-3.5 -2q-19 -10 -37.5 -19t-38.5 -15q-20 -8 -46 -12t-57 -4
q-61 3 -100.5 21.5t-56.5 53.5q-18 35 -22 75t5 84v2v0zM459 276q1 1 1.5 3.5t1.5 5.5q0 2 0.5 3t0.5 3q0 1 0.5 2.5t0.5 2.5q6 27 5 51.5t-9 46.5q-7 23 -27.5 34t-55.5 11q-26 0 -49.5 -9.5t-44.5 -27.5q-21 -19 -37 -39t-28 -43q-4 -6 -7 -12t-5 -12t-3.5 -11.5
t-3.5 -10.5l260 2v0v0z" />
    <glyph glyph-name="f" unicode="f" 
d="M87 0l116 433h-71q1 -1 2 0.5t2 3.5t2.5 4t2.5 5v0l1 1v0.5v0.5v0.5v1.5q0 2 0.5 3t0.5 3v2.5v2.5v5.5t-1 3.5l71 2q32 78 64.5 132t67.5 84t68 45t64 16h4h4q1 -1 3 -1h4q4 0 7.5 -0.5t7.5 -1.5q-7 -12 -11.5 -22.5t-7.5 -19.5q-1 -5 -2.5 -9.5t-2.5 -9.5q-2 -4 -3 -8.5
t-3 -9.5l-9 -6q-6 1 -11.5 3.5t-10.5 5.5q-6 2 -13 3.5t-16 1.5q-25 0 -43.5 -8t-30.5 -24q-13 -16 -21.5 -34t-13.5 -38q0 -1 -0.5 -2l-0.5 -1q-1 -1 -1 -2v-2t-0.5 -2l-0.5 -1q0 -1 -0.5 -2t-0.5 -2q-2 -7 -3 -14l-2 -14t-2.5 -14t-1.5 -13q-1 -4 -1.5 -8.5t-0.5 -8.5
q-1 -4 -1.5 -8t-0.5 -7l111 2q-1 -2 -2 -3t-2 -1q-1 -1 -1.5 -2t-1.5 -2q-1 -2 -2 -4.5t-1 -4.5q-1 -3 -1.5 -6t-1.5 -6q0 -3 0.5 -6t1.5 -6l-110 2l-116 -433h-4t-4 1q-3 0 -5 0.5t-4 0.5q-4 1 -8 1.5t-9 0.5t-10.5 -0.5t-11.5 -1.5q-5 -1 -10.5 -1.5t-11.5 -0.5v0v0z" />
    <glyph glyph-name="g" unicode="g" horiz-adv-x="504" 
d="M139 346q14 33 35 57t47 39q27 15 54 23.5t54 11.5h3.5h3.5h3h3h3.5t3.5 1h3h4q23 0 38.5 -0.5t23.5 -1.5q9 -1 16 -1.5t11 -1.5v0v0q0 -1 0.5 -1h0.5h0.5h1.5q4 -1 8.5 -1.5t9.5 -1.5q6 -1 16 -1h24h17.5h20.5t24.5 0.5t29.5 1.5l-10 -37l-116 8q12 -11 20.5 -25
t13.5 -33q6 -19 6 -38.5t-6 -39.5q-15 -40 -35 -67.5t-45 -41.5q-25 -15 -49.5 -24t-49.5 -12q-10 -1 -19 -2t-18 -1h-8.5h-9.5q-4 -1 -8 -1h-8q-13 0 -25.5 -0.5t-22.5 -2.5q-11 -1 -18 -4.5t-11 -8.5q-3 -4 -5 -7.5t-4 -6.5q-2 -4 -3 -7t-2 -5q-4 -15 2 -25t23 -15
t35.5 -8t38.5 -4h3.5h3.5h3h3h6h6h7.5h7.5h6.5h7.5h8t8 1h8h7q7 0 12 -0.5t9 -1.5q28 -6 47.5 -16t30.5 -24t14.5 -36.5t-2.5 -55.5v-0.5v-1.5v-0.5v-1.5q-1 0 -1 -0.5v-0.5v-0.5v-1.5q-1 -1 -1 -1.5v-1.5q-1 -5 -3 -9.5t-4 -8.5q-1 -2 -2 -4.5t-2 -5.5q-1 -2 -2 -4.5
t-2 -4.5q-16 -28 -43.5 -53.5t-65.5 -49.5q-37 -23 -82 -35t-96 -12q-44 0 -77.5 10.5t-54.5 31.5t-27 46t2 54q6 30 18 52.5t29 38.5t39 26t50 15q-13 6 -23 13.5t-16 16.5q-5 9 -5.5 21.5t3.5 27.5q3 12 7 22t11 17q6 8 13.5 14.5t17.5 13.5q5 3 10.5 6t10.5 6t12 7l14 8
q-31 10 -47 24t-18 33t-0.5 38.5t6.5 39.5q1 2 1.5 4.5t0.5 4.5q1 2 1.5 4t0.5 4q1 2 1.5 3.5t0.5 2.5t0.5 2t0.5 2l0.5 1t0.5 2v2v0zM64 -110q-1 -5 -2 -9.5t-1 -9.5q-1 -5 -0.5 -10t1.5 -10q2 -14 10 -27.5t21 -26.5q14 -12 36 -18.5t53 -6.5q6 0 12.5 0.5t13.5 1.5
q6 1 13 1.5t15 2.5q21 5 42 14t40 21q20 13 33 30t19 39q1 3 1.5 5.5t1.5 4.5q0 2 0.5 4.5t1.5 4.5q4 19 1 36t-11 32q-8 16 -34.5 23.5t-70.5 7.5q-33 0 -62.5 -5t-56.5 -15q-26 -10 -45 -32.5t-32 -57.5v0v0zM208 307q-7 -28 -5.5 -49.5t11.5 -38.5q11 -16 27 -24t37 -8
q2 -1 3.5 -1h2.5h3.5h2.5h0.5h1.5h2h2q18 2 37.5 10.5t39.5 24.5q20 17 34.5 39.5t22.5 52.5q8 32 6.5 57t-12.5 42t-28 26t-40 9q-25 -2 -44.5 -9.5t-33.5 -20.5q-16 -13 -27.5 -27t-20.5 -29q-4 -7 -8 -14.5t-7 -15.5q-1 -4 -2 -7.5t-2 -6.5l-2 -6l-2 -6l1 2v0z" />
    <glyph glyph-name="h" unicode="h" horiz-adv-x="559" 
d="M71 0l204 764q2 -2 3.5 -3t2.5 -1q2 -1 4 -1h4q2 -1 3.5 -1.5t3.5 -0.5q2 -1 3.5 -1h3.5h7.5h7.5h10.5t11.5 1q5 1 10.5 2.5t10.5 2.5l-97 -360q1 -1 2 0l2 2l1.5 1.5l1.5 1.5l0.5 0.5l1.5 1.5q2 2 4.5 4t5.5 5l4.5 4.5l5.5 5.5q13 12 29.5 23.5t36.5 21.5q19 11 47 16
t65 5q32 0 55.5 -13t37.5 -39t16 -58.5t-8 -70.5l-84 -313q-6 0 -11.5 0.5t-10.5 1.5q-2 0 -4.5 0.5t-4.5 0.5q-3 1 -5.5 1h-4.5q-5 0 -10.5 -0.5t-11.5 -1.5q-3 0 -6 -0.5t-5 -0.5q-3 -1 -6 -1h-6l82 307q8 31 6 55.5t-16 40.5q-13 17 -30.5 25.5t-39.5 8.5h-2.5h-3.5h-1.5
h-0.5h-1.5h-1.5q-23 -3 -46.5 -14t-47.5 -31q-24 -19 -41 -49t-28 -69l-73 -274q-4 0 -8.5 0.5t-9.5 1.5q-4 1 -9.5 1.5t-10.5 0.5h-4h-4q-4 -1 -7.5 -1t-8.5 -1q-6 -1 -12 -1.5t-12 -0.5v0v0z" />
    <glyph glyph-name="i" unicode="i" 
d="M87 0l130 488q2 -2 3.5 -3t2.5 -1q2 -1 4 -1h4q2 -1 3.5 -1.5t3.5 -0.5q2 -1 3.5 -1h3.5h7.5h7.5h10.5t11.5 1q5 1 10.5 2.5t10.5 2.5l-130 -486q-4 0 -8.5 0.5t-9.5 1.5q-4 1 -9.5 1.5t-10.5 0.5h-4h-4q-4 -1 -7.5 -1t-8.5 -1q-6 -1 -12 -1.5t-12 -0.5v0v0zM256 661
q3 13 10 23t17 17t19.5 10.5t19.5 3.5q11 0 20.5 -3.5t16.5 -10.5t8.5 -17.5t-2.5 -24.5q-5 -14 -12.5 -24.5t-18.5 -17.5l-10 -6t-10 -4q-5 -2 -10 -3t-10 -1q-10 0 -18.5 3.5t-14.5 10.5q-7 8 -8 18.5t2 23.5l1 2v0z" />
    <glyph glyph-name="j" unicode="j" 
d="M91 -39l139 519q4 -3 8.5 -4.5t9.5 -2.5q4 -1 9 -1h10h10.5t11.5 1q5 1 10 2.5t10 2.5l-148 -549q-10 -39 -30.5 -72t-51.5 -60q-30 -26 -59 -39.5t-57 -13.5h-4h-4q-1 1 -3 1h-4t-3.5 0.5t-3.5 0.5q-2 1 -3.5 1.5t-3.5 0.5l8 32q2 -2 4.5 -2.5t4.5 -1.5h2.5t2.5 -1h3h3
q15 0 31 11t35 34q18 22 34 57.5t29 83.5v0v0zM264 661q4 10 11 18.5t17 15.5q10 6 19.5 9.5t19.5 3.5v0h1v0v0h0.5h1.5q9 -1 16.5 -4.5t12.5 -10.5q6 -7 8 -17t0 -24q-6 -13 -14 -23.5t-17 -16.5q-10 -7 -19.5 -10t-18.5 -3q-10 0 -18.5 4t-14.5 12q-7 8 -8.5 19t2.5 25
l1 2v0z" />
    <glyph glyph-name="k" unicode="k" horiz-adv-x="504" 
d="M71 0l206 772q3 -2 7 -3.5t8 -2.5q2 0 4 -0.5t5 -0.5q2 -1 4 -1h4h2h2h2h2h4h4q4 0 8 0.5t8 0.5q6 1 12 2.5l10 2.5l-129 -479v-3v-1v0v0l-1 -1v0q-1 -3 -1 -4.5v-3.5q1 -1 2.5 -1.5t3.5 -0.5q7 0 21 7.5t36 23.5q21 15 45 33t49 39q2 2 5 4.5t6 5.5q3 2 6 4.5t7 5.5
l14 12l14 12q7 5 13.5 11t13.5 12q14 11 26 21t22 19q2 -1 5 -2t7 -2q2 0 3.5 -0.5t3.5 -0.5q2 -1 3.5 -1h3.5h1.5h1.5h0.5h1.5h1.5h1.5h0.5h1.5h10.5t11.5 1q5 1 10.5 2.5t10.5 2.5l-2 -6l-266 -197l157 -267l-4 -16h-6t-6 1q-3 0 -5.5 0.5t-4.5 1.5h-6h-6h-2.5t-2.5 1h-3
h-3q-6 0 -12 -0.5t-13 -1.5q-6 -1 -12 -1.5t-12 -0.5q-7 7 -12.5 15t-10.5 17q-4 9 -9.5 18t-10.5 18q-19 33 -36 63t-31 58q-14 27 -25.5 41t-19.5 15q-1 0 -2 -0.5t-2 -0.5q-1 -1 -2 -1.5t-2 -1.5q-1 -2 -2.5 -6t-3.5 -9l-60 -226q-4 0 -8.5 0.5t-9.5 1.5q-4 1 -9.5 1.5
t-10.5 0.5h-4h-4q-4 -1 -7.5 -1t-8.5 -1q-6 -1 -12 -1.5t-12 -0.5v0v0z" />
    <glyph glyph-name="l" unicode="l" 
d="M94 0l206 772q4 -2 7.5 -3.5t6.5 -2.5q2 0 3.5 -0.5t3.5 -0.5q5 -1 10 -1h10h10.5t11.5 1q4 1 8 1.5t8 1.5q2 1 4 1.5t4 0.5l-206 -770h-4.5t-4.5 1q-3 0 -5.5 0.5t-4.5 0.5q-4 1 -9.5 1.5t-10.5 0.5h-4h-4q-4 -1 -7.5 -1t-8.5 -1q-6 -1 -12 -1.5t-12 -0.5v0v0z" />
    <glyph glyph-name="m" unicode="m" horiz-adv-x="835" 
d="M63 0l130 488q1 -2 1.5 -2.5t1.5 -0.5q0 -1 0.5 -1h1.5q2 -1 3.5 -1h2.5l3 -1.5t3 -0.5q1 -1 2.5 -1h2.5h6h6h10t11 1q5 1 11 2.5t13 2.5l-21 -77q2 1 3.5 2.5l3.5 3.5l2 2l2 2l2 2l2 2q14 13 30.5 25t36.5 23t40.5 17t41.5 6q26 0 45.5 -3t32.5 -8q14 -5 24.5 -16.5
t19.5 -28.5q2 -4 4.5 -9.5t4.5 -11.5q1 -6 3 -12t5 -13q18 26 39.5 45.5t46.5 31.5q26 12 50 18.5t48 6.5q38 0 64.5 -11t42.5 -34q16 -22 21.5 -46.5t0.5 -51.5q-1 -1 -1 -2v-2q-1 -1 -1 -2v-2q-1 -1 -1 -2v-2q-1 -1 -1 -1.5v-1.5q-1 -1 -1.5 -2t-0.5 -2q-1 -1 -1 -1.5
v-1.5l-88 -329h-4.5t-4.5 1q-3 0 -5.5 0.5t-4.5 0.5q-4 1 -9.5 1.5t-10.5 0.5h-4h-4q-4 -1 -7.5 -1t-8.5 -1q-6 -1 -12 -1.5t-12 -0.5l86 323q7 25 4 46t-16 37q-13 15 -30.5 23t-38.5 8h-1.5h-0.5v0v0h-1v0q-20 -1 -41 -9t-42 -24q-22 -16 -38 -40.5t-28 -58.5l-81 -305
h-4.5t-4.5 1q-3 0 -5.5 0.5t-4.5 0.5q-4 1 -9 1.5t-10 0.5t-10.5 -0.5t-11.5 -1.5q-5 -1 -9.5 -1.5t-9.5 -0.5l86 323q7 24 3 44t-18 35q-13 15 -30.5 23t-38.5 9h-1.5h-0.5v0v0h-1v0q-20 0 -41 -7.5t-42 -22.5t-36.5 -39.5t-26.5 -59.5l-81 -305h-4.5t-4.5 1q-3 0 -5.5 0.5
t-4.5 0.5q-4 1 -9.5 1.5t-10.5 0.5h-4h-4q-4 -1 -7.5 -1t-8.5 -1q-6 -1 -12 -1.5t-12 -0.5v0v0z" />
    <glyph glyph-name="n" unicode="n" horiz-adv-x="559" 
d="M79 0l130 488q3 -2 7 -3.5t8 -2.5q2 0 4 -0.5t5 -0.5q2 -1 4 -1h4h2h2h2h2h4h4q4 0 8 0.5t8 0.5q6 1 11.5 2.5t10.5 2.5l-23 -84q4 2 8.5 6.5l9.5 9.5t10.5 10t12.5 11q13 10 28 19t34 18t41 13.5t47 4.5v0h1v0v0h0.5h1.5q29 -1 52.5 -13t40.5 -35q18 -23 19.5 -62
t-13.5 -95l-77 -289h-4t-4 1q-3 0 -5 0.5t-4 0.5q-2 1 -5.5 1t-6.5 1h-2.5h-3.5q-5 0 -11 -0.5t-13 -1.5q-6 -1 -12.5 -1.5t-14.5 -0.5l77 291q10 34 8 60.5t-14 44.5q-13 18 -30 27t-38 9h-1.5h-1.5h-1.5h-1.5q-23 -1 -46.5 -12t-46.5 -31q-24 -19 -40.5 -48t-27.5 -67
l-73 -274q-6 0 -11.5 0.5t-10.5 1.5q-2 0 -4.5 0.5t-4.5 0.5q-3 1 -5.5 1h-4.5q-5 0 -10.5 -0.5t-11.5 -1.5q-3 0 -6 -0.5t-5 -0.5q-3 -1 -6 -1h-6v0v0z" />
    <glyph glyph-name="o" unicode="o" horiz-adv-x="559" 
d="M82 220q16 58 46 106t76 85q45 38 97.5 56.5t111.5 18.5q44 0 75.5 -11t50.5 -32t31 -44t17 -49q2 -17 3 -33.5t0 -32.5t-3 -28.5t-5 -21.5q-2 -9 -5 -18.5t-8 -19.5q-4 -10 -9 -19.5t-10 -19.5q-19 -31 -45.5 -60t-61.5 -55q-35 -25 -78 -37.5t-93 -12.5h-4h-4h-2h-1h-2
h-2q-56 0 -95 16t-61 49t-27 73.5t8 87.5v2v0zM175 213q-2 -8 -4 -18t-4 -22q-1 -12 -1.5 -24.5t1.5 -26.5q2 -18 9 -35t19 -32q11 -15 31 -23t48 -10q32 0 62.5 13t59.5 40q28 26 51 66t40 93q13 47 14.5 85.5t-8.5 68.5q-10 29 -34.5 44t-62.5 15q-37 0 -70.5 -15.5
t-61.5 -47.5q-29 -31 -49.5 -65.5t-31.5 -72.5q-1 -2 -1.5 -4t-0.5 -4q-1 -1 -1.5 -2.5t-0.5 -3.5q0 -1 -0.5 -2.5t-0.5 -2.5l-1.5 -3t-0.5 -3q-1 -3 -1.5 -5.5t-0.5 -4.5l1 2v0z" />
    <glyph glyph-name="p" unicode="p" horiz-adv-x="559" 
d="M191 480q4 -3 8.5 -4.5t9.5 -2.5q4 -1 9 -1h10h10.5t11.5 1q5 1 10 2.5t10 2.5l-27 -100q16 25 35 44.5t41 31.5t43 19.5t42 10.5h4t4 1h4.5h4.5h4t4 1h4h4q44 0 77 -14.5t54 -43.5t23 -77.5t-17 -116.5q-12 -46 -36 -87.5t-59 -79.5q-36 -38 -80 -56.5t-97 -18.5h-2h-2
h-1.5h-1.5h-2h-2h-1.5h-1.5q-32 0 -54.5 6.5t-35.5 21.5q-13 14 -21.5 30.5t-11.5 34.5l-93 -345q-4 1 -8.5 2.5t-9.5 2.5q-4 1 -9.5 1h-10.5h-10.5t-10.5 -1t-9.5 -2.5t-8.5 -2.5l196 740v0v0zM209 252q-1 -2 -1 -3.5v-2.5q-1 -1 -1 -2v-2q-1 -4 -2.5 -8.5t-2.5 -10.5
q-1 -5 -2.5 -10.5t-2.5 -11.5q-4 -13 -5 -25.5t-1 -26.5q-1 -19 4 -36t15 -34q9 -16 28 -26.5t48 -15.5h1.5h1.5h2h2q-1 -1 0 -1h2h1.5h1.5q29 0 56 13t51 38q24 26 42.5 62.5t31.5 84.5q2 4 2.5 7.5t1.5 7.5q1 2 1.5 4t0.5 4t0.5 4t1.5 4q8 34 9 65.5t-4 59.5q-5 29 -24 43
t-54 14h-1.5h-1.5h-1.5h-0.5h-2h-1h-1.5h-1.5q-26 0 -51 -11t-50 -34q-24 -22 -47 -60.5t-46 -91.5v2v0z" />
    <glyph glyph-name="q" unicode="q" horiz-adv-x="559" 
d="M94 236q20 61 46.5 106.5t60.5 75.5t75 45t88 15q29 0 50.5 -6.5t37.5 -19.5t27 -27.5t17 -30.5q2 -2 2.5 -4.5t1.5 -4.5q0 -1 0.5 -2t0.5 -2t0.5 -2.5t1.5 -2.5l27 104q3 -2 7 -3.5t8 -2.5q2 0 4 -0.5t5 -0.5q2 -1 4 -1h4h2h2h2h2h4h4q4 0 8 0.5t8 0.5q6 1 11.5 2.5
t10.5 2.5l-200 -746q-2 1 -4 1.5t-4 1.5q-3 1 -5 1.5t-4 0.5q-5 1 -10.5 1h-10.5h-6h-5q-3 0 -6 -0.5t-6 -0.5t-6 -0.5t-6 -1.5q-4 -1 -7 -1.5t-6 -1.5l91 339q-2 -3 -3.5 -5t-3.5 -4q-2 -3 -3.5 -5t-3.5 -4l-4 -4l-4 -4q-3 -2 -5 -4l-4 -4q-12 -10 -28 -20t-34 -17
q-19 -8 -43.5 -12t-53.5 -4h-1.5h-0.5v0v0h-1v0q-38 1 -68.5 15t-54.5 43t-27 77t15 115l1 2v0zM181 236q-1 -4 -1.5 -7t-1.5 -6q-2 -7 -3.5 -13.5t-2.5 -13.5q0 -5 -0.5 -10.5t-0.5 -10.5q-1 -6 -1 -11.5v-10.5q-1 -24 5 -45t16 -41q10 -19 29.5 -28.5t47.5 -9.5
q33 0 60.5 11.5t49.5 34.5t38.5 48.5t28.5 53.5q2 6 4.5 12t5.5 12l2 6t2 7q0 3 1 6l2 6q2 8 4.5 18.5t4.5 23.5q2 14 3 27.5t0 27.5q-1 22 -6.5 42t-15.5 38q-11 18 -32 27t-51 9q-33 0 -62 -14t-54 -42t-41.5 -59.5t-25.5 -66.5q0 -1 -0.5 -1.5t-0.5 -1.5t-0.5 -1.5
t-0.5 -1.5q-1 -1 -1 -2.5v-2.5t-0.5 -1.5t-0.5 -1.5t-0.5 -1.5t-0.5 -1.5v-2.5t-1 -3.5l1 2v0z" />
    <glyph glyph-name="r" unicode="r" horiz-adv-x="331" 
d="M79 0l128 480q1 -1 2 -1.5t2 -1.5q2 -1 4 -1.5t4 -1.5q2 0 3.5 -0.5t3.5 -0.5q2 -1 3.5 -1h3.5h1.5h1.5h0.5h1.5h1.5h1.5h0.5h1.5h10.5t11.5 1q5 1 10 2.5t10 2.5l-25 -92q17 20 36.5 38t41.5 33q6 4 11.5 7t10.5 6q17 9 34 13t35 4h4h4h2h2q1 -1 2 -1h2l-33 -92
q-7 2 -13.5 5t-12.5 4l-8 2l-8 2q-2 0 -4 0.5t-4 0.5q-19 0 -35.5 -6.5t-30.5 -20.5q-15 -13 -26.5 -28t-20.5 -31q-3 -6 -6 -11.5t-5 -10.5q-1 -3 -2 -6.5t-2 -6.5q-1 -1 -1 -2.5t-1 -3.5l-75 -281h-6.5t-7.5 1t-7 1.5t-6 1.5h-2.5h-3.5h-2h-2q-5 0 -10.5 -0.5t-11.5 -1.5
q-5 -1 -9.5 -1.5t-9.5 -0.5v0v0z" />
    <glyph glyph-name="s" unicode="s" horiz-adv-x="386" 
d="M137 339q11 38 32 67t52 47q16 9 32 16t32 11q16 5 32 7.5t32 2.5q10 0 19.5 -1t18.5 -2q5 -1 9.5 -2t9.5 -2q14 -4 26 -9t23 -11l-45 -77h-16q-1 14 -6 25.5t-15 19.5t-21 12t-25 5h-1.5h-0.5h-1.5h-0.5q-15 0 -29.5 -4t-28.5 -12q-15 -8 -26 -20t-18 -28q-1 -1 -1.5 -2
t-0.5 -2q-1 -1 -1 -2v-2q-1 -1 -2 -2.5t-1 -2.5v-1.5v-0.5q-1 -1 -1 -1.5v-0.5q-4 -18 -0.5 -32t15.5 -23q13 -9 28 -17t32 -14q2 -1 3.5 -1.5t2.5 -0.5q2 -1 3.5 -1.5t3.5 -1.5q3 -1 6.5 -2t7.5 -2q1 -1 3 -2l4 -2t4 -1.5t4 -0.5q24 -10 40 -23t23 -30q8 -16 9.5 -33
t-2.5 -34v-0.5v-0.5q-1 -1 -1 -1.5v-0.5v-1.5t-1 -1.5q-9 -28 -29.5 -54t-52.5 -49t-66.5 -34t-72.5 -11q-21 0 -40 2t-37 6q-19 2 -32.5 9.5t-21.5 19.5l43 73h16q4 -15 9.5 -26t12.5 -19t15 -14t17 -9q3 -1 7 -2.5t8 -2.5q3 -1 7 -1h8q9 0 18.5 1t18.5 4t18.5 8t18.5 11
q17 13 29 27t19 29v2t1 2v2t1 2q4 23 -1 38.5t-19 23.5q-13 8 -28.5 14.5t-32.5 12.5h-2t-2 1h-1.5t-0.5 1h-1.5h-1.5q-2 1 -4 1.5t-4 1.5q-2 0 -4 0.5t-4 1.5t-4 1.5t-4 1.5t-4 1.5t-4 1.5q-16 6 -28.5 16t-21.5 23q-10 14 -11 33.5t6 46.5v2v0z" />
    <glyph glyph-name="t" unicode="t" 
d="M94 118l87 323h-63q1 -1 1.5 0t1.5 1q0 1 0.5 2t1.5 2q2 2 3 4.5t2 4.5v2.5t1 2.5v3.5v2.5v6t-1 6l63 2l26 95l87 31l-34 -126h110q-2 -4 -4 -7t-4 -5q-1 -1 -1.5 -2.5t-0.5 -3.5q0 -1 -0.5 -1.5t-0.5 -1.5q-1 -2 -1.5 -4.5t-0.5 -4.5v-2.5t1 -2.5q0 -2 0.5 -3t0.5 -3
l-109 2l-70 -260q-1 -8 -3.5 -14.5t-4.5 -14.5q0 -2 -0.5 -4t-1.5 -3q-1 -6 -2 -11t-1 -10q-4 -19 -4.5 -36.5t3.5 -32.5q2 -16 13.5 -24t30.5 -8q5 0 11.5 1t13.5 2q7 2 15 4.5t18 6.5l-8 -29q-15 -7 -29 -10t-27 -6t-23.5 -4.5t-20.5 -1.5q-28 0 -46.5 8.5t-27.5 25.5
q-10 17 -10 41t8 55v2v0z" />
    <glyph glyph-name="u" unicode="u" horiz-adv-x="559" 
d="M109 173l82 307q4 -3 8.5 -4.5t10.5 -2.5q5 -1 10.5 -1h11.5h4h4q4 0 8 0.5t8 0.5q6 1 11.5 2.5t10.5 2.5l-76 -281q-8 -32 -8.5 -60t6.5 -52t25 -36.5t47 -12.5h1.5h1.5h2t3 1h1h2h1.5h1.5q29 2 52 12.5t40 28.5t29 38t20 42q0 1 0.5 2l1.5 3q1 1 1.5 2.5t0.5 2.5
q0 2 0.5 3l1.5 3q0 1 0.5 2.5t0.5 2.5l80 301q2 -2 3.5 -3t2.5 -1q2 -1 4 -1h4q2 -1 3.5 -1.5t3.5 -0.5q2 -1 3.5 -1h3.5h7.5h7.5h10.5t11.5 1q5 1 10.5 2.5t10.5 2.5l-128 -478q-4 0 -8.5 0.5t-9.5 1.5q-4 1 -9.5 1.5t-10.5 0.5h-4h-4q-4 -1 -7.5 -1t-8.5 -1
q-6 -1 -12 -1.5t-12 -0.5l19 71q-19 -25 -40.5 -41t-46.5 -24q-24 -6 -49.5 -10t-51.5 -4q-38 0 -63 8t-37 25t-16.5 35.5t-3.5 39.5v9.5v9.5q0 4 1 9t2 9q2 9 4.5 18t4.5 16v2v0z" />
    <glyph glyph-name="v" unicode="v" horiz-adv-x="504" 
d="M136 480h102q0 -19 1 -39t3 -42l2 -22l2 -22q1 -12 2.5 -23t2.5 -22q0 -5 0.5 -10t1.5 -10t1.5 -10t0.5 -10q1 -10 2.5 -20t3.5 -19q2 -19 5 -37t7 -35q3 -17 6.5 -32t7.5 -27q9 11 20 25.5t23 32.5q12 17 25.5 36t27.5 39q2 3 3.5 6t3.5 6q2 2 4 5l4 6q5 6 8.5 12
t7.5 12q20 31 39 60t36 57t29 48t19 33l71 2q-20 -28 -39 -54t-36 -51q-18 -25 -35 -50t-34 -49q-8 -11 -15.5 -22t-15.5 -22q-4 -5 -7.5 -10.5t-7.5 -10.5q-4 -6 -7.5 -11.5t-7.5 -10.5q-15 -23 -30.5 -46.5t-32.5 -47.5l-16 -24l-16 -24l-16 -24t-16 -23h-6t-6 1
q-1 0 -2.5 0.5t-2.5 1.5q-2 0 -3 0.5t-3 0.5h-2h-2h-1.5h-1.5q-4 0 -9 -0.5t-10 -1.5q-4 -1 -7.5 -1.5t-6.5 -0.5l-77 480v0v0z" />
    <glyph glyph-name="w" unicode="w" horiz-adv-x="780" 
d="M181 0q-1 17 -2 37t-2 41q-1 11 -2 21.5t-1 20.5q-1 11 -2 21.5t-2 21.5q-1 8 -1.5 16.5t-1.5 16.5t-1.5 16.5t-1.5 16.5q-2 20 -4 38.5t-4 36.5q-3 18 -5 35.5t-4 34.5q-4 33 -7 59t-4 45q2 -1 3.5 -1.5t2.5 -0.5q2 -1 4 -1h4q2 -1 3.5 -1.5t3.5 -0.5q2 -1 3.5 -1h3.5
h7.5h7.5h10.5t11.5 1q5 1 10.5 2.5t10.5 2.5v-10.5v-10.5t0.5 -10.5t1.5 -10.5q2 -42 4.5 -82.5t5.5 -79.5q3 -40 7.5 -79.5t9.5 -78.5q9 6 24.5 25t35.5 50q20 32 42 67t45 72q1 2 2 3.5t2 2.5q0 1 0.5 2t1.5 2l0.5 1l0.5 1q6 9 11.5 18t10.5 18q6 8 11.5 17t10.5 18
q7 10 13 20l12 20q4 7 8 13l8 12l5 -2.5t7 -2.5q2 -1 5.5 -1h7.5h8t8 1q3 1 6.5 2.5t7.5 2.5q-1 -14 -1 -28.5v-29.5v-14.5t1 -14.5v-15v-15q2 -35 4 -69.5t5 -67.5t7.5 -62t10.5 -54q5 9 16.5 26.5t28.5 43.5q18 26 37 54t38 58q2 2 3 3.5t2 3.5q2 2 3 4l2 4q17 25 33 49
t31 48q16 23 27 42t20 34q5 -1 10.5 -2.5t9.5 -2.5t8 -1h8h1.5h1.5h0.5h1.5h3.5t3.5 1h4.5t5.5 1l6 2t7 2q-46 -59 -89 -118.5t-84 -118.5q-40 -60 -80.5 -120t-79.5 -121h-3t-3 1q-2 0 -3.5 0.5t-3.5 0.5q-3 1 -6.5 1.5t-7.5 0.5h-2.5h-3.5q-3 -1 -5.5 -1t-6.5 -1
t-8.5 -1.5t-9.5 -0.5v13t1 15v15v16q-1 17 -1 33.5v32.5q-1 8 -1.5 16.5t-1.5 17.5q-1 8 -1 16.5v16.5q-1 24 -3 46t-4 43q-1 21 -2.5 38.5t-2.5 32.5q-11 -13 -23.5 -30.5t-26.5 -38.5l-10 -14t-10 -15q-10 -14 -19.5 -29.5t-20.5 -31.5q-5 -9 -10.5 -17.5t-10.5 -16.5
t-10 -16.5t-10 -16.5q-10 -16 -20 -32.5t-20 -33.5q-10 -16 -19.5 -31.5t-17.5 -28.5h-3t-3 1q-2 0 -3.5 0.5t-3.5 0.5q-3 1 -6.5 1.5t-7.5 0.5h-2.5h-3.5q-3 -1 -5.5 -1t-6.5 -1t-8.5 -1.5t-9.5 -0.5v0v0z" />
    <glyph glyph-name="x" unicode="x" horiz-adv-x="504" 
d="M276 236l-124 244q2 -2 4 -2.5t5 -1.5q2 -1 4 -1.5t4 -0.5q5 -1 9.5 -1h8.5q2 -1 4 -1h4h4.5h4.5h14t14 1t14.5 2.5t15.5 2.5q2 -18 7 -34.5t11 -32.5t13 -31l14 -30q1 -3 2.5 -6t3.5 -6q0 -2 0.5 -3t1.5 -2l2 -4l2 -4q2 -7 5.5 -13.5t7.5 -12.5v-1.5t1 -0.5
q0 -1 0.5 -1.5l1.5 -1.5v-1.5t1 -0.5q0 -1 0.5 -1.5t0.5 -1.5l193 191q1 -1 2 -1.5t2 -1.5q2 -1 4 -1.5t4 -1.5q2 0 3.5 -0.5t3.5 -0.5q2 -1 3.5 -1h3.5h1.5h1.5h0.5h1.5h1.5h1.5h0.5h1.5h10.5t11.5 1q5 1 10 2.5t10 2.5q-10 -8 -20.5 -16.5t-20.5 -17.5q-5 -4 -10.5 -8.5
t-10.5 -8.5q-5 -5 -10.5 -9t-11.5 -9q-4 -4 -8.5 -8t-8.5 -7q-5 -4 -9 -8t-9 -8q-9 -8 -17.5 -15.5t-16.5 -15.5q-13 -12 -25.5 -23.5t-24.5 -22.5t-23 -21.5t-22 -21.5l116 -242l-4 -16h-6t-6 1q-3 0 -5.5 0.5t-4.5 1.5h-6h-6h-2.5t-2.5 1h-3h-3q-6 0 -12 -0.5t-13 -1.5
q-6 -1 -12 -1.5t-12 -0.5q-2 4 -4 8.5t-4 8.5l-4 10l-4 10q-4 11 -8 21.5t-8 20.5q-4 6 -7 12.5t-5 13.5l-2 4l-2 4q-2 5 -4 9.5t-4 8.5q-4 8 -8.5 16.5t-8.5 16.5t-8.5 16t-8.5 15l-194 -195q-3 0 -6 0.5t-7 1.5q-3 1 -6.5 1.5t-7.5 0.5h-2.5h-3.5q-3 -1 -5.5 -1t-6.5 -1
t-8.5 -1.5t-9.5 -0.5l4 16l241 220v0v0z" />
    <glyph glyph-name="y" unicode="y" horiz-adv-x="504" 
d="M144 480q6 -3 13 -4.5t14 -2.5t13.5 -1h13.5h6.5h6.5t6.5 0.5t6.5 0.5q6 1 11.5 2.5t10.5 2.5q0 -13 2 -35.5t6 -54.5q3 -31 7.5 -64.5t10.5 -68.5q0 -2 0.5 -4.5t0.5 -4.5t0.5 -4.5t0.5 -4.5q1 -4 1.5 -8.5t1.5 -9.5q1 -7 2.5 -14.5t2.5 -15.5q1 -7 2.5 -14.5t2.5 -14.5
q2 -14 4.5 -27t5.5 -25q9 11 18.5 24t20.5 28q10 14 20.5 29.5t22.5 31.5q4 5 7.5 10.5t7.5 11.5q4 5 8 10.5t8 11.5q23 35 45 67t41 63q19 30 31.5 51t17.5 32q4 -1 8.5 -2.5t8.5 -2.5t8 -1h8h9.5t9.5 1t9.5 2.5t9.5 2.5l-529 -738q-1 0 -2 0.5t-2 1.5q-2 1 -3.5 1.5
l-4.5 1.5q-4 1 -7.5 1h-7.5h-9.5t-10.5 -1t-11 -2.5t-12 -2.5l205 268l-78 472v0v0z" />
    <glyph glyph-name="z" unicode="z" horiz-adv-x="504" 
d="M197 472h394l-4 -15l-427 -418q19 -2 39.5 -1.5t42.5 1.5t45 2.5t47 2.5q6 0 11 0.5t11 0.5q11 1 22 1.5t22 1.5q16 1 31.5 2.5t31.5 2.5q-2 -3 -3.5 -6l-2.5 -5q-1 -3 -2 -5.5t-2 -4.5q-1 -3 -1.5 -5.5t-0.5 -4.5q-1 -2 -1 -4t1 -4q0 -1 -0.5 -1.5l-0.5 -0.5
q0 -1 -0.5 -1.5l-0.5 -0.5v-0.5v-1.5l0.5 -0.5t-0.5 -1.5v-0.5v-1.5l0.5 -0.5t-0.5 -1.5v-1.5v-0.5h-425l6 24q11 8 21.5 17.5t22.5 19.5q4 4 7.5 7t7.5 7q2 1 3.5 3t3.5 4q6 5 11.5 10t11.5 10l22 20t23 20q11 11 22 21.5t22 20.5q11 11 22 21.5t22 20.5q11 11 22 21.5
t22 20.5l40.5 40.5l41.5 41.5q20 20 38.5 40.5t37.5 40.5q-4 0 -9 -0.5t-9 -0.5q-14 -2 -27.5 -2.5t-25.5 -1.5q-17 -1 -34 -1.5t-34 -1.5q-9 0 -17.5 -0.5t-16.5 -0.5q-8 -1 -16.5 -1.5t-17.5 -0.5q-8 -1 -16 -1.5t-16 -0.5q-9 -1 -17 -1.5t-16 -1.5q0 1 0.5 1.5t1.5 0.5
q0 1 0.5 1.5l0.5 0.5l0.5 0.5t0.5 1.5l0.5 0.5t0.5 1.5q2 2 2.5 4t1.5 4q0 1 0.5 1.5l0.5 0.5q1 2 1.5 3.5t0.5 2.5q1 3 1.5 6.5t0.5 7.5v4t1 4v4.5v4.5v2v0z" />
    <glyph glyph-name="braceleft" unicode="{" horiz-adv-x="331" 
d="M139 315q32 10 52.5 23t30.5 29q6 10 12 24t12 32q3 9 6 19t6 21l44 167q8 29 22.5 50.5t34.5 34.5t41 20.5t42 10.5h4t4 1h3h4h4t4 1h3h4h4.5h4.5q2 -1 4.5 -1h4.5h4h5q2 -1 4 -1h4h-0.5h-0.5h-0.5h-0.5q0 -1 -0.5 -1h-0.5v0v0h-1v0q-22 -6 -39.5 -14t-31.5 -17
t-26 -26.5t-21 -43.5l-50 -187q0 -2 -0.5 -3t-0.5 -2t-0.5 -1.5t-0.5 -1.5v-1.5v-1.5q-1 -1 -1 -1.5v-0.5q-5 -19 -12.5 -36.5t-16.5 -34.5q-9 -16 -30.5 -31t-54.5 -29q18 -6 30.5 -15.5t18.5 -23.5q5 -13 5 -33t-7 -46l-46 -171q-9 -32 -11 -55t4 -36q5 -13 21 -23.5
t44 -19.5q-4 -1 -8 -1.5t-9 -0.5h-4.5t-4.5 -1h-4.5h-5.5h-5.5h-4.5q-3 1 -5.5 1h-5.5q-5 1 -10 1.5t-10 2.5q-17 4 -31.5 12t-25.5 22q-12 13 -13 34.5t6 49.5q1 2 1.5 3.5t0.5 2.5t0.5 1.5t0.5 1.5t0.5 1.5t0.5 1.5l44 167q7 25 8.5 46.5t-1.5 37.5q-4 17 -16.5 27
t-35.5 13v2v0z" />
    <glyph glyph-name="bar" unicode="|" horiz-adv-x="331" 
d="M126 0l198 740h63l-198 -740h-63v0v0z" />
    <glyph glyph-name="braceright" unicode="}" horiz-adv-x="331" 
d="M289 315q-25 6 -38 16t-15 23t-0.5 28.5t5.5 34.5q0 5 0.5 9.5t1.5 8.5q1 2 1.5 4.5t1.5 5.5q0 2 0.5 4.5t1.5 5.5l42 159q9 31 9 53t-8 33t-18.5 20t-23.5 16q-1 0 -2.5 0.5t-2.5 1.5q-1 0 -2 0.5l-3 1.5q-2 2 -4 3.5t-4 2.5q53 0 85.5 -9.5t43.5 -28.5q12 -19 14.5 -43
t-5.5 -53l-48 -179q-1 -5 -2 -8.5t-2 -7.5q-1 -2 -1 -3.5t-1 -3.5q-1 -3 -1.5 -6t-1.5 -5v-3.5v-2.5q-1 -2 -1 -3v-3q-1 -11 1 -21.5t6 -20.5q5 -10 15.5 -18t26.5 -14q-27 -9 -44.5 -20.5t-27.5 -25.5q-10 -13 -16.5 -27.5t-10.5 -28.5l-48 -180q-10 -35 -24.5 -61.5
t-34.5 -44.5q-19 -18 -49 -27t-69 -9h-7.5h-6.5h-3h-3q-2 1 -3.5 1h-3.5q28 6 48.5 18t34.5 29q13 18 23.5 41t18.5 51l40 152q8 31 19.5 54t24.5 37t30.5 24.5t40.5 16.5v2v0z" />
    <glyph glyph-name="asciitilde" unicode="~" horiz-adv-x="606" 
d="M101 205q4 3 8.5 8.5t10.5 12.5q6 8 13.5 15.5l15.5 15.5q12 12 26.5 23t30.5 21q17 10 34 15t35 5q16 0 31 -3t28 -8q7 -3 13.5 -6t12.5 -5q7 -3 13.5 -6t12.5 -6q11 -7 23 -13t24 -11q12 -6 24 -8.5t25 -2.5q14 0 28.5 4.5t30.5 13.5q15 9 32.5 25.5t36.5 41.5l26 -46
q-17 -24 -37 -43.5t-42 -34.5q-23 -16 -44.5 -24t-41.5 -10h-1.5h-1.5h-1.5h-1.5q-16 0 -30 2.5t-27 7.5q-12 5 -23 10.5t-21 12.5h-2t-2 1q-1 0 -1.5 0.5l-1.5 1.5q-6 4 -13.5 7.5t-14.5 7.5q-3 2 -6.5 3.5t-7.5 3.5q-11 5 -24 8.5t-27 4.5q-16 0 -30.5 -3.5t-25.5 -11.5
q-12 -7 -22 -15.5t-18 -17.5l-8 -8t-7 -8q-4 -4 -7 -7.5t-5 -6.5q-1 -1 -2 -1.5l-1 -0.5l-1.5 -1.5t-0.5 -1.5q-1 -1 -2 -1.5t-2 -1.5q-1 0 -1 -0.5t-1 -0.5l-29 42v0v0z" />
    <glyph glyph-name="exclamdown" unicode="&#xa1;" horiz-adv-x="331" 
d="M78 -118l158 441h23l-74 -425q0 -1 -0.5 -1.5t-0.5 -1.5q0 -2 -0.5 -3.5t-1.5 -3.5v-5t-1 -6q-1 -2 -1.5 -4.5t-1.5 -5.5q0 -2 -0.5 -3.5t-0.5 -2.5q0 -2 -0.5 -3.5t-0.5 -2.5q-3 -11 -8 -21.5t-12 -19.5t-18.5 -14t-27.5 -5q-18 0 -27.5 6.5t-10.5 19.5q-2 13 0 28.5
t6 32.5v0v0zM220 441q4 14 11.5 26t18.5 19q11 8 22.5 12t22.5 4v0h1v0v0h0.5h1.5q11 0 21 -3.5t17 -11.5q8 -7 11 -17t1 -23q-1 -1 -1 -1.5v-0.5v-0.5v-0.5l-1 -1v0v-1.5v-0.5v-0.5v-0.5l-1 -1v0q-4 -16 -12 -28t-19 -20q-12 -8 -24 -12t-24 -4q-12 -1 -22 3t-18 12
t-9.5 20.5t2.5 28.5l1 2v0z" />
    <glyph glyph-name="cent" unicode="&#xa2;" horiz-adv-x="559" 
d="M134 268q2 5 4 12t6 14q3 7 6.5 14t8.5 14q19 31 48 59.5t69 53.5q39 26 84 39t94 13h7.5h7.5h4h4q1 -1 3 -1h4l62 112q0 -2 1 -2.5t2 -1.5q0 -1 1 -1.5l1 -0.5q2 -1 4 -1.5t4 -1.5q1 -1 2.5 -1.5t2.5 -0.5q2 -1 4 -1h4h4t4 1q2 0 4.5 0.5t6.5 1.5l-61 -109
q0 -1 0.5 -1.5t0.5 -1.5l0.5 -0.5t1.5 -0.5h1.5h1.5h0.5h1.5q5 -1 9.5 -2.5t9.5 -3.5q5 -1 9.5 -2.5t9.5 -3.5q9 -3 17 -7.5t15 -9.5l-44 -77h-16q-3 11 -6.5 21.5t-8.5 18.5t-11 13.5t-13 6.5h-1.5t-0.5 1h-1.5h-0.5h-2h-2l-221 -384q5 -4 9.5 -6.5t9.5 -4.5l6 -2l6 -2
q2 0 5 -0.5t6 -0.5q2 0 3 -0.5t3 -0.5q1 -1 2.5 -1h2.5h6h6q22 0 44 4.5t44 14.5q22 9 40 20t31 24l-12 -45q-9 -12 -23 -21t-32 -15q-19 -7 -37.5 -11t-38.5 -7q-7 -1 -14 -1.5t-13 -1.5h-6t-6 -1h-6h-6q-10 0 -19 0.5t-17 2.5q-7 1 -12.5 3.5t-9.5 4.5l-73 -126
q-5 3 -10.5 5t-11.5 2q-6 1 -12 1h-12l82 126q-31 13 -50.5 31t-29.5 40q-10 23 -14 46t-3 48q0 6 0.5 12t1.5 12q0 5 1.5 11t2.5 12q2 12 4.5 23.5t5.5 22.5v2v0zM247 71l212 378q-45 -2 -81.5 -14t-64.5 -36t-48.5 -55.5t-34.5 -69.5q0 -1 -0.5 -2l-0.5 -1q0 -1 -0.5 -1
t-0.5 -1l-0.5 -0.5t-0.5 -1.5v-2t-1 -1q0 -1 -0.5 -2t-0.5 -2q0 -2 -0.5 -4t-1.5 -4v-1.5v-1.5q-1 -1 -1 -1.5v-1.5q-9 -33 -11.5 -60.5t1.5 -50.5q4 -22 12.5 -38.5t21.5 -27.5l1 2v0z" />
    <glyph glyph-name="sterling" unicode="&#xa3;" horiz-adv-x="559" 
d="M39 0l19 71q2 -2 4 -2.5t4 -0.5h2h2h6h6q41 0 71 11.5t48 33.5q18 23 31.5 48.5t21.5 55.5q1 2 1 4t1 4q0 3 1 6t2 7q1 5 2 10.5t2 10.5q1 3 1.5 5t0.5 5q0 1 0.5 2.5t0.5 2.5q1 3 1.5 6.5t1.5 7.5q1 5 2 10.5t2 10.5l2 10l2 10l-104 -6l15 55q2 -2 3.5 -2.5t3.5 -1.5
q3 -1 6.5 -1.5t7.5 -1.5q6 -1 12 -1.5t12 -0.5q5 -1 10.5 -1h11.5h12h12q1 5 1.5 9.5t1.5 9.5q0 4 0.5 9t1.5 9q1 5 2 9l2 8q1 5 2 9l2 8q17 60 44 105t66 76q20 15 39.5 27t39.5 19q19 8 39 12t39 4h2.5h2.5h1h1q2 -1 4 -1h4h4h5q2 -1 4 -1h4q14 -2 27 -6.5t25 -10.5
q12 -7 23.5 -15.5t21.5 -19.5l-62 -53q-4 9 -7.5 17t-8.5 14q-1 2 -2.5 4t-3.5 3q-3 4 -5.5 7t-6.5 5q-5 3 -10.5 5.5t-10.5 3.5q-3 0 -6 0.5t-5 0.5q-3 1 -6 1h-6q-33 0 -58.5 -11t-42.5 -32q-18 -21 -30.5 -44t-20.5 -49l-2 -6l-2 -6l-2 -6l-2 -6l-4 -18t-4 -17
t-3.5 -15.5t-1.5 -14.5q-2 -7 -3 -13.5t-2 -11.5q-1 -6 -2 -10.5t-2 -7.5q5 -1 10.5 -1.5t11.5 -0.5q5 -1 10.5 -1h11.5h9.5h8.5h4.5t4.5 1h4.5h4.5l20 2t21 2q10 2 19.5 3.5t19.5 2.5l-15 -53l-155 8q-1 -8 -1.5 -14t-2.5 -12q-1 -6 -1.5 -12t-2.5 -12q-7 -29 -20.5 -56.5
t-30.5 -53.5q-18 -25 -35 -45.5t-34 -35.5q-4 -3 -7.5 -6t-7.5 -6q-2 -1 -3.5 -2.5t-3.5 -2.5t-3.5 -2t-3.5 -2l334 10l-21 -79h-473v0v0z" />
    <glyph glyph-name="currency" unicode="&#xa4;" horiz-adv-x="559" 
d="M131 197q-8 19 -13 39.5t-6 39.5q-1 20 1 38.5t7 36.5q5 20 13 40t21 39t27.5 37t31.5 35l-40 57l68 47l40 -55q18 13 37.5 24t41.5 18q21 8 42 11.5t41 3.5h3.5h2.5h4h4q4 0 8.5 -0.5t8.5 -1.5q13 -2 26 -6t25 -9q16 -7 30 -17.5t25 -24.5l70 57l34 -47l-69 -55
q11 -17 17 -34t7 -35q2 -19 0.5 -37.5t-6.5 -38.5q0 -1 -0.5 -1.5l-0.5 -0.5v-1.5v-1.5q-1 -1 -1 -2v-2q-7 -22 -17.5 -43t-23.5 -41t-27.5 -38t-30.5 -33l36 -45l-53 -48l-42 48q-22 -14 -43 -24.5t-41 -17.5q-22 -7 -41.5 -10t-39.5 -3q-8 0 -16 0.5t-15 1.5t-14.5 2.5
t-15.5 3.5q-11 3 -21.5 7.5t-21.5 10.5q-10 5 -20 12t-19 15l-59 -46l-44 40l69 55v0v0zM184 339q-7 -37 0 -67t26 -54q20 -24 48 -35.5t64 -11.5h2h2h2.5h2.5q0 -1 1 -1h2h2h2q43 0 78 12.5t62 37.5q26 26 46 56.5t33 67.5v1.5t1 1.5l0.5 1t1.5 2v0.5v1.5v0.5t1 1.5v0.5
v0.5q1 3 1.5 6t1.5 6q0 3 0.5 6.5t1.5 6.5v13t1 14q-1 25 -10 48t-26 44q-16 21 -42 31.5t-61 10.5q-6 0 -12 -0.5t-12 -1.5q-3 -1 -6 -1.5t-6 -0.5q-3 -1 -6 -1.5t-6 -1.5q-29 -9 -58.5 -25.5t-58.5 -41.5t-48 -54.5t-28 -64.5v-0.5v-0.5q-1 -1 -1 -1.5v-0.5v-1.5v-0.5
q-1 -1 -1 -2v-1v-0.5v-0.5q-1 -1 -1 -1.5v-0.5v2v0z" />
    <glyph glyph-name="yen" unicode="&#xa5;" horiz-adv-x="559" 
d="M316 299l-32 87h-126l13 47h102l-78 268q5 -3 11 -4.5t13 -2.5t14.5 -1h14.5h4.5h5.5h2h2q2 0 4 0.5t4 0.5h10.5t10.5 1q3 0 5.5 0.5t5.5 1.5q3 0 5.5 0.5t5.5 1.5l72 -345q9 7 21 19.5t27 30.5t31 37.5t33 41.5l8 10l8 10q3 5 7 10.5t8 10.5q21 29 40.5 55.5t37.5 51.5
q17 25 29 42t17 26q3 -1 5.5 -1.5t4.5 -1.5t4.5 -1.5t5.5 -0.5q2 0 4.5 -0.5t5.5 -0.5h4.5h4.5h10t10 1q2 0 4.5 0.5t5.5 1.5q2 1 4.5 1.5t4.5 1.5l-220 -266h102l-13 -47h-134l-60 -79l-9 -31h173l-12 -48h-173l-61 -228h-4.5t-4.5 1q-3 0 -5.5 0.5t-4.5 0.5q-4 1 -9.5 1.5
t-10.5 0.5h-4h-4q-4 -1 -7.5 -1t-8.5 -1q-6 -1 -12 -1.5t-12 -0.5l61 228h-181l12 48h181l7 23v0v0z" />
    <glyph glyph-name="brokenbar" unicode="&#xa6;" 
 />
    <glyph glyph-name="section" unicode="&#xa7;" horiz-adv-x="504" 
d="M246 449q-2 6 -4 12.5t-3 13.5q-1 6 -1.5 12.5t-0.5 13.5q0 13 1.5 25.5t4.5 24.5q9 34 29 62t51 50q32 22 67 33t75 11q20 0 36.5 -3t29.5 -9q12 -6 22 -12.5t17 -14.5q2 -2 3.5 -4t3.5 -4t3.5 -4t2.5 -4q-8 -9 -15 -18t-12 -18l-12 -18t-11 -17l-15 2q1 20 -4.5 36
t-16.5 26q-12 11 -25.5 16t-29.5 6h-1.5h-0.5h-1.5h-0.5q-13 0 -26 -3t-26 -8t-24.5 -12t-20.5 -16q-8 -8 -14 -15.5t-10 -15.5q-5 -7 -8 -14t-5 -13q-4 -19 -1.5 -35t13.5 -30q11 -13 24.5 -24.5t29.5 -19.5q6 -4 12 -7l12 -6q3 -1 5.5 -2.5t5.5 -2.5t5.5 -2t5.5 -2
q32 -13 54 -27t32 -31q11 -16 15 -32.5t2 -33.5v-2v-2q0 -2 -0.5 -3t-0.5 -2q-1 -2 -1 -4v-4q-4 -14 -10.5 -27.5t-15.5 -27.5q-4 -7 -8.5 -13t-8.5 -12q-5 -6 -9 -11.5t-9 -10.5q-5 -7 -10 -13t-10 -11l-9.5 -9.5l-7.5 -7.5q8 -6 13 -14t7 -18q1 -5 1.5 -10t0.5 -10
q0 -6 -0.5 -11t-0.5 -10q-1 -2 -1 -4v-4q0 -1 -0.5 -2l-0.5 -1q-1 -1 -1 -2v-2q-2 -7 -5 -14.5t-6 -14.5q-1 -3 -3 -6.5t-3 -6.5q-2 -3 -3.5 -5.5t-3.5 -5.5q-21 -31 -47.5 -56t-58.5 -42t-65 -26t-67 -9h-6h-6q-3 1 -6 1h-6q-6 1 -12 1.5t-11 1.5q-12 3 -23.5 6t-22.5 8
q-10 4 -20.5 9.5t-20.5 12.5q1 1 1.5 2.5t1.5 3.5l0.5 1l0.5 1q1 3 2.5 5t2.5 4l4 8l4 8t3.5 8.5t3.5 9.5q2 4 3 8l2 8q1 2 1.5 4.5t0.5 4.5q0 1 0.5 2l0.5 1q0 2 0.5 3.5t0.5 3.5q0 1 0.5 3t0.5 4l16 2q0 -5 1.5 -8.5t2.5 -6.5q2 -1 4 -4.5t4 -7.5q7 -13 17 -25t23 -22
q13 -11 28.5 -16t34.5 -5q3 0 6.5 0.5t7.5 0.5q2 0 3.5 0.5t3.5 0.5q2 1 4.5 1.5t5.5 0.5q3 1 6 1.5t6 1.5q13 4 25.5 10.5t24.5 14.5q6 4 12.5 8t12.5 9q19 15 31 31.5t17 35.5q5 20 0.5 36.5t-19.5 28.5t-33.5 23.5t-39.5 21.5l-4 2t-3 2q-2 0 -3.5 1t-3.5 2l-4 2t-3 2
q-2 0 -3.5 1t-3.5 2q-26 13 -48 28t-42 32q-19 17 -24.5 42t3.5 58q5 20 13.5 37t21.5 31t25.5 25.5t25.5 20.5q2 2 4.5 3.5t4.5 2.5q2 2 4.5 3.5t5.5 2.5v2v0zM402 181q9 4 16.5 10t14.5 15t12 18.5t8 19.5q1 3 1.5 6t0.5 6q0 2 0.5 3.5t0.5 2.5v4.5v5.5q-1 2 -1 4.5v5.5
q-1 5 -3 10t-5 11q-3 5 -6.5 10t-8.5 10q-9 11 -22.5 20t-30.5 17l-124 65q-1 -2 -1.5 -2.5l-0.5 -0.5l-1.5 -1.5t-1.5 -0.5l-1.5 -1.5l-0.5 -0.5l-1.5 -1.5t-1.5 -0.5q-7 -5 -14 -11.5t-14 -14.5q-6 -7 -10.5 -15.5t-7.5 -17.5q0 -1 -0.5 -2t-0.5 -2q-1 -4 -1.5 -7.5
t0.5 -6.5q0 -4 1 -8.5t3 -9.5q2 -6 5 -12t9 -12t13.5 -12t17.5 -11q5 -3 10.5 -6t10.5 -6t10.5 -6t10.5 -6t10.5 -6t10.5 -6t10.5 -6t11.5 -5q5 -3 9.5 -6t9.5 -6q4 -3 9 -6t9 -6l18 -12t16 -12v2v0z" />
    <glyph glyph-name="dieresis" unicode="&#xa8;" horiz-adv-x="331" 
d="M176 598q0 -1 0 -0.5v1.5q1 1 1 1.5v1.5q2 11 8 20t15 15q10 6 19 9t18 4v0h1v0v0h0.5h1.5q10 0 18 -2.5t15 -8.5q6 -6 8 -15t-1 -20q-4 -13 -11 -23.5t-16 -17.5q-10 -7 -19.5 -10t-18.5 -3q-9 -1 -17 2t-14 9t-8 14.5t-1 20.5l1 2v0zM375 606q3 9 9 17t15 14
q10 6 18.5 9.5t16.5 4.5h1.5h1.5h1.5h1.5q9 0 17 -3t14 -9t7.5 -14.5t-1.5 -20.5q-4 -13 -11 -23t-16 -17q-10 -7 -19.5 -10t-18.5 -3q-10 -1 -18 2t-14 10q-7 7 -8 17.5t3 23.5v2v0z" />
    <glyph glyph-name="copyright" unicode="&#xa9;" horiz-adv-x="748" 
d="M108 346q0 -1 0 -0.5t1 1.5v1t1 2v0.5v1.5v0.5t1 1.5v0.5v0.5q4 14 11 31.5t17 37.5q11 20 24.5 41t30.5 43q28 38 65.5 72t84.5 65t100.5 46.5t114.5 15.5q87 0 145.5 -23.5t88.5 -70.5t42.5 -98.5t7.5 -107.5q-1 -4 -1.5 -7.5t-0.5 -6.5q-1 -4 -1.5 -7.5t-1.5 -6.5
q0 -3 -0.5 -6.5t-1.5 -6.5q-1 -4 -1.5 -7.5t-0.5 -6.5q0 -1 -0.5 -2.5t-0.5 -3.5q0 -1 -0.5 -2.5t-0.5 -3.5q-1 -3 -1.5 -6t-1.5 -6q-19 -73 -63.5 -134t-113.5 -111t-138.5 -74.5t-140.5 -24.5q-74 0 -130.5 26.5t-95.5 81.5t-48.5 118t9.5 134v2v0zM173 354
q0 -3 -0.5 -4.5t-1.5 -3.5v-1.5v-1.5q-1 -1 -1 -1.5v-1.5q-3 -10 -5 -21.5t-3 -22.5q-1 -12 -1 -23.5t1 -22.5q3 -40 18.5 -77t42.5 -70q28 -33 67 -49.5t90 -16.5h3.5h2.5h3.5h2.5q39 0 78 10t78 31q19 10 39 23t39 29q57 47 95 99t54 109q1 1 1 1.5v1.5v0.5t1 1.5v0.5v0.5
q2 9 4 18.5t3 19.5q2 10 2 20v20q-2 43 -18 82.5t-45 75.5t-74 54t-105 18q-55 0 -105 -18.5t-96 -54.5q-46 -37 -81 -76.5t-59 -83.5q-5 -9 -9 -17.5t-8 -16.5q-4 -9 -7.5 -17t-5.5 -16v2v0zM257 346q12 43 37 79t63 65t84 43.5t99 15.5q15 0 30.5 -1.5t31.5 -4.5t33 -7
t34 -10q-6 -9 -10 -17t-6 -14q-2 -7 -3.5 -13t-3.5 -12l-16 2q-9 8 -19.5 15.5t-23.5 12.5t-27 8t-29 3q-30 0 -60 -10.5t-60 -30.5q-31 -20 -51.5 -51.5t-31.5 -74.5q-11 -46 -7 -78t23 -49q18 -18 41.5 -27t51.5 -9v0h1v0v0h0.5h1.5q10 0 19.5 0.5t19.5 2.5q9 1 18.5 3
t19.5 5q19 6 34.5 12.5t26.5 13.5l-18 -37q-16 -11 -32.5 -18.5t-35.5 -12.5q-19 -4 -37 -6.5t-36 -2.5h-4h-4h-4h-4q-37 2 -68 15t-57 36q-25 23 -31 58.5t7 83.5v0l1 1v0.5v0.5v1.5t1 1.5v0.5v1.5v0.5t1 1.5v0.5v0.5v2v0z" />
    <glyph glyph-name="ordfeminine" unicode="&#xaa;" horiz-adv-x="323" 
d="M108 315l10 39h283l-10 -39h-283v0v0zM136 480q5 19 17 34.5t31 25.5t39 17.5t40 11.5q6 1 11.5 2t11.5 2t11.5 2t11.5 2t11 1.5t10 1.5q4 0 8.5 0.5t8.5 1.5q5 0 9 1l8 2q3 1 4.5 2t2.5 2q0 1 0.5 2l1.5 3q1 1 1.5 2.5t0.5 2.5q0 2 0.5 3t1.5 2l1.5 3t0.5 2q4 15 2 26.5
t-8 20.5q-7 9 -15.5 15t-19.5 9q-1 0 -2.5 0.5t-2.5 0.5q-1 1 -2 1h-3h-2.5t-3.5 1h-2.5h-2.5q-11 0 -21.5 -2t-19.5 -5q-10 -4 -20 -11t-21 -18l-2.5 -2.5t-2.5 -3.5l-1.5 -1.5l-0.5 -0.5l-1.5 -1.5l-1.5 -1.5l-16 2l11 39q10 5 23.5 10.5t30.5 9.5q11 3 22 5l22 4
q5 0 11 1t11 1h1.5h1.5h0.5h1.5h3.5h2.5q21 0 39 -4.5t33 -13.5q14 -9 20 -24t1 -38l-42 -156q-3 -13 -3 -21t4 -12q5 -4 11.5 -6t15.5 -2l-4 -14q-7 -2 -13.5 -3t-11.5 -2t-10 -1h-10q-11 0 -20 1.5t-14 5.5q-7 4 -10 11.5t-4 17.5q-7 -12 -18 -20.5t-28 -14.5
q-16 -6 -33 -9t-34 -3v0v0h-1v0h-1.5h-0.5q-18 0 -33.5 4t-28.5 11q-13 8 -18 23.5t-1 39.5v2v0zM199 480q2 -13 6 -22t11 -15q7 -7 16 -10.5t20 -3.5q5 0 10.5 1t12.5 2q6 2 12 4.5t13 6.5q5 2 9.5 5t9.5 6t10 7.5t10 8.5l25 97q-6 -3 -12 -4.5t-12 -3.5q-3 -1 -6 -1.5
t-6 -0.5q-3 -1 -6.5 -1.5t-6.5 -1.5q-19 -5 -37.5 -11t-35.5 -13t-27.5 -17t-14.5 -23q0 -1 -0.5 -2.5t-1.5 -3.5v-2.5t1 -3.5v2v0z" />
    <glyph glyph-name="guillemotleft" unicode="&#xab;" horiz-adv-x="504" 
d="M150 236l174 181q1 -2 1.5 -2.5l1.5 -1.5q0 -1 0.5 -1.5t1.5 -0.5t1.5 -0.5t1.5 -0.5q0 -1 0.5 -1.5t1.5 -0.5q3 -1 6 -2.5t6 -3.5q4 -1 9 -1.5t12 -0.5l-162 -164l68 -157q-7 -5 -14 -8.5l-13 -6.5q-7 -4 -12 -8.5t-9 -10.5l-75 191v0v0zM299 236l174 181l3.5 -3.5
l2.5 -2.5t3 -2l4 -2l5 -2.5t6 -2.5q4 -1 8.5 -1.5t10.5 -0.5l-162 -164l69 -157q-7 -5 -14 -8.5l-13 -6.5q-7 -4 -12 -8.5t-10 -10.5l-75 191v0v0z" />
    <glyph glyph-name="logicalnot" unicode="&#xac;" 
 />
    <glyph glyph-name="sfthyphen" unicode="&#xad;" horiz-adv-x="500" 
 />
    <glyph glyph-name="registered" unicode="&#xae;" horiz-adv-x="748" 
d="M116 346q18 64 49 118t76 96t90.5 73t91.5 50q5 2 9.5 3.5t9.5 3.5q14 5 28 9.5t27 7.5q18 4 34 6t30 2q73 -3 131 -28.5t101 -72.5t52.5 -116t-15.5 -161q-4 -13 -9 -26.5t-10 -27.5q-6 -14 -14 -28.5t-16 -28.5q-27 -45 -65.5 -85.5t-89.5 -78.5q-50 -37 -111.5 -56
t-133.5 -22h-2.5h-3.5h-2h-1h-2h-2q-67 0 -121 24.5t-94 75.5t-50 112.5t9 133.5v0.5t1 1.5v0.5v0.5v0.5t1 1.5v0.5v1.5v0.5t1 1.5v0.5v0.5v2t1 2v2v0zM181 354q-16 -64 -11.5 -119t32.5 -103t74.5 -71.5t111.5 -23.5q57 2 111 21.5t103 55.5t85.5 76t60.5 83q5 8 8.5 16.5
t7.5 16.5t7 16.5t5 16.5v2t1 2v1v2q1 2 1.5 3.5t0.5 2.5q3 12 4.5 26.5t2.5 32.5q0 18 -1.5 36t-6.5 37q-7 32 -23.5 60.5t-41.5 54.5q-24 26 -62.5 39.5t-90.5 13.5h-5.5h-4.5h-2h-2q-2 -1 -3 -1h-2q-35 -2 -71.5 -12.5t-72.5 -29.5q-18 -9 -36 -20.5t-36 -24.5
q-54 -40 -89 -89.5t-51 -109.5q-1 -1 -1 -1.5v-1.5q-1 -1 -1 -2v-1q-1 -1 -1 -2v-2v-0.5v-0.5q-1 -1 -1 -1.5v-0.5v2v0zM284 150l105 393h150q29 -2 48.5 -9t31.5 -21q12 -13 16.5 -29t-0.5 -33q0 -1 -0.5 -1.5t-0.5 -1.5t-0.5 -1.5t-0.5 -1.5q-1 -1 -1.5 -2.5t-1.5 -3.5
q-7 -15 -19.5 -29t-31.5 -28q-19 -13 -44 -23t-57 -15l109 -179l-4 -15q-3 -1 -6 -0.5t-7 1.5q-2 0 -3.5 0.5t-3.5 0.5q-2 1 -3.5 1h-3.5h-4.5h-4.5q-2 -1 -4.5 -1h-4.5q-4 -1 -9 -1.5t-10 -2.5l-106 191h-24l-50 -189q-1 -1 -3 -1t-3 1q-2 0 -3.5 0.5t-3.5 0.5q-3 1 -6 1.5
t-7 0.5h-4h-4q-2 -1 -4 -1h-4t-3.5 -0.5t-3.5 -1.5q-2 0 -3.5 -0.5t-3.5 -1.5l1 2v0zM400 378h71q19 -2 35 3.5t29 15.5q14 11 23 22t13 24l0.5 0.5t0.5 1.5l0.5 0.5t0.5 1.5v2t1 2q3 11 2 21.5t-6 19.5t-15 13.5t-25 4.5l-94 2l-36 -134v0v0z" />
    <glyph glyph-name="overstore" unicode="&#xaf;" 
 />
    <glyph glyph-name="glyph113" unicode="&#xb0;" 
 />
    <glyph glyph-name="plusminus" unicode="&#xb1;" horiz-adv-x="606" 
 />
    <glyph glyph-name="twosuperior" unicode="&#xb2;" 
 />
    <glyph glyph-name="threesuperior" unicode="&#xb3;" 
 />
    <glyph glyph-name="acute" unicode="&#xb4;" horiz-adv-x="331" 
d="M245 535l172 142q5 3 9.5 6t9.5 6t10.5 5t10.5 3q2 1 4 1.5t4 0.5h2t3 1h2h2q8 0 14.5 -2t10.5 -6q5 -4 7 -9t0 -11q-1 -4 -4.5 -9.5t-8.5 -11.5q-3 -3 -6.5 -6t-7.5 -5q-5 -3 -9.5 -6t-10.5 -6l-174 -93h-40v0v0z" />
    <glyph glyph-name="mu" unicode="&#xb5;" horiz-adv-x="559" 
 />
    <glyph glyph-name="paragraph" unicode="&#xb6;" horiz-adv-x="803" 
d="M434 331q-1 -2 -2.5 -2.5t-2.5 -0.5q-1 -1 -2.5 -1h-2.5h-4h-4h-5h-4h-4.5h-4.5q-38 0 -69 10.5t-54 32.5q-24 21 -29.5 53t5.5 74v1.5t1 1.5v2t1 2v1t1 2v1.5v1.5q13 47 34 81.5t50 56.5q30 21 68.5 32t85.5 11l260 2l-211 -787q-2 1 -5.5 2t-7.5 2t-8 1h-9h-2h-1h-2h-2
h-2.5h-3.5h-2.5h-2.5q-3 -1 -5.5 -1.5t-4.5 -0.5q-3 0 -6 -1t-7 -2l203 755h-87l-203 -755q-4 1 -7.5 2t-7.5 2q-1 0 -3 0.5t-3 0.5h-3.5h-3.5h-8t-9 -1h-2.5t-3.5 -1q-3 0 -5.5 -1t-6.5 -2l114 425v0v0zM442 362l81 299q-22 -2 -39.5 -8.5t-33.5 -19.5q-15 -13 -30 -42
t-29 -73q-9 -33 -12 -61t0 -51q2 -23 18 -34.5t45 -11.5v2v0z" />
    <glyph glyph-name="middot" unicode="&#xb7;" 
 />
    <glyph glyph-name="cedilla" unicode="&#xb8;" horiz-adv-x="331" 
d="M165 0h40l-49 -63q4 1 7.5 1.5t6.5 0.5q2 0 3.5 0.5t3.5 0.5h3h3q20 0 35 -5.5t22 -16.5q8 -11 10 -24t-2 -27v0v-1v0v0v0v-1q-1 0 -1 -0.5v-0.5q-4 -15 -15.5 -29t-29.5 -27t-41.5 -19.5t-53.5 -6.5h-10t-10 1q-5 0 -10 0.5t-10 1.5t-10.5 2t-10.5 2q-6 2 -11.5 3
t-10.5 3l18 40q2 -1 3 -1t3 -1l6 -2l6 -2q2 -1 4.5 -1.5t5.5 -1.5q2 0 4.5 -0.5t4.5 -1.5q3 0 6.5 -0.5t7.5 -1.5h3.5t3.5 -1h3h4q8 0 15 1.5t13 3.5q2 1 4.5 2t4.5 2q9 4 15 13t10 21v0.5t1 0.5v1v0v1.5v1.5v1.5v0.5v1.5t1 1.5q1 4 -1.5 8t-7.5 7q-5 4 -12 6t-15 2h-7.5
t-7.5 -1t-8 -2.5t-8 -3.5l-12 16l73 94v0v0z" />
    <glyph glyph-name="onesuperior" unicode="&#xb9;" 
 />
    <glyph glyph-name="ordmasculine" unicode="&#xba;" horiz-adv-x="339" 
d="M116 346h291l-10 -39h-291l10 39v0v0zM157 559q17 37 39.5 64t52.5 43q15 8 30 14.5t30 10.5q14 4 29 6t30 2q32 0 56 -10t40 -30q16 -19 19.5 -47t-5.5 -63q-9 -32 -27 -59t-46 -48q-27 -21 -58.5 -31.5t-66.5 -10.5q-47 0 -76.5 12t-40.5 37q-11 24 -12.5 51t6.5 57v2
v0zM216 543q-4 -28 -3.5 -49.5t6.5 -38.5q6 -16 20.5 -24t38.5 -8q29 0 52.5 10t39.5 30t28 43.5t19 50.5q7 26 7 47.5t-7 37.5q-7 17 -21 25t-34 8q-27 0 -49.5 -9t-39.5 -27q-18 -18 -31 -38t-20 -41q-1 -3 -2 -5.5t-2 -4.5q0 -1 -0.5 -2t-0.5 -2q0 -2 -0.5 -3t-0.5 -2v2
v0z" />
    <glyph glyph-name="guillemotright" unicode="&#xbb;" horiz-adv-x="504" 
d="M266 228l-59 166q0 -1 0.5 -1h1.5h0.5t1.5 1h0.5h0.5l12 6l12 6q5 3 10 7t9 10l74 -195l-183 -181q-1 4 -4 8.5t-8 8.5q-3 2 -5.5 3.5t-4.5 3.5q-2 1 -4.5 3t-5.5 3l152 151v0v0zM415 228l-58 166q0 -1 0.5 -1h1.5h0.5t1.5 1h0.5h0.5q5 3 11 6l12 6q5 3 10 7t9 10
l74 -195l-183 -181q-1 4 -3.5 8.5t-7.5 8.5q-3 2 -5.5 3.5t-4.5 3.5q-2 1 -4.5 3t-5.5 3l151 151v0v0z" />
    <glyph glyph-name="onequarter" unicode="&#xbc;" 
 />
    <glyph glyph-name="onehalf" unicode="&#xbd;" horiz-adv-x="835" 
 />
    <glyph glyph-name="threequarters" unicode="&#xbe;" 
 />
    <glyph glyph-name="questiondown" unicode="&#xbf;" horiz-adv-x="386" 
d="M37 -94q0 3 0.5 5.5t1.5 4.5q1 3 1.5 5.5t1.5 4.5q5 16 10 29.5t12 24.5q3 4 5 7.5t5 6.5l10 12t10 11q2 2 3.5 4t3.5 4t3.5 4t3.5 3q2 2 4 3.5t3 3.5q2 1 4 3l3 3l113 97q3 1 6 3t7 5l6 6l6 6q6 6 11.5 12.5t9.5 13.5t7 13.5t4 12.5q4 13 2.5 23.5t-6.5 19.5
q-6 9 -14 13.5t-17 5.5h-2.5h-2.5q-3 -1 -5.5 -1.5t-4.5 -1.5t-3.5 -1.5t-3.5 -1.5t-3.5 -2t-3.5 -2l-13 10l24 31q4 -1 7.5 -0.5t7.5 1.5q5 1 8.5 1.5t7.5 0.5q23 0 40 -9t30 -27q14 -18 17 -39.5t-4 -47.5q-1 -4 -2.5 -8t-3.5 -7q0 -2 -0.5 -3l-1.5 -3t-2 -4.5t-2 -5.5
q-4 -8 -9.5 -16t-11.5 -16q-4 -6 -9.5 -12t-11.5 -12l-4 -4t-5 -4l-2 -2t-2 -1q-3 -3 -6.5 -6t-7.5 -6l-112 -93q-12 -11 -21 -20.5t-17 -19.5q-7 -10 -11 -19t-6 -17q-4 -17 -1 -31t14 -24q12 -10 26.5 -15t31.5 -6h2h2h2h2q11 1 22.5 4t23.5 8q11 5 22 12.5t21 17.5
l-5 -47q-10 -9 -23.5 -16.5t-27.5 -11.5q-15 -5 -30 -7.5t-30 -2.5h-4.5h-4.5h-2h-2q-2 1 -3 1h-2q-25 2 -45.5 10.5t-37.5 23.5q-16 15 -21 35.5t2 46.5v0v0zM266 433q5 16 13 28.5t19 21.5q6 5 11.5 8t10.5 6q5 2 10.5 3.5t11.5 2.5h1.5h1.5h1.5h1.5q12 0 21.5 -4.5
t16.5 -12.5q8 -9 10 -20.5t-3 -26.5q-4 -17 -12.5 -29t-19.5 -20q-11 -7 -22.5 -10.5t-22.5 -3.5h-1.5h-0.5v0v0h-1v0q-12 0 -22 3.5t-18 10.5q-8 6 -10 15t1 20v1.5v1.5q1 1 1 1.5v1.5l1 2v0z" />
    <glyph glyph-name="Agrave" unicode="&#xc0;" horiz-adv-x="669" 
d="M8 0l502 701h23l121 -701h-6.5h-7.5h-7.5h-8.5h-4.5t-4.5 1h-5.5h-4.5h-5.5t-4.5 1h-5.5h-4.5h-2h-1h-2h-2h-3.5h-3.5q-4 -1 -7.5 -1.5t-6.5 -0.5h-4h-3h-3.5h-3.5l-37 276h-244l-175 -276h-3h-3q-2 0 -3.5 0.5t-3.5 0.5h-3t-3 1h-3.5h-3.5h-4h-4h-2h-2q-1 -1 -2 -1h-2
h-1.5h-1.5q-1 -1 -1.5 -1h-1.5h-2.5h-3.5h-3h-3h-3.5h-3.5h-6h-6v0v0zM299 323h204l-37 244l-167 -244v0v0zM586 748l-131 102q-6 2 -9 6t-5 8q-1 5 -1 8.5t1 7.5q1 7 5.5 13t12.5 10q7 5 15 7.5t17 3.5v0h1v0v0h0.5h1.5h3.5t3.5 -1q2 0 3.5 -0.5t3.5 -1.5q1 -1 2.5 -1.5
t2.5 -1.5t2.5 -2t2.5 -2l115 -156h-47v0v0z" />
    <glyph glyph-name="Aacute" unicode="&#xc1;" horiz-adv-x="669" 
d="M8 0l502 701h23l121 -701h-6.5h-7.5h-7.5h-8.5h-4.5t-4.5 1h-5.5h-4.5h-5.5t-4.5 1h-5.5h-4.5h-2h-1h-2h-2h-3.5h-3.5q-4 -1 -7.5 -1.5t-6.5 -0.5h-4h-3h-3.5h-3.5l-37 276h-244l-175 -276h-3h-3q-2 0 -3.5 0.5t-3.5 0.5h-3t-3 1h-3.5h-3.5h-4h-4h-2h-2q-1 -1 -2 -1h-2
h-1.5h-1.5q-1 -1 -1.5 -1h-1.5h-2.5h-3.5h-3h-3h-3.5h-3.5h-6h-6v0v0zM299 323h204l-37 244l-167 -244v0v0zM403 740l172 142q5 3 9.5 6t9.5 6t10.5 5t9.5 3q2 1 4.5 1.5t4.5 0.5h2t3 1h2h2q8 0 14 -2t11 -6t6.5 -9t0.5 -11q-1 -4 -5 -9.5t-9 -11.5l-6 -6t-7 -5
q-5 -3 -9.5 -6t-10.5 -6l-175 -93h-39v0v0z" />
    <glyph glyph-name="Acircumflex" unicode="&#xc2;" horiz-adv-x="669" 
d="M8 0l502 701h23l121 -701h-6.5h-7.5h-7.5h-8.5h-4.5t-4.5 1h-5.5h-4.5h-5.5t-4.5 1h-5.5h-4.5h-2h-1h-2h-2h-3.5h-3.5q-4 -1 -7.5 -1.5t-6.5 -0.5h-4h-3h-3.5h-3.5l-37 276h-244l-175 -276h-3h-3q-2 0 -3.5 0.5t-3.5 0.5h-3t-3 1h-3.5h-3.5h-4h-4h-2h-2q-1 -1 -2 -1h-2
h-1.5h-1.5q-1 -1 -1.5 -1h-1.5h-2.5h-3.5h-3h-3h-3.5h-3.5h-6h-6v0v0zM299 323h204l-37 244l-167 -244v0v0zM371 740l182 181h47l86 -181h-39l-89 110l-147 -110h-40v0v0z" />
    <glyph glyph-name="Atilde" unicode="&#xc3;" horiz-adv-x="669" 
d="M8 0l502 701h23l121 -701h-6.5h-7.5h-7.5h-8.5h-4.5t-4.5 1h-5.5h-4.5h-5.5t-4.5 1h-5.5h-4.5h-2h-1h-2h-2h-3.5h-3.5q-4 -1 -7.5 -1.5t-6.5 -0.5h-4h-3h-3.5h-3.5l-37 276h-244l-175 -276h-3h-3q-2 0 -3.5 0.5t-3.5 0.5h-3t-3 1h-3.5h-3.5h-4h-4h-2h-2q-1 -1 -2 -1h-2
h-1.5h-1.5q-1 -1 -1.5 -1h-1.5h-2.5h-3.5h-3h-3h-3.5h-3.5h-6h-6v0v0zM299 323h204l-37 244l-167 -244v0v0zM359 756q6 15 15 28.5t20 24.5t22 19t22 14q5 3 9.5 5.5t9.5 3.5q2 1 4 1.5t4 1.5q2 0 4 0.5t4 1.5h1.5h1.5h0.5t1.5 1h0.5h1.5h1h2h1.5h1.5h3.5h3.5q1 -1 3 -1h3
q2 0 3.5 -0.5t3.5 -0.5q1 -1 3 -1.5t3 -0.5q6 -1 11.5 -3.5t10.5 -5.5q3 -1 5.5 -2.5t5.5 -2.5q2 -2 4.5 -3t5.5 -3q8 -4 15.5 -8.5t14.5 -8.5q4 -2 8 -3.5t8 -1.5q3 -1 7 -1.5t8 -0.5q8 0 16.5 3t17.5 9t18.5 16.5t19.5 26.5l29 -6q-2 -5 -5 -10.5t-7 -11.5q-2 -4 -5.5 -8
t-6.5 -8q-1 -2 -2.5 -4t-3.5 -4q-9 -11 -19.5 -21t-23.5 -19t-27 -13.5t-29 -4.5q-12 0 -23 1.5t-20 5.5q-7 3 -13.5 6t-12.5 7l-4 2l-4 2q-7 4 -14 7.5t-14 7.5q-3 2 -6 3.5t-6 2.5q-4 1 -7 1.5t-6 0.5q-9 0 -16 -2t-12 -5q-3 -1 -6 -3.5t-5 -4.5q-3 -2 -6 -5l-6 -6
q-1 -1 -2 -2.5t-1 -2.5q-1 -2 -2 -3l-2 -2t-2 -2.5t-2 -2.5l-3 -3t-2 -3l-32 2v0v0z" />
    <glyph glyph-name="Adieresis" unicode="&#xc4;" horiz-adv-x="669" 
d="M8 0l502 701h23l121 -701h-6.5h-7.5h-7.5h-8.5h-4.5t-4.5 1h-5.5h-4.5h-5.5t-4.5 1h-5.5h-4.5h-2h-1h-2h-2h-3.5h-3.5q-4 -1 -7.5 -1.5t-6.5 -0.5h-4h-3h-3.5h-3.5l-37 276h-244l-175 -276h-3h-3q-2 0 -3.5 0.5t-3.5 0.5h-3t-3 1h-3.5h-3.5h-4h-4h-2h-2q-1 -1 -2 -1h-2
h-1.5h-1.5q-1 -1 -1.5 -1h-1.5h-2.5h-3.5h-3h-3h-3.5h-3.5h-6h-6v0v0zM299 323h204l-37 244l-167 -244v0v0zM396 803q0 -1 0 -0.5v1.5v0.5t1 1.5v0.5v0.5q2 11 8 20t15 15q10 6 19 9t18 4v0h1v0v0h0.5h1.5q10 0 18 -2.5t15 -8.5q6 -6 8 -15t-1 -20q-4 -13 -11 -23.5
t-16 -17.5q-10 -7 -19.5 -10t-18.5 -3q-9 -1 -17 2t-14 9t-8 14.5t-1 20.5l1 2v0zM595 811q5 10 11.5 18t15.5 14q5 3 9 5.5t9 3.5q4 2 8.5 3t8.5 1v0h1v0v0h0.5h1.5q9 0 17 -3t14 -9t7.5 -14.5t-1.5 -20.5q-4 -13 -11 -23t-16 -17q-10 -7 -19.5 -10t-18.5 -3q-10 -1 -18 2
t-14 10q-7 7 -8 17.5t3 23.5v2v0z" />
    <glyph glyph-name="Aring" unicode="&#xc5;" horiz-adv-x="669" 
d="M8 0l502 701h23l121 -701h-6.5h-7.5h-7.5h-8.5h-4.5t-4.5 1h-5.5h-4.5h-5.5t-4.5 1h-5.5h-4.5h-2h-1h-2h-2h-3.5h-3.5q-4 -1 -7.5 -1.5t-6.5 -0.5h-4h-3h-3.5h-3.5l-37 276h-244l-175 -276h-3h-3q-2 0 -3.5 0.5t-3.5 0.5h-3t-3 1h-3.5h-3.5h-4h-4h-2h-2q-1 -1 -2 -1h-2
h-1.5h-1.5q-1 -1 -1.5 -1h-1.5h-2.5h-3.5h-3h-3h-3.5h-3.5h-6h-6v0v0zM299 323h204l-37 244l-167 -244v0v0zM453 843l2.5 5t2.5 7q1 3 2.5 6t3.5 6q0 1 0.5 2t1.5 2q9 15 21.5 28.5t29.5 26.5q17 12 36.5 18.5t40.5 6.5q20 -2 34 -8t22 -17q8 -10 13 -21.5t7 -23.5v-6v-5
q-1 -3 -1 -5.5v-4.5t-0.5 -3.5t-0.5 -3.5q0 -3 -0.5 -6t-1.5 -6q-1 -2 -1.5 -4t-1.5 -4t-1.5 -4t-0.5 -4q-7 -16 -19.5 -31t-29.5 -29q-17 -13 -35.5 -20t-39.5 -7t-37.5 7t-27.5 20q-11 14 -16.5 29t-4.5 31q-1 2 -1 4t1 4q0 1 0.5 2t0.5 2t0.5 2t0.5 2v2v0zM501 843
q-3 -16 -0.5 -26.5t9.5 -17.5t16 -10.5t19 -3.5v0h1v0v0h0.5h1.5q4 0 7 0.5t7 1.5q7 1 14 4.5t14 8.5q11 7 18 17.5t11 23.5q4 15 2.5 26.5t-8.5 18.5q-7 8 -16 12t-19 5h-1.5h-0.5v0v0h-1v0q-6 0 -11 -1.5t-10 -3.5q-6 -2 -11 -5t-11 -7q-11 -7 -18.5 -18.5t-12.5 -26.5v2
v0z" />
    <glyph glyph-name="AE" unicode="&#xc6;" horiz-adv-x="835" 
d="M0 0l642 693h338l-3.5 -7l-2.5 -5q-1 -3 -2.5 -5t-1.5 -4q-1 -1 -1.5 -2l-0.5 -1q-1 -1 -1 -2v-2t-0.5 -1.5t-0.5 -1.5t-0.5 -1.5t-0.5 -1.5t-0.5 -2.5t-0.5 -3.5q-1 -3 -1.5 -6t-0.5 -6q-1 -4 -1 -9.5v-11.5q-10 3 -23 5.5t-30 3.5q-11 1 -22.5 2t-23.5 2
q-6 0 -11.5 0.5t-11.5 0.5q-19 1 -36.5 1.5t-34.5 0.5h-30.5h-24.5l-67 -250h103q17 -2 33 -2t31 1q15 0 29 2t27 5q-3 -4 -4.5 -7t-3.5 -6q-1 -1 -1.5 -2.5t-1.5 -2.5l-1.5 -3t-0.5 -3v-1.5v-1.5t-0.5 -1.5l-0.5 -0.5q0 -1 -0.5 -1.5l-0.5 -0.5q-1 -4 -1.5 -7.5t-1.5 -7.5
v-4t1 -4v-5v-4l-101 10h-118l-78 -292q11 -2 22 -2h23h24t24 1q24 0 48 1t47 2q23 2 42 5t34 7l-3.5 -7t-3.5 -6q-1 -1 -1.5 -2.5t-1.5 -2.5l-1.5 -3t-0.5 -3q-1 -1 -1 -1.5v-1.5q-1 -1 -1 -2v-2q-1 -4 -2 -7.5t-1 -7.5q-1 -4 -0.5 -8t1.5 -7h-346l65 244h-229
q-3 -5 -6.5 -9t-7.5 -8t-7.5 -8t-6.5 -8t-6.5 -8t-6.5 -8t-6.5 -7.5t-6.5 -7.5t-6.5 -7.5t-6.5 -7.5t-6.5 -7.5t-6.5 -7.5t-6.5 -7.5t-6.5 -7.5t-6.5 -7.5t-6.5 -7.5q-13 -16 -25.5 -31.5t-24.5 -30.5t-22.5 -30t-20.5 -28q-6 0 -11.5 0.5t-10.5 1.5q-4 1 -9.5 1.5
t-10.5 0.5q-6 0 -12 -0.5t-13 -1.5q-6 -1 -12.5 -1.5t-14.5 -0.5v0v0zM534 291l87 323l-292 -323h205v0v0z" />
    <glyph glyph-name="Ccedilla" unicode="&#xc7;" horiz-adv-x="669" 
d="M129 339q23 81 60 142.5t89 102.5q53 41 106 68.5t106 40.5q16 3 31 6t29 4q15 2 29 3t27 1q26 0 49 -2t45 -7q10 -2 19.5 -4.5t18.5 -4.5q9 -3 17 -5.5t16 -4.5q7 -3 13.5 -6t11.5 -5q5 -3 9.5 -5t8.5 -4l-46 -84h-8q-6 12 -14.5 23t-21.5 20q-12 9 -26 16t-29 11
q-11 4 -22 7t-22 4q-11 2 -21 2.5t-19 0.5q-61 0 -111 -18.5t-91 -56.5q-40 -37 -70 -78.5t-51 -86.5q-5 -12 -9.5 -23.5t-8.5 -22.5q-4 -10 -6.5 -18.5t-5.5 -17.5q0 -2 -0.5 -4t-1.5 -4q-3 -11 -5 -22.5t-4 -23.5t-2.5 -24t0.5 -24q0 -40 12 -77t34 -70q23 -33 60.5 -49.5
t89.5 -16.5q35 0 67.5 6t60.5 19q15 6 29.5 13t28.5 15q14 7 28.5 15.5t29.5 17.5l-27 -69q-13 -11 -30 -19t-38 -14q-20 -5 -41 -9.5t-42 -8.5l-18 -2t-19 -2q-9 -1 -17 -1.5t-16 -0.5h-1.5h-0.5h-1.5h-1.5h-2.5h-2.5q-3 1 -5.5 1h-4.5h-2.5h-2.5q-2 1 -3 1h-2l-34 -39
q30 0 50.5 -4.5t33.5 -14.5q12 -10 16 -23.5t-1 -30.5v-1.5t-1 -1.5v-2t-1 -2v-0.5v-1.5q-1 0 -1 -0.5v-0.5l-0.5 -0.5t-0.5 -1.5l-0.5 -0.5t-0.5 -1.5q-8 -18 -22 -31t-33 -22q-19 -8 -40 -12.5t-44 -4.5q-11 0 -22 1t-22 3q-12 1 -22.5 4t-20.5 7l23 32q7 -2 13.5 -4.5
t12.5 -3.5q7 -2 13 -2.5t12 -0.5q14 0 26.5 3t23.5 9q10 6 16.5 12.5t10.5 13.5q0 1 0.5 2t1.5 2v1.5v1.5q2 6 0.5 11.5t-6.5 10.5q-4 5 -12 7.5t-20 2.5h-6t-6 -1q-2 0 -4.5 -0.5t-5.5 -0.5q-1 0 -2.5 -0.5t-2.5 -0.5l-14 8l52 78q-64 6 -112 30.5t-80 68.5t-37 107.5
t17 146.5v2v0z" />
    <glyph glyph-name="Egrave" unicode="&#xc8;" horiz-adv-x="504" 
d="M87 0l183 685h362q-3 -5 -4.5 -8.5t-3.5 -6.5q-1 -1 -1.5 -2.5t-1.5 -2.5l-1.5 -3t-0.5 -3v-1.5v-1.5t-0.5 -1.5l-0.5 -0.5q0 -1 -0.5 -1.5l-0.5 -0.5q-1 -4 -1.5 -7.5t-1.5 -7.5v-4t1 -4v-5v-4q-14 3 -28.5 5t-31.5 3q-8 0 -16 0.5t-16 0.5q-9 1 -17 1h-16h-10h-10
h-10.5h-10.5q-4 -1 -8 -1h-8h-8h-7h-8.5h-9.5q-4 -1 -8.5 -1h-8.5h-17.5h-16.5l-65 -242h150l96 8q-1 -2 -1.5 -3.5t-1.5 -2.5q-2 -2 -3.5 -4.5t-2.5 -4.5t-1.5 -4t-0.5 -3q-1 -2 -1.5 -4t-1.5 -4q0 -1 -0.5 -2.5t-0.5 -3.5l-0.5 -1l-0.5 -1q0 -3 -0.5 -5t-0.5 -4v-6v-6
v-2.5v-3.5l-116 10h-126l-76 -284q7 -2 14.5 -3t16.5 -1q9 -1 19 -1h20h16h17h9t9 1h8.5h8.5l40 2t39 2q18 2 33.5 3.5t27.5 2.5q-1 -2 -2.5 -4.5t-2.5 -4.5t-2.5 -4.5t-2.5 -4.5q-1 -4 -2.5 -8t-2.5 -8l-2 -8t-1 -8q-1 -4 0 -7t2 -4h-370v0v0zM495 732l-130 103
q-1 0 -1.5 0.5t-1.5 0.5q-2 1 -3.5 2.5l-2.5 2.5q-1 2 -2.5 4t-2.5 4q0 1 -0.5 1.5l-0.5 0.5q-1 1 -1.5 2.5t-0.5 2.5v4t1 4q2 7 7 13t14 11q8 5 16 7.5t16 2.5q4 0 7.5 -0.5t7.5 -2.5q1 -1 2.5 -1.5t2.5 -1.5t2.5 -2t2.5 -2l115 -156h-47v0v0z" />
    <glyph glyph-name="Eacute" unicode="&#xc9;" horiz-adv-x="504" 
d="M87 0l183 685h362q-3 -5 -4.5 -8.5t-3.5 -6.5q-1 -1 -1.5 -2.5t-1.5 -2.5l-1.5 -3t-0.5 -3v-1.5v-1.5t-0.5 -1.5l-0.5 -0.5q0 -1 -0.5 -1.5l-0.5 -0.5q-1 -4 -1.5 -7.5t-1.5 -7.5v-4t1 -4v-5v-4q-14 3 -28.5 5t-31.5 3q-8 0 -16 0.5t-16 0.5q-9 1 -17 1h-16h-10h-10
h-10.5h-10.5q-4 -1 -8 -1h-8h-8h-7h-8.5h-9.5q-4 -1 -8.5 -1h-8.5h-17.5h-16.5l-65 -242h150l96 8q-1 -2 -1.5 -3.5t-1.5 -2.5q-2 -2 -3.5 -4.5t-2.5 -4.5t-1.5 -4t-0.5 -3q-1 -2 -1.5 -4t-1.5 -4q0 -1 -0.5 -2.5t-0.5 -3.5l-0.5 -1l-0.5 -1q0 -3 -0.5 -5t-0.5 -4v-6v-6
v-2.5v-3.5l-116 10h-126l-76 -284q7 -2 14.5 -3t16.5 -1q9 -1 19 -1h20h16h17h9t9 1h8.5h8.5l40 2t39 2q18 2 33.5 3.5t27.5 2.5q-1 -2 -2.5 -4.5t-2.5 -4.5t-2.5 -4.5t-2.5 -4.5q-1 -4 -2.5 -8t-2.5 -8l-2 -8t-1 -8q-1 -4 0 -7t2 -4h-370v0v0zM314 732l172 142q5 3 9.5 6
t9.5 6t10.5 5t9.5 3q2 1 4.5 1.5t4.5 0.5h2t3 1h2h2q8 0 14 -2t11 -6t7 -9t0 -11q-1 -4 -4.5 -9.5t-8.5 -11.5q-3 -3 -6.5 -6t-7.5 -5q-5 -3 -9.5 -6t-10.5 -6l-175 -93h-39v0v0z" />
    <glyph glyph-name="Ecircumflex" unicode="&#xca;" horiz-adv-x="504" 
d="M87 0l183 685h362q-3 -5 -4.5 -8.5t-3.5 -6.5q-1 -1 -1.5 -2.5t-1.5 -2.5l-1.5 -3t-0.5 -3v-1.5v-1.5t-0.5 -1.5l-0.5 -0.5q0 -1 -0.5 -1.5l-0.5 -0.5q-1 -4 -1.5 -7.5t-1.5 -7.5v-4t1 -4v-5v-4q-14 3 -28.5 5t-31.5 3q-8 0 -16 0.5t-16 0.5q-9 1 -17 1h-16h-10h-10
h-10.5h-10.5q-4 -1 -8 -1h-8h-8h-7h-8.5h-9.5q-4 -1 -8.5 -1h-8.5h-17.5h-16.5l-65 -242h150l96 8q-1 -2 -1.5 -3.5t-1.5 -2.5q-2 -2 -3.5 -4.5t-2.5 -4.5t-1.5 -4t-0.5 -3q-1 -2 -1.5 -4t-1.5 -4q0 -1 -0.5 -2.5t-0.5 -3.5l-0.5 -1l-0.5 -1q0 -3 -0.5 -5t-0.5 -4v-6v-6
v-2.5v-3.5l-116 10h-126l-76 -284q7 -2 14.5 -3t16.5 -1q9 -1 19 -1h20h16h17h9t9 1h8.5h8.5l40 2t39 2q18 2 33.5 3.5t27.5 2.5q-1 -2 -2.5 -4.5t-2.5 -4.5t-2.5 -4.5t-2.5 -4.5q-1 -4 -2.5 -8t-2.5 -8l-2 -8t-1 -8q-1 -4 0 -7t2 -4h-370v0v0zM306 732l182 181h47l86 -181
h-39l-89 111l-147 -111h-40v0v0z" />
    <glyph glyph-name="Edieresis" unicode="&#xcb;" horiz-adv-x="504" 
d="M87 0l183 685h362q-3 -5 -4.5 -8.5t-3.5 -6.5q-1 -1 -1.5 -2.5t-1.5 -2.5l-1.5 -3t-0.5 -3v-1.5v-1.5t-0.5 -1.5l-0.5 -0.5q0 -1 -0.5 -1.5l-0.5 -0.5q-1 -4 -1.5 -7.5t-1.5 -7.5v-4t1 -4v-5v-4q-14 3 -28.5 5t-31.5 3q-8 0 -16 0.5t-16 0.5q-9 1 -17 1h-16h-10h-10
h-10.5h-10.5q-4 -1 -8 -1h-8h-8h-7h-8.5h-9.5q-4 -1 -8.5 -1h-8.5h-17.5h-16.5l-65 -242h150l96 8q-1 -2 -1.5 -3.5t-1.5 -2.5q-2 -2 -3.5 -4.5t-2.5 -4.5t-1.5 -4t-0.5 -3q-1 -2 -1.5 -4t-1.5 -4q0 -1 -0.5 -2.5t-0.5 -3.5l-0.5 -1l-0.5 -1q0 -3 -0.5 -5t-0.5 -4v-6v-6
v-2.5v-3.5l-116 10h-126l-76 -284q7 -2 14.5 -3t16.5 -1q9 -1 19 -1h20h16h17h9t9 1h8.5h8.5l40 2t39 2q18 2 33.5 3.5t27.5 2.5q-1 -2 -2.5 -4.5t-2.5 -4.5t-2.5 -4.5t-2.5 -4.5q-1 -4 -2.5 -8t-2.5 -8l-2 -8t-1 -8q-1 -4 0 -7t2 -4h-370v0v0zM339 795q0 -1 0 -0.5v1.5v0.5
t1 1.5v0.5v0.5q2 11 8 20t15 15t18 9t19 4v0h1v0v0h0.5h1.5q10 0 18 -2.5t15 -8.5q6 -6 7.5 -15t-1.5 -20q-3 -13 -10 -23.5t-17 -17.5q-4 -3 -9 -5.5l-9 -4.5q-5 -1 -9.5 -2t-9.5 -1q-9 -1 -17 2t-14 9t-8 14.5t-1 20.5l1 2v0zM538 803q4 10 10.5 18t16.5 14q5 3 9 5.5
t9 3.5q4 2 8.5 3t8.5 1v0h1v0v0h0.5h1.5q9 0 17 -3t14 -9t7.5 -14.5t-2.5 -20.5q-3 -13 -10 -23t-16 -17q-10 -7 -19.5 -10t-18.5 -3q-10 -1 -18 2t-15 10q-6 7 -7 17.5t2 23.5l1 2v0z" />
    <glyph glyph-name="Igrave" unicode="&#xcc;" 
d="M279 693q4 -3 8.5 -4.5t10.5 -2.5q5 -1 10.5 -1h11.5h4h4q4 0 8 0.5t8 0.5q6 1 11.5 2.5t10.5 2.5l-185 -691q-4 0 -9.5 0.5t-10.5 1.5t-10.5 1.5t-11.5 0.5t-12 -0.5t-13 -1.5q-6 -1 -10.5 -1.5t-9.5 -0.5l185 693v0v0zM385 732l-131 103q-1 0 -1.5 0.5t-1.5 0.5
q-2 1 -3.5 2.5l-2.5 2.5q-1 2 -2.5 4t-2.5 4l-0.5 0.5t-0.5 1.5q-1 1 -1.5 2t0.5 3v4t1 4q2 7 6.5 13t11.5 10q8 5 16 7.5t16 3.5v0h1v0v0h0.5h1.5q4 0 7.5 -0.5t7.5 -2.5q1 -1 2.5 -1.5t2.5 -1.5t2.5 -2t2.5 -2l115 -156h-47v0v0z" />
    <glyph glyph-name="Iacute" unicode="&#xcd;" 
d="M279 693q4 -3 8.5 -4.5t10.5 -2.5q5 -1 10.5 -1h11.5h4h4q4 0 8 0.5t8 0.5q6 1 11.5 2.5t10.5 2.5l-185 -691q-4 0 -9.5 0.5t-10.5 1.5t-10.5 1.5t-11.5 0.5t-12 -0.5t-13 -1.5q-6 -1 -10.5 -1.5t-9.5 -0.5l185 693v0v0zM196 732l172 142q5 3 9.5 6t9.5 6t10.5 5t9.5 3
q2 1 4.5 1.5t4.5 0.5h2t3 1h2h2q8 0 14 -2t11 -6t7 -9t0 -11q-1 -4 -4.5 -9.5t-8.5 -11.5q-3 -3 -6.5 -6t-7.5 -5q-5 -3 -9.5 -6t-10.5 -6l-175 -93h-39v0v0z" />
    <glyph glyph-name="Icircumflex" unicode="&#xce;" 
d="M279 693q4 -3 8.5 -4.5t10.5 -2.5q5 -1 10.5 -1h11.5h4h4q4 0 8 0.5t8 0.5q6 1 11.5 2.5t10.5 2.5l-185 -691q-4 0 -9.5 0.5t-10.5 1.5t-10.5 1.5t-11.5 0.5t-12 -0.5t-13 -1.5q-6 -1 -10.5 -1.5t-9.5 -0.5l185 693v0v0zM172 732l182 181h47l86 -181h-39l-89 111
l-147 -111h-40v0v0z" />
    <glyph glyph-name="Idieresis" unicode="&#xcf;" 
d="M279 693q4 -3 8.5 -4.5t10.5 -2.5q5 -1 10.5 -1h11.5h4h4q4 0 8 0.5t8 0.5q6 1 11.5 2.5t10.5 2.5l-185 -691q-4 0 -9.5 0.5t-10.5 1.5t-10.5 1.5t-11.5 0.5t-12 -0.5t-13 -1.5q-6 -1 -10.5 -1.5t-9.5 -0.5l185 693v0v0zM197 795q1 -1 1 -0.5v1.5v0.5t1 1.5v0.5v0.5
q3 11 8.5 20t14.5 15q8 6 17 9t19 4v0h1v0v0h0.5h1.5q10 0 18 -2.5t15 -8.5t8.5 -15t-1.5 -20q-3 -13 -10 -23.5t-17 -17.5q-4 -3 -9 -5.5l-9 -4.5q-5 -1 -9.5 -2t-9.5 -1h-1.5h-0.5v0v0h-1v0q-9 0 -16 3t-13 9q-5 6 -7 14.5t-1 19.5v2v0zM396 803q4 10 10.5 18t16.5 14
q5 3 9 5.5t9 3.5q4 2 8.5 3t8.5 1v0h1v0v0h0.5h1.5q9 0 17 -3t14 -9t7.5 -14.5t-2.5 -20.5q-3 -13 -10 -23t-16 -17q-10 -7 -19.5 -10t-18.5 -3q-10 -1 -18 2t-15 10q-6 7 -7 17.5t2 23.5l1 2v0z" />
    <glyph glyph-name="Eth" unicode="&#xd0;" horiz-adv-x="780" 
 />
    <glyph glyph-name="Ntilde" unicode="&#xd1;" horiz-adv-x="780" 
d="M87 0l185 693h47l339 -528l141 528q2 -3 5.5 -4.5t7.5 -2.5q3 -1 7.5 -1h8.5h3h3q3 0 6 0.5t6 0.5q5 1 8.5 2.5t7.5 2.5l-185 -691h-39l-343 543l-145 -543h-3t-3 1q-2 0 -3.5 0.5t-3.5 0.5q-3 1 -6.5 1.5t-7.5 0.5h-2.5h-3.5q-3 -1 -5.5 -1t-6.5 -1t-8.5 -1.5t-9.5 -0.5
v0v0zM422 756q6 15 15 28.5t20 24.5t22 19t22 14q5 3 9.5 5.5t9.5 3.5q2 1 4 1.5t4 1.5q2 0 4 0.5t4 1.5h1.5h1.5h0.5t1.5 1h0.5h1.5h1h2h1.5h1.5h3.5h3.5q1 -1 3 -1h3q2 0 3.5 -0.5t3.5 -0.5q1 -1 3 -1.5t3 -0.5q6 -1 11.5 -3.5t10.5 -5.5q3 -1 5.5 -2.5t5.5 -2.5
q2 -2 4.5 -3t5.5 -3q8 -4 15.5 -8.5t14.5 -8.5q4 -2 8 -3.5t8 -1.5q3 -1 7 -1.5t8 -0.5q8 0 16.5 3t17.5 9t18.5 16.5t19.5 26.5l29 -6q-2 -5 -5 -10.5t-7 -11.5q-2 -4 -5.5 -8t-6.5 -8q-1 -2 -2.5 -4t-3.5 -4q-9 -11 -19.5 -21t-23.5 -19t-27 -13.5t-29 -4.5q-12 0 -23 1.5
t-20 5.5q-7 3 -13.5 6t-12.5 7l-4 2l-4 2q-7 4 -14 7.5t-14 7.5q-3 2 -6 3.5t-6 2.5q-4 1 -7 1.5t-6 0.5q-9 0 -16 -2t-12 -5q-3 -1 -6 -3.5t-5 -4.5q-3 -2 -6 -5l-6 -6q-1 -1 -2 -2.5t-1 -2.5q-1 -2 -2 -3l-2 -2t-2 -2.5t-2 -2.5l-3 -3t-2 -3l-32 2v0v0z" />
    <glyph glyph-name="Ograve" unicode="&#xd2;" 
 />
    <glyph glyph-name="Oacute" unicode="&#xd3;" horiz-adv-x="835" 
d="M121 339q2 4 3 8.5t2 9.5q2 5 4 10.5t4 10.5q23 60 65 115t103 105t136.5 75.5t165.5 25.5q91 -3 151 -24t89 -62q29 -40 43 -84t12 -92v-12t-1 -11q0 -6 -1 -12l-2 -12q-1 -12 -3.5 -23.5t-4.5 -22.5v-0.5v-0.5q-1 -1 -1 -1.5v-0.5v-1.5v-0.5l-1 -1v0v-2t-1 -2v-1.5
t-1 -1.5q-22 -83 -68 -148.5t-116 -112.5q-24 -16 -48 -29.5t-48 -23.5q-48 -20 -95.5 -30.5t-96.5 -10.5h-4h-4h-4h-4h-12t-12 1q-7 0 -13 0.5t-12 1.5q-13 1 -25.5 4t-23.5 6q-48 11 -87 37.5t-70 67.5t-36 102t17 141v2v0zM224 339q-21 -79 -17 -139t32 -102
q29 -42 74.5 -63t107.5 -21q56 0 108.5 21t101.5 63t87 102t65 137v0.5t1 1.5v0.5v1.5v0.5t1 1.5v1.5v1.5l0.5 0.5t0.5 1.5l0.5 0.5t0.5 1.5v2t1 2q17 65 12 119.5t-32 97.5q-28 44 -74 66t-109 22q-57 0 -104.5 -18t-86.5 -53t-70.5 -73.5t-54.5 -80.5q-7 -13 -13.5 -25.5
t-11.5 -24.5q-6 -12 -10.5 -24t-9.5 -23v2v0zM464 732l172 142q5 3 9.5 6t9.5 6t10.5 5t9.5 3q2 1 4.5 1.5t4.5 0.5h2t3 1h2h2q8 0 14 -2t11 -6t6.5 -9t0.5 -11q-1 -4 -5 -9.5t-9 -11.5l-6 -6t-7 -5q-5 -3 -9.5 -6t-10.5 -6l-175 -93h-39v0v0z" />
    <glyph glyph-name="Ocircumflex" unicode="&#xd4;" horiz-adv-x="835" 
d="M121 339q2 4 3 8.5t2 9.5q2 5 4 10.5t4 10.5q23 60 65 115t103 105t136.5 75.5t165.5 25.5q91 -3 151 -24t89 -62q29 -40 43 -84t12 -92v-12t-1 -11q0 -6 -1 -12l-2 -12q-1 -12 -3.5 -23.5t-4.5 -22.5v-0.5v-0.5q-1 -1 -1 -1.5v-0.5v-1.5v-0.5l-1 -1v0v-2t-1 -2v-1.5
t-1 -1.5q-22 -83 -68 -148.5t-116 -112.5q-24 -16 -48 -29.5t-48 -23.5q-48 -20 -95.5 -30.5t-96.5 -10.5h-4h-4h-4h-4h-12t-12 1q-7 0 -13 0.5t-12 1.5q-13 1 -25.5 4t-23.5 6q-48 11 -87 37.5t-70 67.5t-36 102t17 141v2v0zM224 339q-21 -79 -17 -139t32 -102
q29 -42 74.5 -63t107.5 -21q56 0 108.5 21t101.5 63t87 102t65 137v0.5t1 1.5v0.5v1.5v0.5t1 1.5v1.5v1.5l0.5 0.5t0.5 1.5l0.5 0.5t0.5 1.5v2t1 2q17 65 12 119.5t-32 97.5q-28 44 -74 66t-109 22q-57 0 -104.5 -18t-86.5 -53t-70.5 -73.5t-54.5 -80.5q-7 -13 -13.5 -25.5
t-11.5 -24.5q-6 -12 -10.5 -24t-9.5 -23v2v0zM456 732l182 181h47l86 -181h-40l-89 111l-147 -111h-39v0v0z" />
    <glyph glyph-name="Otilde" unicode="&#xd5;" horiz-adv-x="835" 
d="M121 339q2 4 3 8.5t2 9.5q2 5 4 10.5t4 10.5q23 60 65 115t103 105t136.5 75.5t165.5 25.5q91 -3 151 -24t89 -62q29 -40 43 -84t12 -92v-12t-1 -11q0 -6 -1 -12l-2 -12q-1 -12 -3.5 -23.5t-4.5 -22.5v-0.5v-0.5q-1 -1 -1 -1.5v-0.5v-1.5v-0.5l-1 -1v0v-2t-1 -2v-1.5
t-1 -1.5q-22 -83 -68 -148.5t-116 -112.5q-24 -16 -48 -29.5t-48 -23.5q-48 -20 -95.5 -30.5t-96.5 -10.5h-4h-4h-4h-4h-12t-12 1q-7 0 -13 0.5t-12 1.5q-13 1 -25.5 4t-23.5 6q-48 11 -87 37.5t-70 67.5t-36 102t17 141v2v0zM224 339q-21 -79 -17 -139t32 -102
q29 -42 74.5 -63t107.5 -21q56 0 108.5 21t101.5 63t87 102t65 137v0.5t1 1.5v0.5v1.5v0.5t1 1.5v1.5v1.5l0.5 0.5t0.5 1.5l0.5 0.5t0.5 1.5v2t1 2q17 65 12 119.5t-32 97.5q-28 44 -74 66t-109 22q-57 0 -104.5 -18t-86.5 -53t-70.5 -73.5t-54.5 -80.5q-7 -13 -13.5 -25.5
t-11.5 -24.5q-6 -12 -10.5 -24t-9.5 -23v2v0zM444 748q6 16 15 29.5t21 24.5q11 11 22.5 19.5t23.5 14.5l4 2t5 2l4 2l4 2t4.5 1.5t5.5 1.5q1 0 2.5 0.5t2.5 0.5h1.5t1.5 1h1.5h1.5h3.5h3.5h4.5t5.5 -1q2 0 4.5 -0.5t4.5 -1.5q2 0 3.5 -0.5t3.5 -1.5q3 -1 6.5 -2t7.5 -2
q2 -1 3.5 -2t3.5 -1q1 -1 3 -2l4 -2q1 -1 2.5 -1.5t2.5 -1.5q2 -1 4.5 -2.5t5.5 -2.5q8 -4 15.5 -8.5t14.5 -8.5q8 -4 15.5 -5.5t14.5 -1.5q8 0 16.5 3t18.5 9q9 6 18 16.5t19 26.5l30 -6q-2 -5 -5 -10.5t-7 -11.5t-8.5 -12t-9.5 -12q-10 -11 -20.5 -21t-24.5 -19
q-13 -9 -26.5 -13.5t-28.5 -4.5q-12 0 -23 1.5t-20 5.5q-10 4 -18 8.5t-15 8.5l-15 7.5t-14 7.5q-4 3 -8 4.5t-8 2.5q-2 1 -4 1h-4q-10 0 -18 -2t-13 -5q-3 -2 -5.5 -4t-5.5 -5t-5.5 -6t-5.5 -6q-2 -2 -3.5 -4.5t-3.5 -4.5q-2 -3 -3.5 -5.5t-3.5 -4.5l-32 2v0v0z" />
    <glyph glyph-name="Odieresis" unicode="&#xd6;" horiz-adv-x="835" 
d="M121 339q2 4 3 8.5t2 9.5q2 5 4 10.5t4 10.5q23 60 65 115t103 105t136.5 75.5t165.5 25.5q91 -3 151 -24t89 -62q29 -40 43 -84t12 -92v-12t-1 -11q0 -6 -1 -12l-2 -12q-1 -12 -3.5 -23.5t-4.5 -22.5v-0.5v-0.5q-1 -1 -1 -1.5v-0.5v-1.5v-0.5l-1 -1v0v-2t-1 -2v-1.5
t-1 -1.5q-22 -83 -68 -148.5t-116 -112.5q-24 -16 -48 -29.5t-48 -23.5q-48 -20 -95.5 -30.5t-96.5 -10.5h-4h-4h-4h-4h-12t-12 1q-7 0 -13 0.5t-12 1.5q-13 1 -25.5 4t-23.5 6q-48 11 -87 37.5t-70 67.5t-36 102t17 141v2v0zM224 339q-21 -79 -17 -139t32 -102
q29 -42 74.5 -63t107.5 -21q56 0 108.5 21t101.5 63t87 102t65 137v0.5t1 1.5v0.5v1.5v0.5t1 1.5v1.5v1.5l0.5 0.5t0.5 1.5l0.5 0.5t0.5 1.5v2t1 2q17 65 12 119.5t-32 97.5q-28 44 -74 66t-109 22q-57 0 -104.5 -18t-86.5 -53t-70.5 -73.5t-54.5 -80.5q-7 -13 -13.5 -25.5
t-11.5 -24.5q-6 -12 -10.5 -24t-9.5 -23v2v0zM473 795q0 -1 0 -0.5v1.5v0.5t1 1.5v0.5v0.5q2 11 8 20t15 15t18 9t19 4v0h1v0v0h0.5h1.5q10 0 18 -2.5t15 -8.5q6 -6 7.5 -15t-1.5 -20q-3 -13 -10 -23.5t-17 -17.5q-4 -3 -9 -5.5l-9 -4.5q-5 -1 -9.5 -2t-9.5 -1q-9 -1 -17 2
t-14 9t-8 14.5t-1 20.5l1 2v0zM672 803q4 10 10.5 18t16.5 14q5 3 9 5.5t9 3.5q4 2 8.5 3t8.5 1v0h1v0v0h0.5h1.5q9 0 17 -3t14 -9t7.5 -14.5t-2.5 -20.5q-3 -13 -10 -23t-16 -17q-10 -7 -19.5 -10t-18.5 -3q-10 -1 -18 2t-15 10q-6 7 -7 17.5t2 23.5l1 2v0z" />
    <glyph glyph-name="multiply" unicode="&#xd7;" 
 />
    <glyph glyph-name="Oslash" unicode="&#xd8;" horiz-adv-x="835" 
d="M125 323q20 76 62 143t106 125t140.5 87t164.5 29q38 0 70 -4.5t57 -12.5t44.5 -17t33.5 -19l2.5 -2.5l2.5 -2.5q1 -2 2.5 -3t2.5 -2l6 -4t5 -4l114 104q0 -5 1 -8t3 -5l3.5 -3.5l3.5 -3.5q0 -1 1 -1.5t2 -1.5q0 -1 1 -1.5t1 -1.5l1.5 -1.5t1.5 -0.5q0 -1 0.5 -1.5
l1.5 -1.5v0v0v-1v0v0h1q0 -1 0.5 -1h0.5l-112 -93q1 -4 2 -6l2 -4q0 -1 0.5 -2t1.5 -1q1 -1 1.5 -2t1.5 -2q13 -22 23 -46t18 -50q8 -27 5 -66t-17 -91q-24 -88 -72.5 -156.5t-122.5 -116.5t-152 -71.5t-161 -23.5q-12 0 -24 1.5t-25 3.5t-25 5t-23 8l-6 2t-6 3q-9 2 -18 6
t-17 9q-12 6 -22 14t-20 17l-123 -108q2 6 0.5 11.5t-4.5 10.5q-4 5 -9 7.5t-11 2.5l125 110q-4 1 -7 3t-5 5q-3 3 -6 6.5t-5 7.5q-12 15 -20.5 37t-13.5 50q-5 29 -2 62t13 71v2v0zM718 213q1 1 3 4t5 7q2 4 4.5 8.5t5.5 10.5q6 11 12.5 25t13.5 30q6 16 12 33t11 36
q2 6 3.5 12.5t2.5 13.5t2.5 13.5t2.5 13.5q2 17 2.5 34.5t-1.5 33.5q-2 17 -7 32t-13 29l-539 -455q13 -16 28 -27.5t32 -20.5t34.5 -15t36.5 -9l8 -2t8 -1q2 -1 4 -1h4q5 -1 11.5 -1h13.5q14 0 27.5 1.5t27.5 3.5q28 6 55.5 17t54.5 27q41 24 75 60.5t59 84.5l1 2v0z
M762 583q-2 10 -9.5 20t-20.5 19q-12 9 -26 16t-29 13q-10 4 -21.5 7t-23.5 5q-11 2 -20 3t-17 1q-71 -4 -130 -31t-107 -77q-49 -51 -81 -107.5t-49 -118.5q0 -1 -0.5 -2.5t-0.5 -2.5l-1.5 -3t-0.5 -3q0 -1 -0.5 -2.5t-0.5 -2.5q-1 -2 -1 -3v-3q-5 -24 -8 -48t-4 -48
q0 -24 2.5 -47t8.5 -44l540 459v0v0z" />
    <glyph glyph-name="Ugrave" unicode="&#xd9;" horiz-adv-x="780" 
d="M158 268l114 425q3 -2 6 -3t7 -2q3 0 6 -1t6 -1t5.5 -0.5t5.5 -0.5h5.5h5.5h2h2h1h2h4t5 1h6.5t7.5 1l8 2t9 2l-110 -408q-18 -70 -16.5 -118.5t23.5 -77.5q23 -29 57.5 -43.5t81.5 -14.5q59 0 104.5 16t77.5 47q33 32 58.5 77.5t44.5 104.5l112 419q2 -2 3 -2.5l3 -1.5
q1 -1 2.5 -1.5t2.5 -0.5q2 0 3 -0.5t3 -0.5q1 -1 2.5 -1h2.5h1h2h2h2h8t8 1t8.5 2.5t9.5 2.5l-108 -400q-18 -70 -49.5 -125.5t-75.5 -97.5q-44 -43 -106 -63.5t-142 -20.5h-4.5h-4.5h-4.5h-4.5q-83 0 -133.5 21t-67.5 64q-16 44 -17.5 93t13.5 104v2v0zM633 748l-130 102
q-6 2 -9 6t-5 8q-1 5 -1.5 8.5t0.5 7.5q2 7 6.5 13t13.5 11q8 5 16.5 7.5t16.5 2.5h3.5t3.5 -1q2 0 3.5 -0.5t3.5 -1.5q1 -1 2.5 -1.5t2.5 -1.5t2.5 -2t2.5 -2l115 -156h-47v0v0z" />
    <glyph glyph-name="Uacute" unicode="&#xda;" horiz-adv-x="780" 
d="M158 268l114 425q3 -2 6 -3t7 -2q3 0 6 -1t6 -1t5.5 -0.5t5.5 -0.5h5.5h5.5h2h2h1h2h4t5 1h6.5t7.5 1l8 2t9 2l-110 -408q-18 -70 -16.5 -118.5t23.5 -77.5q23 -29 57.5 -43.5t81.5 -14.5q59 0 104.5 16t77.5 47q33 32 58.5 77.5t44.5 104.5l112 419q2 -2 3 -2.5l3 -1.5
q1 -1 2.5 -1.5t2.5 -0.5q2 0 3 -0.5t3 -0.5q1 -1 2.5 -1h2.5h1h2h2h2h8t8 1t8.5 2.5t9.5 2.5l-108 -400q-18 -70 -49.5 -125.5t-75.5 -97.5q-44 -43 -106 -63.5t-142 -20.5h-4.5h-4.5h-4.5h-4.5q-83 0 -133.5 21t-67.5 64q-16 44 -17.5 93t13.5 104v2v0zM411 740l171 142
q4 2 8.5 5t9.5 6t10 5.5t9 3.5q2 0 5 0.5t6 1.5h2t3 1h2.5h2.5q8 0 14 -2t11 -6t6.5 -9t0.5 -11q-1 -4 -5 -9.5t-9 -11.5l-6 -6t-7 -5q-5 -3 -9.5 -6t-10.5 -6l-175 -93h-39v0v0z" />
    <glyph glyph-name="Ucircumflex" unicode="&#xdb;" horiz-adv-x="780" 
d="M158 268l114 425q3 -2 6 -3t7 -2q3 0 6 -1t6 -1t5.5 -0.5t5.5 -0.5h5.5h5.5h2h2h1h2h4t5 1h6.5t7.5 1l8 2t9 2l-110 -408q-18 -70 -16.5 -118.5t23.5 -77.5q23 -29 57.5 -43.5t81.5 -14.5q59 0 104.5 16t77.5 47q33 32 58.5 77.5t44.5 104.5l112 419q2 -2 3 -2.5l3 -1.5
q1 -1 2.5 -1.5t2.5 -0.5q2 0 3 -0.5t3 -0.5q1 -1 2.5 -1h2.5h1h2h2h2h8t8 1t8.5 2.5t9.5 2.5l-108 -400q-18 -70 -49.5 -125.5t-75.5 -97.5q-44 -43 -106 -63.5t-142 -20.5h-4.5h-4.5h-4.5h-4.5q-83 0 -133.5 21t-67.5 64q-16 44 -17.5 93t13.5 104v2v0zM426 740l182 181h47
l86 -181h-39l-89 110l-147 -110h-40v0v0z" />
    <glyph glyph-name="Udieresis" unicode="&#xdc;" horiz-adv-x="780" 
d="M158 268l114 425q3 -2 6 -3t7 -2q3 0 6 -1t6 -1t5.5 -0.5t5.5 -0.5h5.5h5.5h2h2h1h2h4t5 1h6.5t7.5 1l8 2t9 2l-110 -408q-18 -70 -16.5 -118.5t23.5 -77.5q23 -29 57.5 -43.5t81.5 -14.5q59 0 104.5 16t77.5 47q33 32 58.5 77.5t44.5 104.5l112 419q2 -2 3 -2.5l3 -1.5
q1 -1 2.5 -1.5t2.5 -0.5q2 0 3 -0.5t3 -0.5q1 -1 2.5 -1h2.5h1h2h2h2h8t8 1t8.5 2.5t9.5 2.5l-108 -400q-18 -70 -49.5 -125.5t-75.5 -97.5q-44 -43 -106 -63.5t-142 -20.5h-4.5h-4.5h-4.5h-4.5q-83 0 -133.5 21t-67.5 64q-16 44 -17.5 93t13.5 104v2v0zM475 803
q0 -1 0 -0.5v1.5v0.5t1 1.5v0.5v0.5q2 11 8 20t15 15q10 6 19 9t18 4v0h1v0v0h0.5h1.5q10 0 18 -2.5t15 -8.5q6 -6 8 -15t-1 -20q-4 -13 -11 -23.5t-16 -17.5q-10 -7 -19.5 -10t-18.5 -3q-9 -1 -17 2t-14 9t-8 14.5t-1 20.5l1 2v0zM674 811q5 10 11.5 18t15.5 14q5 3 9 5.5
t9 3.5q4 2 8.5 3t8.5 1v0h1v0v0h0.5h1.5q9 0 17 -3t14 -9t7.5 -14.5t-1.5 -20.5q-4 -13 -11 -23t-16 -17q-10 -7 -19.5 -10t-18.5 -3q-10 -1 -18 2t-14 10q-7 7 -8 17.5t3 23.5v2v0z" />
    <glyph glyph-name="Yacute" unicode="&#xdd;" 
 />
    <glyph glyph-name="Thorn" unicode="&#xde;" horiz-adv-x="559" 
 />
    <glyph glyph-name="germandbls" unicode="&#xdf;" horiz-adv-x="559" 
d="M68 -8l140 520q17 62 42.5 107t61.5 73q18 14 35.5 24.5t34.5 18.5q17 7 34.5 12t35.5 6h2t2 1h2h2h4.5h5.5q34 0 58 -7.5t38 -21.5t22 -30t9 -33q1 -4 0.5 -8.5t-1.5 -9.5q0 -4 -0.5 -8.5t-1.5 -8.5q-1 -2 -1.5 -4t-0.5 -4l-0.5 -1l-0.5 -1q0 -1 -0.5 -1h-0.5
q0 -1 -0.5 -2t-0.5 -2q-7 -15 -15 -28t-19 -24q-10 -11 -22 -21.5t-25 -21.5q-4 -4 -9 -7.5t-10 -7.5l-10 -8l-10 -8q-4 -3 -7 -5.5t-5 -4.5q-3 -3 -5 -5.5t-4 -4.5q-5 -5 -9 -10t-7 -10t-4.5 -10t-3.5 -10q-3 -10 -2.5 -20t4.5 -18q4 -9 9.5 -16t14.5 -12q2 -1 3.5 -2.5
l3.5 -3.5q1 -1 2 -1.5t2 -0.5q1 -1 2 -1.5t2 -1.5q24 -18 44.5 -37t39.5 -40q17 -21 23 -45t-2 -52q-4 -14 -12.5 -29t-19.5 -31q-12 -16 -29 -33.5t-40 -36.5q-4 -4 -8.5 -7.5t-9.5 -6.5q-9 -6 -17.5 -11.5t-18.5 -9.5q-13 -6 -26.5 -10t-26.5 -7q-7 -2 -13 -2.5t-12 -1.5
q-7 -1 -13 -1.5t-12 -0.5q-17 0 -32 2t-28 6q-12 4 -21 8.5t-14 10.5l46 57q6 -9 13.5 -15.5t17.5 -11.5q9 -4 19 -7t20 -5h2h3q1 -1 2 -1h2h4.5h5.5q12 -1 24 1.5t23 6.5q12 5 23 12.5t21 17.5q9 9 16 17.5t12 16.5t9 16t6 15q5 18 1.5 33.5t-14.5 28.5q-11 14 -23.5 26
t-26.5 24q-3 2 -5.5 4t-4.5 4q-2 1 -3.5 2.5l-2.5 2.5l-1.5 1.5l-1.5 1.5t-2 1.5t-2 0.5q-2 2 -4 3.5t-4 3.5q-3 2 -5.5 4.5t-4.5 5.5q-16 11 -27.5 23t-18.5 24t-8.5 25.5t2.5 27.5q3 12 10.5 25.5t18.5 27.5t27 29t37 31q17 13 33 26.5t31 28.5q15 14 25.5 30.5t14.5 34.5
q0 1 0.5 1.5t0.5 1.5t0.5 1.5t0.5 1.5v4t1 4t1 4.5v4.5q0 1 0.5 2t0.5 3q0 1 0.5 2.5t0.5 2.5q-1 12 -5 24t-14 22q-9 11 -24.5 16.5t-38.5 5.5q-25 0 -46 -9.5t-38 -29.5q-16 -19 -29.5 -40.5t-23.5 -44.5q-7 -15 -12.5 -29.5t-8.5 -28.5q-4 -13 -7 -24.5t-5 -20.5
q-1 -1 -1.5 -2.5t-0.5 -3.5q-1 -1 -1 -2v-2l-131 -486q-1 0 -2.5 0.5t-2.5 0.5q-4 2 -8 2.5t-7 1.5q-4 1 -8.5 1h-8.5h-4.5h-4.5q-3 0 -5.5 -0.5t-4.5 -0.5q-5 -1 -10.5 -2.5t-12.5 -2.5v0v0z" />
    <glyph glyph-name="agrave" unicode="&#xe0;" horiz-adv-x="504" 
d="M76 110q6 22 18 42t31 37t47 30.5t66 22.5l132 26q12 1 21.5 5.5t16.5 11.5q7 8 12 17t8 19q0 1 0.5 2t0.5 2q0 3 0.5 5.5t1.5 5.5v8v8q-1 16 -6.5 31t-16.5 28q-10 14 -26 21t-37 7h-1.5h-2.5h-2h-2q-9 0 -17 -1t-16 -4q-2 0 -4.5 -1t-5.5 -2q-10 -4 -20 -9t-21 -12
q-7 -4 -13.5 -9t-11.5 -10q-7 -5 -13.5 -11t-14.5 -12l-14 2l14 55q3 0 6 1.5t7 2.5q3 2 6.5 4t7.5 4q16 8 33.5 14.5t36.5 13.5q20 6 40.5 9.5t42.5 3.5q44 0 74.5 -9.5t46.5 -28.5t17.5 -51t-9.5 -76l-68 -250q-2 -10 -2 -15.5t3 -8.5t8 -4.5t11 -1.5h6t7 1q4 0 8 1l8 2
l-6 -21q-3 -4 -6.5 -6t-6.5 -4t-6.5 -3t-6.5 -2t-6.5 -1t-6.5 -1t-6.5 -1.5t-6.5 -0.5h-1.5t-1.5 -1h-1.5h-1.5h-1.5h-0.5h-1.5h-1.5q-15 0 -27.5 3.5t-23.5 10.5q-10 8 -14.5 19t-2.5 24q-4 -3 -7 -5t-5 -4q-4 -2 -7 -4l-6 -4q-22 -14 -41.5 -24t-37.5 -15q-19 -6 -36.5 -9
t-32.5 -3q-30 0 -52 8.5t-37 25.5q-15 18 -18.5 40.5t3.5 48.5v2v0zM366 102l36 134q-57 -7 -99.5 -16t-69.5 -23q-28 -13 -45.5 -32t-24.5 -45q0 -1 -0.5 -2.5t-0.5 -2.5q-1 -2 -1.5 -4.5t-0.5 -4.5q0 -1 -0.5 -3t-0.5 -4q0 -1 -0.5 -3t-0.5 -4v-2.5v-3.5v-1.5v-0.5
q0 -1 0.5 -1.5t0.5 -1.5q2 -9 8 -17t16 -16q10 -7 22.5 -11t28.5 -4q8 0 15.5 1t16.5 3q6 1 12.5 3.5t13.5 5.5q2 1 4.5 2.5t4.5 2.5q8 4 16 9t16 11t16 13t17 16v2v0zM426 535l-130 103q-2 1 -4.5 2.5t-4.5 3.5q-1 1 -1.5 2t-0.5 2q-1 1 -1.5 2t-1.5 2q-1 2 -1.5 3.5
t-1.5 3.5v2t1 2v2v2q2 7 7 13t14 11q8 5 16.5 7.5t16.5 2.5h3.5t3.5 -1q2 0 3.5 -0.5t3.5 -1.5q1 -1 2.5 -1.5t2.5 -1.5t2.5 -2t2.5 -2l116 -156h-48v0v0z" />
    <glyph glyph-name="aacute" unicode="&#xe1;" horiz-adv-x="504" 
d="M76 110q6 22 18 42t31 37t47 30.5t66 22.5l132 26q12 1 21.5 5.5t16.5 11.5q7 8 12 17t8 19q0 1 0.5 2t0.5 2q0 3 0.5 5.5t1.5 5.5v8v8q-1 16 -6.5 31t-16.5 28q-10 14 -26 21t-37 7h-1.5h-2.5h-2h-2q-9 0 -17 -1t-16 -4q-2 0 -4.5 -1t-5.5 -2q-10 -4 -20 -9t-21 -12
q-7 -4 -13.5 -9t-11.5 -10q-7 -5 -13.5 -11t-14.5 -12l-14 2l14 55q3 0 6 1.5t7 2.5q3 2 6.5 4t7.5 4q16 8 33.5 14.5t36.5 13.5q20 6 40.5 9.5t42.5 3.5q44 0 74.5 -9.5t46.5 -28.5t17.5 -51t-9.5 -76l-68 -250q-2 -10 -2 -15.5t3 -8.5t8 -4.5t11 -1.5h6t7 1q4 0 8 1l8 2
l-6 -21q-3 -4 -6.5 -6t-6.5 -4t-6.5 -3t-6.5 -2t-6.5 -1t-6.5 -1t-6.5 -1.5t-6.5 -0.5h-1.5t-1.5 -1h-1.5h-1.5h-1.5h-0.5h-1.5h-1.5q-15 0 -27.5 3.5t-23.5 10.5q-10 8 -14.5 19t-2.5 24q-4 -3 -7 -5t-5 -4q-4 -2 -7 -4l-6 -4q-22 -14 -41.5 -24t-37.5 -15q-19 -6 -36.5 -9
t-32.5 -3q-30 0 -52 8.5t-37 25.5q-15 18 -18.5 40.5t3.5 48.5v2v0zM366 102l36 134q-57 -7 -99.5 -16t-69.5 -23q-28 -13 -45.5 -32t-24.5 -45q0 -1 -0.5 -2.5t-0.5 -2.5q-1 -2 -1.5 -4.5t-0.5 -4.5q0 -1 -0.5 -3t-0.5 -4q0 -1 -0.5 -3t-0.5 -4v-2.5v-3.5v-1.5v-0.5
q0 -1 0.5 -1.5t0.5 -1.5q2 -9 8 -17t16 -16q10 -7 22.5 -11t28.5 -4q8 0 15.5 1t16.5 3q6 1 12.5 3.5t13.5 5.5q2 1 4.5 2.5t4.5 2.5q8 4 16 9t16 11t16 13t17 16v2v0zM293 535l171 142q4 2 8.5 5t9.5 6q3 2 5.5 3t4.5 2t4.5 2t5.5 2q2 0 4.5 0.5t5.5 1.5h2t3 1h2.5h2.5
q8 0 14.5 -2t10.5 -6q5 -4 6.5 -9t0.5 -11q-1 -4 -5 -9.5t-9 -11.5l-6 -6t-7 -5q-5 -3 -9.5 -6t-10.5 -6l-175 -93h-39v0v0z" />
    <glyph glyph-name="acircumflex" unicode="&#xe2;" horiz-adv-x="504" 
d="M76 110q6 22 18 42t31 37t47 30.5t66 22.5l132 26q12 1 21.5 5.5t16.5 11.5q7 8 12 17t8 19q0 1 0.5 2t0.5 2q0 3 0.5 5.5t1.5 5.5v8v8q-1 16 -6.5 31t-16.5 28q-10 14 -26 21t-37 7h-1.5h-2.5h-2h-2q-9 0 -17 -1t-16 -4q-2 0 -4.5 -1t-5.5 -2q-10 -4 -20 -9t-21 -12
q-7 -4 -13.5 -9t-11.5 -10q-7 -5 -13.5 -11t-14.5 -12l-14 2l14 55q3 0 6 1.5t7 2.5q3 2 6.5 4t7.5 4q16 8 33.5 14.5t36.5 13.5q20 6 40.5 9.5t42.5 3.5q44 0 74.5 -9.5t46.5 -28.5t17.5 -51t-9.5 -76l-68 -250q-2 -10 -2 -15.5t3 -8.5t8 -4.5t11 -1.5h6t7 1q4 0 8 1l8 2
l-6 -21q-3 -4 -6.5 -6t-6.5 -4t-6.5 -3t-6.5 -2t-6.5 -1t-6.5 -1t-6.5 -1.5t-6.5 -0.5h-1.5t-1.5 -1h-1.5h-1.5h-1.5h-0.5h-1.5h-1.5q-15 0 -27.5 3.5t-23.5 10.5q-10 8 -14.5 19t-2.5 24q-4 -3 -7 -5t-5 -4q-4 -2 -7 -4l-6 -4q-22 -14 -41.5 -24t-37.5 -15q-19 -6 -36.5 -9
t-32.5 -3q-30 0 -52 8.5t-37 25.5q-15 18 -18.5 40.5t3.5 48.5v2v0zM366 102l36 134q-57 -7 -99.5 -16t-69.5 -23q-28 -13 -45.5 -32t-24.5 -45q0 -1 -0.5 -2.5t-0.5 -2.5q-1 -2 -1.5 -4.5t-0.5 -4.5q0 -1 -0.5 -3t-0.5 -4q0 -1 -0.5 -3t-0.5 -4v-2.5v-3.5v-1.5v-0.5
q0 -1 0.5 -1.5t0.5 -1.5q2 -9 8 -17t16 -16q10 -7 22.5 -11t28.5 -4q8 0 15.5 1t16.5 3q6 1 12.5 3.5t13.5 5.5q2 1 4.5 2.5t4.5 2.5q8 4 16 9t16 11t16 13t17 16v2v0zM243 528l182 181h47l86 -181h-39l-89 110l-147 -110h-40v0v0z" />
    <glyph glyph-name="atilde" unicode="&#xe3;" horiz-adv-x="504" 
d="M76 110q6 22 18 42t31 37t47 30.5t66 22.5l132 26q12 1 21.5 5.5t16.5 11.5q7 8 12 17t8 19q0 1 0.5 2t0.5 2q0 3 0.5 5.5t1.5 5.5v8v8q-1 16 -6.5 31t-16.5 28q-10 14 -26 21t-37 7h-1.5h-2.5h-2h-2q-9 0 -17 -1t-16 -4q-2 0 -4.5 -1t-5.5 -2q-10 -4 -20 -9t-21 -12
q-7 -4 -13.5 -9t-11.5 -10q-7 -5 -13.5 -11t-14.5 -12l-14 2l14 55q3 0 6 1.5t7 2.5q3 2 6.5 4t7.5 4q16 8 33.5 14.5t36.5 13.5q20 6 40.5 9.5t42.5 3.5q44 0 74.5 -9.5t46.5 -28.5t17.5 -51t-9.5 -76l-68 -250q-2 -10 -2 -15.5t3 -8.5t8 -4.5t11 -1.5h6t7 1q4 0 8 1l8 2
l-6 -21q-3 -4 -6.5 -6t-6.5 -4t-6.5 -3t-6.5 -2t-6.5 -1t-6.5 -1t-6.5 -1.5t-6.5 -0.5h-1.5t-1.5 -1h-1.5h-1.5h-1.5h-0.5h-1.5h-1.5q-15 0 -27.5 3.5t-23.5 10.5q-10 8 -14.5 19t-2.5 24q-4 -3 -7 -5t-5 -4q-4 -2 -7 -4l-6 -4q-22 -14 -41.5 -24t-37.5 -15q-19 -6 -36.5 -9
t-32.5 -3q-30 0 -52 8.5t-37 25.5q-15 18 -18.5 40.5t3.5 48.5v2v0zM366 102l36 134q-57 -7 -99.5 -16t-69.5 -23q-28 -13 -45.5 -32t-24.5 -45q0 -1 -0.5 -2.5t-0.5 -2.5q-1 -2 -1.5 -4.5t-0.5 -4.5q0 -1 -0.5 -3t-0.5 -4q0 -1 -0.5 -3t-0.5 -4v-2.5v-3.5v-1.5v-0.5
q0 -1 0.5 -1.5t0.5 -1.5q2 -9 8 -17t16 -16q10 -7 22.5 -11t28.5 -4q8 0 15.5 1t16.5 3q6 1 12.5 3.5t13.5 5.5q2 1 4.5 2.5t4.5 2.5q8 4 16 9t16 11t16 13t17 16v2v0zM232 543q6 15 14.5 28.5t19.5 24.5q6 6 11.5 11t11.5 9q6 5 11.5 8.5t11.5 6.5l4 2t5 2l4 2l4 2t4 1.5
t4 1.5q2 0 4 0.5t4 1.5h2t2 1h1h2h3.5h2.5h1.5h1.5q1 -1 2 -1h2h4.5h4.5q7 -1 13.5 -4t13.5 -6q3 -1 6.5 -3t6.5 -3q3 -2 6 -3.5t6 -3.5q4 -2 8 -4.5t8 -4.5q3 -2 7 -4l8 -4q8 -4 16 -5.5t16 -1.5t16.5 3t17.5 9t18 16.5t19 26.5l30 -6q-3 -6 -6 -11.5t-7 -11.5l-4 -6t-4 -5
q-2 -3 -4.5 -6t-4.5 -6q-9 -11 -20 -21.5t-24 -19.5t-27 -13.5t-29 -4.5q-12 0 -23 1.5t-20 5.5q-7 3 -13.5 6t-12.5 7l-4 2l-4 2q-7 5 -14 8.5t-14 7.5q-6 4 -12 6t-12 2q-9 0 -16.5 -2t-12.5 -5q-3 -1 -5.5 -3.5t-5.5 -4.5t-5.5 -5t-5.5 -6q-1 -1 -2 -2.5t-2 -2.5
q-1 -2 -2 -3t-2 -3q-1 -1 -2 -2.5t-2 -2.5l-3 -3t-2 -3l-31 2v0v0z" />
    <glyph glyph-name="adieresis" unicode="&#xe4;" horiz-adv-x="504" 
d="M76 110q6 22 18 42t31 37t47 30.5t66 22.5l132 26q12 1 21.5 5.5t16.5 11.5q7 8 12 17t8 19q0 1 0.5 2t0.5 2q0 3 0.5 5.5t1.5 5.5v8v8q-1 16 -6.5 31t-16.5 28q-10 14 -26 21t-37 7h-1.5h-2.5h-2h-2q-9 0 -17 -1t-16 -4q-2 0 -4.5 -1t-5.5 -2q-10 -4 -20 -9t-21 -12
q-7 -4 -13.5 -9t-11.5 -10q-7 -5 -13.5 -11t-14.5 -12l-14 2l14 55q3 0 6 1.5t7 2.5q3 2 6.5 4t7.5 4q16 8 33.5 14.5t36.5 13.5q20 6 40.5 9.5t42.5 3.5q44 0 74.5 -9.5t46.5 -28.5t17.5 -51t-9.5 -76l-68 -250q-2 -10 -2 -15.5t3 -8.5t8 -4.5t11 -1.5h6t7 1q4 0 8 1l8 2
l-6 -21q-3 -4 -6.5 -6t-6.5 -4t-6.5 -3t-6.5 -2t-6.5 -1t-6.5 -1t-6.5 -1.5t-6.5 -0.5h-1.5t-1.5 -1h-1.5h-1.5h-1.5h-0.5h-1.5h-1.5q-15 0 -27.5 3.5t-23.5 10.5q-10 8 -14.5 19t-2.5 24q-4 -3 -7 -5t-5 -4q-4 -2 -7 -4l-6 -4q-22 -14 -41.5 -24t-37.5 -15q-19 -6 -36.5 -9
t-32.5 -3q-30 0 -52 8.5t-37 25.5q-15 18 -18.5 40.5t3.5 48.5v2v0zM366 102l36 134q-57 -7 -99.5 -16t-69.5 -23q-28 -13 -45.5 -32t-24.5 -45q0 -1 -0.5 -2.5t-0.5 -2.5q-1 -2 -1.5 -4.5t-0.5 -4.5q0 -1 -0.5 -3t-0.5 -4q0 -1 -0.5 -3t-0.5 -4v-2.5v-3.5v-1.5v-0.5
q0 -1 0.5 -1.5t0.5 -1.5q2 -9 8 -17t16 -16q10 -7 22.5 -11t28.5 -4q8 0 15.5 1t16.5 3q6 1 12.5 3.5t13.5 5.5q2 1 4.5 2.5t4.5 2.5q8 4 16 9t16 11t16 13t17 16v2v0zM268 591q0 -1 0 -0.5v1.5q1 1 1 1.5v1.5q2 11 8 19.5t15 14.5q5 3 9.5 5.5t9.5 3.5q4 2 9 3t9 1v0h1v0v0
h0.5h1.5q10 0 18 -2.5t15 -8.5t8.5 -15t-1.5 -20q-3 -13 -10 -23.5t-16 -16.5q-10 -7 -19.5 -10t-18.5 -3h-1.5h-0.5v0v0h-1v0q-9 0 -16 3t-13 9q-5 6 -7 14.5t-1 19.5v2v0zM467 598q4 10 10.5 18t16.5 14q5 3 9 5.5t9 3.5q4 2 8.5 3t8.5 1v0h1v0v0h0.5h1.5q9 0 17 -3t14 -9
t7.5 -14.5t-2.5 -20.5q-3 -13 -10 -23t-16 -16q-4 -3 -9 -5.5l-9 -4.5q-5 -1 -9.5 -2t-9.5 -1q-10 -1 -18.5 2t-14.5 10q-7 7 -8 17t2 23l1 2v0z" />
    <glyph glyph-name="aring" unicode="&#xe5;" horiz-adv-x="504" 
d="M76 110q6 22 18 42t31 37t47 30.5t66 22.5l132 26q12 1 21.5 5.5t16.5 11.5q7 8 12 17t8 19q0 1 0.5 2t0.5 2q0 3 0.5 5.5t1.5 5.5v8v8q-1 16 -6.5 31t-16.5 28q-10 14 -26 21t-37 7h-1.5h-2.5h-2h-2q-9 0 -17 -1t-16 -4q-2 0 -4.5 -1t-5.5 -2q-10 -4 -20 -9t-21 -12
q-7 -4 -13.5 -9t-11.5 -10q-7 -5 -13.5 -11t-14.5 -12l-14 2l14 55q3 0 6 1.5t7 2.5q3 2 6.5 4t7.5 4q16 8 33.5 14.5t36.5 13.5q20 6 40.5 9.5t42.5 3.5q44 0 74.5 -9.5t46.5 -28.5t17.5 -51t-9.5 -76l-68 -250q-2 -10 -2 -15.5t3 -8.5t8 -4.5t11 -1.5h6t7 1q4 0 8 1l8 2
l-6 -21q-3 -4 -6.5 -6t-6.5 -4t-6.5 -3t-6.5 -2t-6.5 -1t-6.5 -1t-6.5 -1.5t-6.5 -0.5h-1.5t-1.5 -1h-1.5h-1.5h-1.5h-0.5h-1.5h-1.5q-15 0 -27.5 3.5t-23.5 10.5q-10 8 -14.5 19t-2.5 24q-4 -3 -7 -5t-5 -4q-4 -2 -7 -4l-6 -4q-22 -14 -41.5 -24t-37.5 -15q-19 -6 -36.5 -9
t-32.5 -3q-30 0 -52 8.5t-37 25.5q-15 18 -18.5 40.5t3.5 48.5v2v0zM366 102l36 134q-57 -7 -99.5 -16t-69.5 -23q-28 -13 -45.5 -32t-24.5 -45q0 -1 -0.5 -2.5t-0.5 -2.5q-1 -2 -1.5 -4.5t-0.5 -4.5q0 -1 -0.5 -3t-0.5 -4q0 -1 -0.5 -3t-0.5 -4v-2.5v-3.5v-1.5v-0.5
q0 -1 0.5 -1.5t0.5 -1.5q2 -9 8 -17t16 -16q10 -7 22.5 -11t28.5 -4q8 0 15.5 1t16.5 3q6 1 12.5 3.5t13.5 5.5q2 1 4.5 2.5t4.5 2.5q8 4 16 9t16 11t16 13t17 16v2v0zM318 630q1 2 2 5t3 7q1 4 3 8t5 8q8 15 21 28.5t30 26.5q17 12 36 18.5t40 6.5q20 -2 34 -8t22 -17
q8 -10 13.5 -21.5t6.5 -23.5v-11t-1 -10q0 -2 -0.5 -3.5t-0.5 -3.5q0 -3 -0.5 -6t-1.5 -6q0 -1 -0.5 -1.5t-0.5 -1.5q-1 -1 -1.5 -2.5t-0.5 -3.5q0 -1 -0.5 -2.5t-1.5 -2.5t-1.5 -2t-0.5 -2q-7 -16 -19 -30.5t-29 -27.5t-35.5 -19.5t-38.5 -6.5q-21 0 -37 6.5t-27 19.5
q-12 13 -17.5 27.5t-4.5 30.5v4t1 5q0 2 0.5 4.5t1.5 4.5v2v0zM365 630q-2 -15 -0.5 -25.5t8.5 -17.5q6 -7 14.5 -11t18.5 -4v0h1v0v0h0.5h1.5q11 0 22.5 3.5t22.5 10.5t18 17.5t11 24.5q4 15 2.5 26.5t-8.5 19.5t-15.5 12t-19.5 4q-5 0 -10.5 -1t-10.5 -3q-6 -2 -11.5 -4.5
t-10.5 -6.5q-11 -7 -19.5 -19t-14.5 -28v2v0z" />
    <glyph glyph-name="ae" unicode="&#xe6;" horiz-adv-x="780" 
d="M55 118q10 34 28 58.5t46 37.5q28 14 56.5 23t58.5 14q4 1 8.5 1.5t9.5 0.5q2 1 4.5 1.5t4.5 0.5q3 0 6.5 0.5t6.5 1.5q3 0 6.5 0.5t6.5 1.5q17 2 32 4.5t29 5.5t24.5 8t17.5 12l4 8t3 8q2 4 3.5 8t2.5 8v1.5t1 1.5v0.5v1.5t0.5 1.5t0.5 1.5t0.5 1.5t0.5 1.5
q4 20 0.5 38.5t-12.5 34.5q-9 17 -27.5 25.5t-46.5 8.5q-4 0 -8.5 -0.5t-9.5 -1.5q-2 0 -4.5 -0.5t-4.5 -0.5q-3 -1 -5.5 -1.5t-4.5 -0.5q-16 -4 -31.5 -10.5t-30.5 -15.5q-16 -9 -27 -19t-19 -21l-15 2l14 55q9 7 18.5 13.5t20.5 12.5q5 3 10 5.5t10 4.5l10 4l10 4
q15 5 29 9t26 5q13 2 23 2.5t17 0.5q26 0 49.5 -5.5t43.5 -16.5q20 -10 31.5 -24.5t12.5 -32.5q12 14 24.5 24.5t26.5 18.5t27.5 14.5t27.5 10.5q10 3 19.5 5t18.5 3q10 2 18.5 2.5t15.5 0.5q56 0 91 -16.5t50 -49.5q16 -33 18 -69.5t-8 -76.5q0 -2 -1 -3.5t-1 -3.5
q-1 -3 -2 -6.5t-2 -6.5q-1 -5 -3.5 -10t-4.5 -10l-345 2q0 -2 -0.5 -2.5t-0.5 -1.5t-0.5 -1.5l-0.5 -0.5v-2v-1q-1 -1 -1.5 -2t-0.5 -2q-1 -1 -1 -1.5v-1.5q-10 -37 -6.5 -69t20.5 -59q17 -28 43 -41.5t60 -13.5q23 0 43.5 3t38.5 9t33 13t28 14q3 2 5.5 3.5t4.5 3.5
q3 1 5 3t4 3q2 2 3.5 3t2.5 3q1 0 1.5 0.5l0.5 0.5l2 2l2 2l-13 -45q-10 -11 -23 -19.5t-30 -16.5q-11 -5 -22 -8.5t-22 -6.5q-6 -2 -11 -3t-11 -1q-3 -1 -5.5 -1.5t-5.5 -0.5q-6 -1 -11.5 -2t-10.5 -2q-2 0 -5 -0.5t-5 -0.5q-5 0 -10 -0.5t-10 -0.5q-37 0 -65 5.5t-48 17.5
q-19 12 -33 26t-22 29q-3 4 -5 7.5t-4 7.5t-3.5 7.5t-2.5 7.5q-17 -29 -40.5 -51t-53.5 -37q-30 -13 -60 -20.5t-59 -7.5h-2h-2q-2 1 -3 1h-2h-4.5h-4.5q-22 4 -40.5 13.5t-33.5 26.5q-14 17 -18.5 37.5t1.5 42.5v1.5t1 1.5l0.5 1t1.5 2v0.5v1.5v0.5t1 1.5v0.5v0.5v2v0z
M388 244q-3 -2 -6 -3l-6 -2t-6.5 -1.5t-6.5 -1.5t-6.5 -1.5t-6.5 -0.5q-4 -1 -7.5 -1.5t-6.5 -1.5q-3 0 -6 -0.5t-6 -1.5q-2 0 -3 -0.5t-3 -0.5q-3 -1 -6 -1.5t-6 -1.5h-3h-3q-25 -5 -48 -12.5t-46 -18.5q-22 -10 -37.5 -29t-22.5 -45q-1 -2 -1.5 -4t-0.5 -4q-1 -3 -1.5 -5
t-0.5 -4q-1 -4 -1.5 -8.5t0.5 -9.5q-1 -11 4.5 -20t17.5 -17q11 -7 26 -10.5t31 -3.5h1.5h1.5h0.5h1.5h3.5h2.5q12 1 24.5 5t25.5 10q6 4 12.5 8t12.5 8q19 14 33.5 36.5t24.5 53.5l24 89v0v0zM744 283q9 31 8.5 59.5t-8.5 53.5q-8 26 -28.5 38.5t-52.5 12.5t-59.5 -12.5
t-50.5 -38.5q-23 -25 -40 -54t-29 -61l260 2v0v0z" />
    <glyph glyph-name="ccedilla" unicode="&#xe7;" horiz-adv-x="504" 
d="M98 252q16 52 41.5 91.5t59.5 66.5q23 18 46 32t46 24q11 5 23 9t23 7t22.5 5.5t21.5 3.5q11 2 21.5 2.5t20.5 0.5h10t11 -1q5 0 10 -0.5t10 -0.5q5 -1 10 -1.5t10 -1.5l10 -2l10 -2q10 -3 19 -6t18 -8q9 -4 18 -10t18 -14l-43 -69h-16q1 1 0.5 5t-1.5 8q-1 2 -2 4.5
t-3 5.5q-1 2 -2 4.5t-3 4.5q-6 8 -15.5 16t-20.5 15q-13 7 -27 10.5t-31 3.5q-42 -1 -77.5 -18.5t-65.5 -49.5q-29 -32 -49 -67.5t-31 -74.5v-1.5v-1.5q-1 -1 -1 -2v-1q-10 -39 -7.5 -74.5t16.5 -67.5q14 -33 43 -49.5t74 -18.5q8 0 18.5 2t23.5 6t26.5 10t29.5 13
q8 4 16 8.5t16 9.5q7 5 15 10.5t16 11.5l6 -6l-21 -47q-14 -12 -30.5 -21t-35.5 -16q-9 -4 -18 -6.5t-18 -4.5q-10 -2 -19 -4t-18 -3h-4t-4 -1h-4h-4h-4t-3 -1h-4h-4h-4h-3q-2 1 -3.5 1h-3.5h-2.5h-3.5q-1 1 -2.5 1h-3.5l-36 -47q3 1 7.5 2t8.5 2t8 1h8h3.5h2.5h3.5t2.5 -1
q13 -2 24.5 -6.5t21.5 -12.5t13 -20t-1 -27v-0.5v-1.5v0v-1q-1 0 -1 -0.5v-1.5h-0.5t-0.5 -1l-0.5 -0.5l-0.5 -0.5v-0.5v-1.5q-10 -24 -24.5 -40t-34.5 -24q-19 -8 -38.5 -12.5t-39.5 -5.5h-1.5h-0.5h-1.5h-0.5q-12 0 -23.5 0.5t-22.5 2.5q-11 1 -20 3.5t-17 4.5l18 40
q10 -2 18.5 -4.5t15.5 -3.5q8 -2 14.5 -2.5t13.5 -0.5q15 0 27.5 3t19.5 8q8 5 13 11t8 13v1.5t1 1.5v1.5v0.5q1 7 -1.5 13.5t-7.5 12.5t-12.5 8.5t-17.5 2.5h-1.5h-0.5h-1.5h-1.5h-2t-2 -1h-2.5h-3.5h-1.5t-0.5 -1q-1 0 -1.5 -0.5t-1.5 -0.5l-21 7l60 79q-55 16 -88.5 40
t-47.5 55q-13 32 -12.5 72.5t13.5 90.5v2v0z" />
    <glyph glyph-name="egrave" unicode="&#xe8;" horiz-adv-x="504" 
d="M89 220q17 64 47 112.5t72 80.5q43 32 88 48.5t92 16.5q42 0 72 -10.5t47 -30.5q17 -21 27 -43.5t12 -47.5q1 -10 1 -20.5t-2 -21.5q0 -3 -0.5 -6.5t-1.5 -6.5q-1 -7 -1.5 -12.5t-2.5 -11.5q-1 -5 -2.5 -9.5t-3.5 -8.5q-1 -4 -2.5 -8t-3.5 -7l-338 2q-12 -46 -12.5 -82
t9.5 -63q11 -27 42 -40.5t81 -13.5q20 0 40.5 4t42.5 13q22 8 41 19.5t35 26.5l-7 -53q0 -1 -0.5 -1.5t-0.5 -1.5q-1 0 -1.5 -0.5l-0.5 -0.5h-0.5h-0.5l-1 -1v0q-2 -1 -3.5 -2t-3.5 -2t-3.5 -2t-3.5 -2q-19 -10 -37.5 -19t-38.5 -15q-20 -8 -46 -12t-57 -4
q-61 3 -100.5 21.5t-56.5 53.5q-18 35 -22 75t5 84v2v0zM459 276q1 1 1.5 3.5t1.5 5.5q0 2 0.5 3t0.5 3q0 1 0.5 2.5t0.5 2.5q6 27 5 51.5t-9 46.5q-7 23 -27.5 34t-55.5 11q-26 0 -49.5 -9.5t-44.5 -27.5q-21 -19 -37 -39t-28 -43q-4 -6 -7 -12t-5 -12t-3.5 -11.5
t-3.5 -10.5l260 2v0v0zM442 535l-130 103q-2 1 -4.5 2.5t-4.5 3.5q-1 1 -1.5 2t-0.5 2q-1 1 -1.5 2t-1.5 2q-1 2 -1.5 3.5t-1.5 3.5v2t1 2v2v2q2 7 7 13t14 11q8 5 16.5 7.5t16.5 2.5h3.5t3.5 -1q2 0 3.5 -0.5t3.5 -1.5q1 -1 2.5 -1.5t2.5 -1.5t2.5 -2t2.5 -2l115 -156h-47
v0v0z" />
    <glyph glyph-name="eacute" unicode="&#xe9;" horiz-adv-x="504" 
d="M92 228q17 64 46.5 112.5t72.5 80.5q42 32 87 48.5t92 16.5q42 0 72 -10.5t47 -30.5q17 -21 27 -43.5t13 -47.5v-20.5t-2 -21.5q-1 -10 -2.5 -19.5t-3.5 -17.5q0 -3 -1 -5t-1 -5l-2 -4t-1 -4q-1 -4 -2.5 -8t-3.5 -7l-339 2q-12 -46 -12.5 -82t9.5 -63q11 -27 42 -40.5
t81 -13.5q20 0 40.5 4t42.5 13q22 8 41 19.5t35 26.5l-7 -53q0 -1 -0.5 -1.5t-0.5 -1.5q-1 0 -1.5 -0.5l-0.5 -0.5h-0.5h-0.5l-1 -1v0q-1 -1 -2 -1.5l-1 -0.5q-1 -1 -2 -1.5t-2 -0.5q-1 -1 -2 -1.5l-1 -0.5q-1 -1 -2 -1.5t-2 -0.5q-19 -10 -38 -19t-39 -17q-19 -6 -45 -10
t-57 -4q-61 3 -100.5 21.5t-56.5 53.5q-18 35 -21.5 75t4.5 84l1 2v0zM461 283q1 1 1.5 3t1.5 5q0 1 0.5 2t0.5 3v2.5v2.5q6 27 5.5 52.5t-7.5 47.5q-7 23 -27.5 34.5t-55.5 11.5q-26 0 -50 -9.5t-46 -28.5t-38 -39.5t-27 -43.5l-6 -12t-5 -11q-2 -6 -3.5 -11.5t-3.5 -10.5
l260 2v0v0zM308 535l172 142q5 3 9.5 6t9.5 6t10.5 5t10.5 3q2 1 4 1.5t4 0.5h2t3 1h2h2q8 0 14.5 -2t10.5 -6q5 -4 7 -9t0 -11q-1 -4 -4.5 -9.5t-8.5 -11.5q-3 -3 -6.5 -6t-7.5 -5q-5 -3 -9.5 -6t-10.5 -6l-174 -93h-40v0v0z" />
    <glyph glyph-name="ecircumflex" unicode="&#xea;" horiz-adv-x="504" 
d="M92 228q17 64 46.5 112.5t72.5 80.5q42 32 87 48.5t92 16.5q42 0 72 -10.5t47 -30.5q17 -21 27 -43.5t13 -47.5v-20.5t-2 -21.5q-1 -10 -2.5 -19.5t-3.5 -17.5q0 -3 -1 -5t-1 -5l-2 -4t-1 -4q-1 -4 -2.5 -8t-3.5 -7l-339 2q-12 -46 -12.5 -82t9.5 -63q11 -27 42 -40.5
t81 -13.5q20 0 40.5 4t42.5 13q22 8 41 19.5t35 26.5l-7 -53q0 -1 -0.5 -1.5t-0.5 -1.5q-1 0 -1.5 -0.5l-0.5 -0.5h-0.5h-0.5l-1 -1v0q-1 -1 -2 -1.5l-1 -0.5q-1 -1 -2 -1.5t-2 -0.5q-1 -1 -2 -1.5l-1 -0.5q-1 -1 -2 -1.5t-2 -0.5q-19 -10 -38 -19t-39 -17q-19 -6 -45 -10
t-57 -4q-61 3 -100.5 21.5t-56.5 53.5q-18 35 -21.5 75t4.5 84l1 2v0zM461 283q1 1 1.5 3t1.5 5q0 1 0.5 2t0.5 3v2.5v2.5q6 27 5.5 52.5t-7.5 47.5q-7 23 -27.5 34.5t-55.5 11.5q-26 0 -50 -9.5t-46 -28.5t-38 -39.5t-27 -43.5l-6 -12t-5 -11q-2 -6 -3.5 -11.5t-3.5 -10.5
l260 2v0v0zM243 528l182 181h47l86 -181h-39l-89 110l-147 -110h-40v0v0z" />
    <glyph glyph-name="edieresis" unicode="&#xeb;" horiz-adv-x="504" 
d="M92 228q17 64 46.5 112.5t72.5 80.5q42 32 87 48.5t92 16.5q42 0 72 -10.5t47 -30.5q17 -21 27 -43.5t13 -47.5v-20.5t-2 -21.5q-1 -10 -2.5 -19.5t-3.5 -17.5q0 -3 -1 -5t-1 -5l-2 -4t-1 -4q-1 -4 -2.5 -8t-3.5 -7l-339 2q-12 -46 -12.5 -82t9.5 -63q11 -27 42 -40.5
t81 -13.5q20 0 40.5 4t42.5 13q22 8 41 19.5t35 26.5l-7 -53q0 -1 -0.5 -1.5t-0.5 -1.5q-1 0 -1.5 -0.5l-0.5 -0.5h-0.5h-0.5l-1 -1v0q-1 -1 -2 -1.5l-1 -0.5q-1 -1 -2 -1.5t-2 -0.5q-1 -1 -2 -1.5l-1 -0.5q-1 -1 -2 -1.5t-2 -0.5q-19 -10 -38 -19t-39 -17q-19 -6 -45 -10
t-57 -4q-61 3 -100.5 21.5t-56.5 53.5q-18 35 -21.5 75t4.5 84l1 2v0zM461 283q1 1 1.5 3t1.5 5q0 1 0.5 2t0.5 3v2.5v2.5q6 27 5.5 52.5t-7.5 47.5q-7 23 -27.5 34.5t-55.5 11.5q-26 0 -50 -9.5t-46 -28.5t-38 -39.5t-27 -43.5l-6 -12t-5 -11q-2 -6 -3.5 -11.5t-3.5 -10.5
l260 2v0v0zM268 591q0 -1 0 -0.5v1.5q1 1 1 1.5v1.5q2 11 8 19.5t15 14.5q5 3 9.5 5.5t9.5 3.5q4 2 9 3t9 1v0h1v0v0h0.5h1.5q10 0 18 -2.5t15 -8.5t8.5 -15t-1.5 -20q-3 -13 -10 -23.5t-16 -16.5q-10 -7 -19.5 -10t-18.5 -3h-1.5h-0.5v0v0h-1v0q-9 0 -16 3t-13 9
q-5 6 -7 14.5t-1 19.5v2v0zM467 598q4 10 10.5 18t16.5 14q5 3 9 5.5t9 3.5q4 2 8.5 3t8.5 1v0h1v0v0h0.5h1.5q9 0 17 -3t14 -9t7.5 -14.5t-2.5 -20.5q-3 -13 -10 -23t-16 -16q-4 -3 -9 -5.5l-9 -4.5q-5 -1 -9.5 -2t-9.5 -1q-10 -1 -18.5 2t-14.5 10q-7 7 -8 17t2 23l1 2v0z
" />
    <glyph glyph-name="igrave" unicode="&#xec;" 
d="M222 480q2 -2 3 -2.5l3 -1.5q1 -1 2.5 -1.5t2.5 -0.5q3 -1 6.5 -1h7.5q1 -1 2.5 -1h2.5h2h2h1h2h10.5t11.5 1q5 1 10 2.5t10 2.5l-128 -478q-3 0 -7 0.5t-9 1.5q-4 1 -9 1.5t-10 0.5h-1.5h-0.5h-1.5h-1.5h-2h-2q-2 0 -4.5 -0.5t-4.5 -0.5q-3 -1 -5.5 -1.5t-4.5 -0.5
q-4 -1 -8.5 -1h-7.5l128 480v0v0zM340 535l-131 103q-2 1 -4.5 2.5t-4.5 3.5q-1 1 -1.5 2t-0.5 2q-1 1 -1.5 2t-1.5 2q-1 2 -1.5 3.5t-0.5 3.5v2t1 2v2v2q2 7 6.5 13t12.5 10q7 5 15 7.5t17 3.5v0h1v0v0h0.5h1.5h3.5t3.5 -1q2 0 3.5 -0.5t3.5 -1.5q1 -1 2.5 -1.5t2.5 -1.5
t2.5 -2t2.5 -2l115 -156h-47v0v0z" />
    <glyph glyph-name="iacute" unicode="&#xed;" 
d="M222 480q2 -2 3 -2.5l3 -1.5q1 -1 2.5 -1.5t2.5 -0.5q3 -1 6.5 -1h7.5q1 -1 2.5 -1h2.5h2h2h1h2h10.5t11.5 1q5 1 10 2.5t10 2.5l-128 -478q-3 0 -7 0.5t-9 1.5q-4 1 -9 1.5t-10 0.5h-1.5h-0.5h-1.5h-1.5h-2h-2q-2 0 -4.5 -0.5t-4.5 -0.5q-3 -1 -5.5 -1.5t-4.5 -0.5
q-4 -1 -8.5 -1h-7.5l128 480v0v0zM245 535l172 142q5 3 9.5 6t9.5 6t10.5 5t10.5 3q2 1 4 1.5t4 0.5h2t3 1h2h2q8 0 14.5 -2t10.5 -6q5 -4 7 -9t0 -11q-1 -4 -4.5 -9.5t-8.5 -11.5q-3 -3 -6.5 -6t-7.5 -5q-5 -3 -9.5 -6t-10.5 -6l-174 -93h-40v0v0z" />
    <glyph glyph-name="icircumflex" unicode="&#xee;" 
d="M222 480q2 -2 3 -2.5l3 -1.5q1 -1 2.5 -1.5t2.5 -0.5q3 -1 6.5 -1h7.5q1 -1 2.5 -1h2.5h2h2h1h2h10.5t11.5 1q5 1 10 2.5t10 2.5l-128 -478q-3 0 -7 0.5t-9 1.5q-4 1 -9 1.5t-10 0.5h-1.5h-0.5h-1.5h-1.5h-2h-2q-2 0 -4.5 -0.5t-4.5 -0.5q-3 -1 -5.5 -1.5t-4.5 -0.5
q-4 -1 -8.5 -1h-7.5l128 480v0v0zM127 535l183 182h47l85 -182h-39l-88 111l-148 -111h-40v0v0z" />
    <glyph glyph-name="idieresis" unicode="&#xef;" 
d="M222 480q2 -2 3 -2.5l3 -1.5q1 -1 2.5 -1.5t2.5 -0.5q3 -1 6.5 -1h7.5q1 -1 2.5 -1h2.5h2h2h1h2h10.5t11.5 1q5 1 10 2.5t10 2.5l-128 -478q-3 0 -7 0.5t-9 1.5q-4 1 -9 1.5t-10 0.5h-1.5h-0.5h-1.5h-1.5h-2h-2q-2 0 -4.5 -0.5t-4.5 -0.5q-3 -1 -5.5 -1.5t-4.5 -0.5
q-4 -1 -8.5 -1h-7.5l128 480v0v0zM144 598q1 -1 1 -0.5v1.5q1 1 1 1.5v1.5q3 11 8.5 20t14.5 15t18 9t18 4v0h1v0v0h0.5h1.5q10 0 18 -2.5t15 -8.5t9 -15t-1 -20q-4 -13 -11 -23.5t-16 -17.5q-10 -7 -19.5 -10t-18.5 -3h-1.5h-0.5v0v0h-1v0q-9 0 -16 3t-13 9q-5 6 -7 14.5
t-1 19.5v2v0zM343 606q5 10 11.5 18t15.5 14q5 3 9 5.5t9 3.5q4 2 8.5 3t8.5 1v0h1v0v0h0.5h1.5q9 0 17 -3t14 -9t7.5 -14.5t-1.5 -20.5q-4 -13 -11 -23t-16 -17q-10 -7 -19.5 -10t-18.5 -3q-10 -1 -18 2t-14 10q-7 7 -8 17.5t3 23.5v2v0z" />
    <glyph glyph-name="eth" unicode="&#xf0;" horiz-adv-x="559" 
 />
    <glyph glyph-name="ntilde" unicode="&#xf1;" horiz-adv-x="559" 
d="M79 0l130 488q3 -2 7 -3.5t8 -2.5q2 0 4 -0.5t5 -0.5q2 -1 4 -1h4h2h2h2h2h4h4q4 0 8 0.5t8 0.5q6 1 11.5 2.5t10.5 2.5l-23 -84q4 2 8.5 6.5l9.5 9.5t10.5 10t12.5 11q13 10 28 19t34 18t41 13.5t47 4.5v0h1v0v0h0.5h1.5q29 -1 52.5 -13t40.5 -35q18 -23 19.5 -62
t-13.5 -95l-77 -289h-4t-4 1q-3 0 -5 0.5t-4 0.5q-2 1 -5.5 1t-6.5 1h-2.5h-3.5q-5 0 -11 -0.5t-13 -1.5q-6 -1 -12.5 -1.5t-14.5 -0.5l77 291q10 34 8 60.5t-14 44.5q-13 18 -30 27t-38 9h-1.5h-1.5h-1.5h-1.5q-23 -1 -46.5 -12t-46.5 -31q-24 -19 -40.5 -48t-27.5 -67
l-73 -274q-6 0 -11.5 0.5t-10.5 1.5q-2 0 -4.5 0.5t-4.5 0.5q-3 1 -5.5 1h-4.5q-5 0 -10.5 -0.5t-11.5 -1.5q-3 0 -6 -0.5t-5 -0.5q-3 -1 -6 -1h-6v0v0zM269 567q6 16 15 29.5t21 24.5q11 11 22.5 19.5t23.5 14.5q2 1 4.5 2t4.5 2q2 0 4 1l4 2t4 1.5t4 1.5q1 0 3 0.5t4 1.5
h2t2 1h1h2h3.5h3.5q5 0 9.5 -0.5t9.5 -2.5q5 -1 10 -2.5t10 -3.5q2 -1 3.5 -2t3.5 -1q2 -1 3.5 -2t3.5 -2q3 -1 5.5 -2.5t4.5 -3.5q1 0 2.5 -0.5t2.5 -1.5q4 -2 8 -4.5t8 -4.5q3 -2 7 -4l8 -4l10 -4t10 -2q2 -1 5 -1h5q8 0 16.5 3t17.5 9t18.5 16.5t19.5 26.5l30 -6
q-3 -5 -6 -10.5t-7 -11.5l-8 -12t-9 -12q-10 -11 -21 -21t-24 -19t-27 -13.5t-29 -4.5q-12 0 -22.5 1.5t-20.5 5.5t-17.5 8.5t-14.5 8.5q-8 4 -15.5 7.5t-13.5 7.5q-4 3 -8 4.5t-8 2.5q-2 1 -4 1h-4q-10 0 -18 -2t-13 -5q-5 -4 -11 -9t-12 -12q-1 -1 -2 -2.5t-2 -3.5
q-1 -1 -1 -1.5t-1 -1.5t-2 -2.5t-2 -2.5q-1 -2 -2 -3l-2 -2l-32 2v0v0z" />
    <glyph glyph-name="ograve" unicode="&#xf2;" horiz-adv-x="559" 
d="M82 220q16 58 46 106t76 85q45 38 97.5 56.5t111.5 18.5q44 0 75.5 -11t50.5 -32t31 -44t17 -49q2 -17 3 -33.5t0 -32.5t-3 -28.5t-5 -21.5q-2 -9 -5 -18.5t-8 -19.5q-4 -10 -9 -19.5t-10 -19.5q-19 -31 -45.5 -60t-61.5 -55q-35 -25 -78 -37.5t-93 -12.5h-4h-4h-2h-1h-2
h-2q-56 0 -95 16t-61 49t-27 73.5t8 87.5v2v0zM175 213q-2 -8 -4 -18t-4 -22q-1 -12 -1.5 -24.5t1.5 -26.5q2 -18 9 -35t19 -32q11 -15 31 -23t48 -10q32 0 62.5 13t59.5 40q28 26 51 66t40 93q13 47 14.5 85.5t-8.5 68.5q-10 29 -34.5 44t-62.5 15q-37 0 -70.5 -15.5
t-61.5 -47.5q-29 -31 -49.5 -65.5t-31.5 -72.5q-1 -2 -1.5 -4t-0.5 -4q-1 -1 -1.5 -2.5t-0.5 -3.5q0 -1 -0.5 -2.5t-0.5 -2.5l-1.5 -3t-0.5 -3q-1 -3 -1.5 -5.5t-0.5 -4.5l1 2v0zM466 535l-131 103q-2 1 -4.5 2.5t-4.5 3.5q-1 1 -1.5 2t-0.5 2q-1 1 -1.5 2t-1.5 2
q-1 2 -1.5 3.5t-0.5 3.5v2t1 2v2v2q2 7 6.5 13t12.5 10q7 5 15 7.5t17 3.5v0h1v0v0h0.5h1.5h3.5t3.5 -1q2 0 3.5 -0.5t3.5 -1.5q1 -1 2.5 -1.5t2.5 -1.5t2.5 -2t2.5 -2l115 -156h-47v0v0z" />
    <glyph glyph-name="oacute" unicode="&#xf3;" horiz-adv-x="559" 
d="M82 220q16 58 46 106t76 85q45 38 97.5 56.5t111.5 18.5q44 0 75.5 -11t50.5 -32t31 -44t17 -49q2 -17 3 -33.5t0 -32.5t-3 -28.5t-5 -21.5q-2 -9 -5 -18.5t-8 -19.5q-4 -10 -9 -19.5t-10 -19.5q-19 -31 -45.5 -60t-61.5 -55q-35 -25 -78 -37.5t-93 -12.5h-4h-4h-2h-1h-2
h-2q-56 0 -95 16t-61 49t-27 73.5t8 87.5v2v0zM175 213q-2 -8 -4 -18t-4 -22q-1 -12 -1.5 -24.5t1.5 -26.5q2 -18 9 -35t19 -32q11 -15 31 -23t48 -10q32 0 62.5 13t59.5 40q28 26 51 66t40 93q13 47 14.5 85.5t-8.5 68.5q-10 29 -34.5 44t-62.5 15q-37 0 -70.5 -15.5
t-61.5 -47.5q-29 -31 -49.5 -65.5t-31.5 -72.5q-1 -2 -1.5 -4t-0.5 -4q-1 -1 -1.5 -2.5t-0.5 -3.5q0 -1 -0.5 -2.5t-0.5 -2.5l-1.5 -3t-0.5 -3q-1 -3 -1.5 -5.5t-0.5 -4.5l1 2v0zM291 528l171 141q4 2 8.5 5t9.5 6t10 5.5t9 3.5q2 0 5 0.5t6 1.5h2t3 1h2.5h2.5q8 0 14 -2
t11 -6t6.5 -9t0.5 -11q-1 -4 -5 -9.5t-9 -11.5l-6 -6t-7 -5q-5 -3 -9.5 -6t-10.5 -6l-175 -92h-39v0v0z" />
    <glyph glyph-name="ocircumflex" unicode="&#xf4;" horiz-adv-x="559" 
d="M82 220q16 58 46 106t76 85q45 38 97.5 56.5t111.5 18.5q44 0 75.5 -11t50.5 -32t31 -44t17 -49q2 -17 3 -33.5t0 -32.5t-3 -28.5t-5 -21.5q-2 -9 -5 -18.5t-8 -19.5q-4 -10 -9 -19.5t-10 -19.5q-19 -31 -45.5 -60t-61.5 -55q-35 -25 -78 -37.5t-93 -12.5h-4h-4h-2h-1h-2
h-2q-56 0 -95 16t-61 49t-27 73.5t8 87.5v2v0zM175 213q-2 -8 -4 -18t-4 -22q-1 -12 -1.5 -24.5t1.5 -26.5q2 -18 9 -35t19 -32q11 -15 31 -23t48 -10q32 0 62.5 13t59.5 40q28 26 51 66t40 93q13 47 14.5 85.5t-8.5 68.5q-10 29 -34.5 44t-62.5 15q-37 0 -70.5 -15.5
t-61.5 -47.5q-29 -31 -49.5 -65.5t-31.5 -72.5q-1 -2 -1.5 -4t-0.5 -4q-1 -1 -1.5 -2.5t-0.5 -3.5q0 -1 -0.5 -2.5t-0.5 -2.5l-1.5 -3t-0.5 -3q-1 -3 -1.5 -5.5t-0.5 -4.5l1 2v0zM259 528l182 181h47l86 -181h-39l-89 110l-148 -110h-39v0v0z" />
    <glyph glyph-name="otilde" unicode="&#xf5;" horiz-adv-x="559" 
d="M82 220q16 58 46 106t76 85q45 38 97.5 56.5t111.5 18.5q44 0 75.5 -11t50.5 -32t31 -44t17 -49q2 -17 3 -33.5t0 -32.5t-3 -28.5t-5 -21.5q-2 -9 -5 -18.5t-8 -19.5q-4 -10 -9 -19.5t-10 -19.5q-19 -31 -45.5 -60t-61.5 -55q-35 -25 -78 -37.5t-93 -12.5h-4h-4h-2h-1h-2
h-2q-56 0 -95 16t-61 49t-27 73.5t8 87.5v2v0zM175 213q-2 -8 -4 -18t-4 -22q-1 -12 -1.5 -24.5t1.5 -26.5q2 -18 9 -35t19 -32q11 -15 31 -23t48 -10q32 0 62.5 13t59.5 40q28 26 51 66t40 93q13 47 14.5 85.5t-8.5 68.5q-10 29 -34.5 44t-62.5 15q-37 0 -70.5 -15.5
t-61.5 -47.5q-29 -31 -49.5 -65.5t-31.5 -72.5q-1 -2 -1.5 -4t-0.5 -4q-1 -1 -1.5 -2.5t-0.5 -3.5q0 -1 -0.5 -2.5t-0.5 -2.5l-1.5 -3t-0.5 -3q-1 -3 -1.5 -5.5t-0.5 -4.5l1 2v0zM271 543q6 16 15 29.5t21 24.5q11 11 22.5 20t23.5 15l4 2t5 2q2 0 4 1l4 2t4 1.5t4 1.5
q1 0 3 0.5t4 1.5h2t2 1h1h2h3.5h2.5h3.5h2.5q2 -1 3.5 -1h3.5q4 -1 7.5 -1.5t7.5 -2.5q3 -1 5.5 -2t4.5 -2t4.5 -2t5.5 -2q2 -1 4.5 -2.5t4.5 -2.5q2 -2 4.5 -3t5.5 -3q4 -2 8 -4.5t8 -4.5q3 -2 7 -4l8 -4q8 -4 16 -5.5t16 -1.5t16.5 3t17.5 9t18 16.5t19 26.5l31 -6
q-3 -6 -6 -11.5t-7 -11.5l-4 -6t-4 -5q-2 -3 -4.5 -6t-4.5 -6q-9 -11 -20.5 -21.5t-24.5 -19.5t-27 -13.5t-29 -4.5q-12 0 -23 1.5t-20 5.5q-10 4 -17.5 8.5t-15.5 8.5q-7 5 -14.5 8.5t-14.5 7.5q-3 2 -6 3.5l-5 2.5q-3 1 -6 1.5t-6 0.5q-9 0 -17 -2t-13 -5t-11 -8t-12 -12
q-1 -2 -3.5 -4.5t-4.5 -5.5q-1 -1 -2 -2.5t-2 -2.5q-1 -2 -2 -3t-2 -3l-31 2v0v0z" />
    <glyph glyph-name="odieresis" unicode="&#xf6;" horiz-adv-x="559" 
d="M82 220q16 58 46 106t76 85q45 38 97.5 56.5t111.5 18.5q44 0 75.5 -11t50.5 -32t31 -44t17 -49q2 -17 3 -33.5t0 -32.5t-3 -28.5t-5 -21.5q-2 -9 -5 -18.5t-8 -19.5q-4 -10 -9 -19.5t-10 -19.5q-19 -31 -45.5 -60t-61.5 -55q-35 -25 -78 -37.5t-93 -12.5h-4h-4h-2h-1h-2
h-2q-56 0 -95 16t-61 49t-27 73.5t8 87.5v2v0zM175 213q-2 -8 -4 -18t-4 -22q-1 -12 -1.5 -24.5t1.5 -26.5q2 -18 9 -35t19 -32q11 -15 31 -23t48 -10q32 0 62.5 13t59.5 40q28 26 51 66t40 93q13 47 14.5 85.5t-8.5 68.5q-10 29 -34.5 44t-62.5 15q-37 0 -70.5 -15.5
t-61.5 -47.5q-29 -31 -49.5 -65.5t-31.5 -72.5q-1 -2 -1.5 -4t-0.5 -4q-1 -1 -1.5 -2.5t-0.5 -3.5q0 -1 -0.5 -2.5t-0.5 -2.5l-1.5 -3t-0.5 -3q-1 -3 -1.5 -5.5t-0.5 -4.5l1 2v0zM292 591q0 -1 0 -0.5v1.5q1 1 1 1.5v1.5q2 11 8 19.5t15 14.5q5 3 9.5 5.5t9.5 3.5q4 2 9 3
t9 1v0h1v0v0h0.5h1.5q10 0 18 -2.5t15 -8.5q6 -6 7.5 -15t-1.5 -20q-3 -13 -10 -23.5t-16 -16.5q-10 -7 -19.5 -10t-18.5 -3q-9 -1 -17 2t-14 9t-8 14.5t0 20.5v2v0zM491 598q4 10 10.5 18t16.5 14q5 3 9 5.5t9 3.5q4 2 8.5 3t8.5 1v0h1v0v0h0.5h1.5q9 0 17 -3t14 -9
t7.5 -14.5t-2.5 -20.5q-3 -13 -10 -23t-16 -16q-4 -3 -9 -5.5l-9 -4.5q-5 -1 -9.5 -2t-9.5 -1q-10 -1 -18.5 2t-14.5 10q-7 7 -8 17t2 23l1 2v0z" />
    <glyph glyph-name="divide" unicode="&#xf7;" 
 />
    <glyph glyph-name="oslash" unicode="&#xf8;" horiz-adv-x="559" 
d="M110 63q-2 1 -3.5 3t-2.5 5t-2.5 6t-2.5 6q-7 14 -11.5 29.5t-6.5 31.5q-1 17 1 37t9 45q17 50 45.5 94.5t69.5 81.5q41 38 94.5 57t118.5 19q14 0 26.5 -1t24.5 -3q6 -1 11.5 -2t10.5 -2q5 -2 10.5 -4t11.5 -4q4 -2 8.5 -4.5t9.5 -5.5q2 -1 3 -2t3 -2q0 -1 1 -1.5
t2 -0.5q2 -2 4 -3.5t5 -3.5l93 81l22 -32l-89 -71q11 -16 17 -35.5t8 -43.5t-1 -52t-12 -60q-2 -10 -6 -20t-9 -21t-11 -22t-13 -22q-19 -30 -46.5 -57.5t-62.5 -51.5q-34 -25 -76.5 -36.5t-92.5 -11.5q-24 0 -45 4t-41 12q-20 6 -34.5 15.5t-22.5 21.5l-94 -84l-23 31
l99 79v0v0zM490 213v0.5t1 1.5v2v2t0.5 2t1.5 2t1.5 2t0.5 2t0.5 2.5t1.5 2.5q0 1 0.5 1.5t0.5 1.5q0 2 0.5 4t1.5 4q4 15 6.5 29.5t3.5 27.5q2 14 2.5 24.5t0.5 18.5q-1 4 -1.5 7t-1.5 5t-1.5 3.5t-1.5 2.5v0v0h-1v0v0v0v-0.5v-0.5h-1v0v0v0l-317 -273q7 -19 17 -31t22 -20
q13 -7 26 -11t28 -4q30 0 61.5 13t62.5 40t51.5 58.5t30.5 68.5v2t1 2v1.5t1 1.5v1.5v1.5l1 2v0zM183 126l316 268q-6 10 -14.5 19.5t-18.5 17.5t-23.5 12t-31.5 4q-34 0 -65 -14.5t-59 -43.5q-28 -28 -48.5 -59.5t-34.5 -65.5q-4 -6 -6 -12l-4 -12t-3.5 -11.5t-3.5 -10.5
q-4 -13 -6.5 -26.5t-3.5 -25.5q0 -12 1 -22.5t5 -19.5v2v0z" />
    <glyph glyph-name="ugrave" unicode="&#xf9;" horiz-adv-x="559" 
d="M109 173l82 307q4 -3 8.5 -4.5t10.5 -2.5q5 -1 10.5 -1h11.5h4h4q4 0 8 0.5t8 0.5q6 1 11.5 2.5t10.5 2.5l-76 -281q-8 -32 -8.5 -60t6.5 -52t25 -36.5t47 -12.5h1.5h1.5h2t3 1h1h2h1.5h1.5q29 2 52 12.5t40 28.5t29 38t20 42q0 1 0.5 2l1.5 3q1 1 1.5 2.5t0.5 2.5
q0 2 0.5 3l1.5 3q0 1 0.5 2.5t0.5 2.5l80 301q2 -2 3.5 -3t2.5 -1q2 -1 4 -1h4q2 -1 3.5 -1.5t3.5 -0.5q2 -1 3.5 -1h3.5h7.5h7.5h10.5t11.5 1q5 1 10.5 2.5t10.5 2.5l-128 -478q-4 0 -8.5 0.5t-9.5 1.5q-4 1 -9.5 1.5t-10.5 0.5h-4h-4q-4 -1 -7.5 -1t-8.5 -1
q-6 -1 -12 -1.5t-12 -0.5l19 71q-19 -25 -40.5 -41t-46.5 -24q-24 -6 -49.5 -10t-51.5 -4q-38 0 -63 8t-37 25t-16.5 35.5t-3.5 39.5v9.5v9.5q0 4 1 9t2 9q2 9 4.5 18t4.5 16v2v0zM450 535l-130 103q-2 1 -4.5 2.5t-4.5 3.5q-1 1 -1.5 2t-0.5 2q-1 1 -1.5 2t-1.5 2
q-1 2 -1.5 3.5t-1.5 3.5v2t1 2v2v2q2 7 7 13t14 11q8 5 16.5 7.5t16.5 2.5h3.5t3.5 -1q2 0 3.5 -0.5t3.5 -1.5q1 -1 2.5 -1.5t2.5 -1.5t2.5 -2t2.5 -2l115 -156h-47v0v0z" />
    <glyph glyph-name="uacute" unicode="&#xfa;" horiz-adv-x="559" 
d="M109 173l82 307q4 -3 8.5 -4.5t10.5 -2.5q5 -1 10.5 -1h11.5h4h4q4 0 8 0.5t8 0.5q6 1 11.5 2.5t10.5 2.5l-76 -281q-8 -32 -8.5 -60t6.5 -52t25 -36.5t47 -12.5h1.5h1.5h2t3 1h1h2h1.5h1.5q29 2 52 12.5t40 28.5t29 38t20 42q0 1 0.5 2l1.5 3q1 1 1.5 2.5t0.5 2.5
q0 2 0.5 3l1.5 3q0 1 0.5 2.5t0.5 2.5l80 301q2 -2 3.5 -3t2.5 -1q2 -1 4 -1h4q2 -1 3.5 -1.5t3.5 -0.5q2 -1 3.5 -1h3.5h7.5h7.5h10.5t11.5 1q5 1 10.5 2.5t10.5 2.5l-128 -478q-4 0 -8.5 0.5t-9.5 1.5q-4 1 -9.5 1.5t-10.5 0.5h-4h-4q-4 -1 -7.5 -1t-8.5 -1
q-6 -1 -12 -1.5t-12 -0.5l19 71q-19 -25 -40.5 -41t-46.5 -24q-24 -6 -49.5 -10t-51.5 -4q-38 0 -63 8t-37 25t-16.5 35.5t-3.5 39.5v9.5v9.5q0 4 1 9t2 9q2 9 4.5 18t4.5 16v2v0zM275 528l172 141q5 3 9.5 6t9.5 6t10.5 5t9.5 3q2 1 4.5 1.5t4.5 0.5h2t3 1h2h2q8 0 14 -2
t11 -6t6.5 -9t0.5 -11q-1 -4 -5 -9.5t-9 -11.5l-6 -6t-7 -5q-5 -3 -9.5 -6t-10.5 -6l-175 -92h-39v0v0z" />
    <glyph glyph-name="ucircumflex" unicode="&#xfb;" horiz-adv-x="559" 
d="M109 173l82 307q4 -3 8.5 -4.5t10.5 -2.5q5 -1 10.5 -1h11.5h4h4q4 0 8 0.5t8 0.5q6 1 11.5 2.5t10.5 2.5l-76 -281q-8 -32 -8.5 -60t6.5 -52t25 -36.5t47 -12.5h1.5h1.5h2t3 1h1h2h1.5h1.5q29 2 52 12.5t40 28.5t29 38t20 42q0 1 0.5 2l1.5 3q1 1 1.5 2.5t0.5 2.5
q0 2 0.5 3l1.5 3q0 1 0.5 2.5t0.5 2.5l80 301q2 -2 3.5 -3t2.5 -1q2 -1 4 -1h4q2 -1 3.5 -1.5t3.5 -0.5q2 -1 3.5 -1h3.5h7.5h7.5h10.5t11.5 1q5 1 10.5 2.5t10.5 2.5l-128 -478q-4 0 -8.5 0.5t-9.5 1.5q-4 1 -9.5 1.5t-10.5 0.5h-4h-4q-4 -1 -7.5 -1t-8.5 -1
q-6 -1 -12 -1.5t-12 -0.5l19 71q-19 -25 -40.5 -41t-46.5 -24q-24 -6 -49.5 -10t-51.5 -4q-38 0 -63 8t-37 25t-16.5 35.5t-3.5 39.5v9.5v9.5q0 4 1 9t2 9q2 9 4.5 18t4.5 16v2v0zM251 528l182 181h47l86 -181h-39l-89 110l-147 -110h-40v0v0z" />
    <glyph glyph-name="udieresis" unicode="&#xfc;" horiz-adv-x="559" 
d="M109 173l82 307q4 -3 8.5 -4.5t10.5 -2.5q5 -1 10.5 -1h11.5h4h4q4 0 8 0.5t8 0.5q6 1 11.5 2.5t10.5 2.5l-76 -281q-8 -32 -8.5 -60t6.5 -52t25 -36.5t47 -12.5h1.5h1.5h2t3 1h1h2h1.5h1.5q29 2 52 12.5t40 28.5t29 38t20 42q0 1 0.5 2l1.5 3q1 1 1.5 2.5t0.5 2.5
q0 2 0.5 3l1.5 3q0 1 0.5 2.5t0.5 2.5l80 301q2 -2 3.5 -3t2.5 -1q2 -1 4 -1h4q2 -1 3.5 -1.5t3.5 -0.5q2 -1 3.5 -1h3.5h7.5h7.5h10.5t11.5 1q5 1 10.5 2.5t10.5 2.5l-128 -478q-4 0 -8.5 0.5t-9.5 1.5q-4 1 -9.5 1.5t-10.5 0.5h-4h-4q-4 -1 -7.5 -1t-8.5 -1
q-6 -1 -12 -1.5t-12 -0.5l19 71q-19 -25 -40.5 -41t-46.5 -24q-24 -6 -49.5 -10t-51.5 -4q-38 0 -63 8t-37 25t-16.5 35.5t-3.5 39.5v9.5v9.5q0 4 1 9t2 9q2 9 4.5 18t4.5 16v2v0zM276 591q0 -1 0 -0.5v1.5q1 1 1 1.5v1.5q2 11 8 19.5t15 14.5q5 3 9.5 5.5t9.5 3.5q4 2 9 3
t9 1v0h1v0v0h0.5h1.5q10 0 18 -2.5t15 -8.5q6 -6 7.5 -15t-1.5 -20q-3 -13 -10 -23.5t-16 -16.5q-10 -7 -19.5 -10t-18.5 -3q-9 -1 -17 2t-14 9t-8 14.5t0 20.5v2v0zM475 598q4 10 10.5 18t16.5 14q5 3 9 5.5t9 3.5q4 2 8.5 3t8.5 1v0h1v0v0h0.5h1.5q9 0 17 -3t14 -9
t7.5 -14.5t-2.5 -20.5q-3 -13 -10 -23t-16 -16q-4 -3 -9 -5.5l-9 -4.5q-5 -1 -9.5 -2t-9.5 -1q-10 -1 -18.5 2t-14.5 10q-7 7 -8 17t2 23l1 2v0z" />
    <glyph glyph-name="yacute" unicode="&#xfd;" 
 />
    <glyph glyph-name="thorn" unicode="&#xfe;" horiz-adv-x="559" 
 />
    <glyph glyph-name="ydieresis" unicode="&#xff;" horiz-adv-x="504" 
d="M144 480q6 -3 13 -4.5t14 -2.5t13.5 -1h13.5h6.5h6.5t6.5 0.5t6.5 0.5q6 1 11.5 2.5t10.5 2.5q0 -13 2 -35.5t6 -54.5q3 -31 7.5 -64.5t10.5 -68.5q0 -2 0.5 -4.5t0.5 -4.5t0.5 -4.5t0.5 -4.5q1 -4 1.5 -8.5t1.5 -9.5q1 -7 2.5 -14.5t2.5 -15.5q1 -7 2.5 -14.5t2.5 -14.5
q2 -14 4.5 -27t5.5 -25q9 11 18.5 24t20.5 28q10 14 20.5 29.5t22.5 31.5q4 5 7.5 10.5t7.5 11.5q4 5 8 10.5t8 11.5q23 35 45 67t41 63q19 30 31.5 51t17.5 32q4 -1 8.5 -2.5t8.5 -2.5t8 -1h8h9.5t9.5 1t9.5 2.5t9.5 2.5l-529 -738q-1 0 -2 0.5t-2 1.5q-2 1 -3.5 1.5
l-4.5 1.5q-4 1 -7.5 1h-7.5h-9.5t-10.5 -1t-11 -2.5t-12 -2.5l205 268l-78 472v0v0zM264 606q0 -1 0 -0.5v1.5q1 1 1 1.5v1.5q2 11 8 20t16 15q9 6 18 9t18 4v0h1v0v0h0.5h1.5q10 0 18 -2.5t15 -8.5t9 -15t-1 -20q-4 -13 -11 -23.5t-16 -17.5q-10 -7 -19.5 -10t-18.5 -3
h-1.5h-0.5v0v0h-1v0q-9 0 -16 3t-13 9q-5 6 -7 14.5t-1 19.5v2v0zM463 614q5 10 11.5 18.5t16.5 14.5q9 6 18.5 9t19.5 3q9 0 17 -3t14 -9t7.5 -14.5t-1.5 -20.5q-4 -13 -11 -23t-16 -17t-18.5 -10t-19.5 -3q-10 -1 -18.5 2t-14.5 10q-7 7 -8 17.5t3 23.5v2v0z" />
    <glyph glyph-name="Abreve" unicode="&#x102;" 
 />
    <glyph glyph-name="abreve" unicode="&#x103;" 
 />
    <glyph glyph-name="Aogonek" unicode="&#x104;" 
 />
    <glyph glyph-name="aogonek" unicode="&#x105;" 
 />
    <glyph glyph-name="Cacute" unicode="&#x106;" 
 />
    <glyph glyph-name="cacute" unicode="&#x107;" 
 />
    <glyph glyph-name="Ccaron" unicode="&#x10c;" 
 />
    <glyph glyph-name="ccaron" unicode="&#x10d;" 
 />
    <glyph glyph-name="Dcaron" unicode="&#x10e;" 
 />
    <glyph glyph-name="dcaron" unicode="&#x10f;" 
 />
    <glyph glyph-name="Dslash" unicode="&#x110;" 
 />
    <glyph glyph-name="dslash" unicode="&#x111;" 
 />
    <glyph glyph-name="Eogonek" unicode="&#x118;" 
 />
    <glyph glyph-name="eogonek" unicode="&#x119;" 
 />
    <glyph glyph-name="Ecaron" unicode="&#x11a;" 
 />
    <glyph glyph-name="ecaron" unicode="&#x11b;" 
 />
    <glyph glyph-name="Gbreve" unicode="&#x11e;" 
 />
    <glyph glyph-name="gbreve" unicode="&#x11f;" 
 />
    <glyph glyph-name="Idot" unicode="&#x130;" 
 />
    <glyph glyph-name="dotlessi" unicode="&#x131;" 
d="M222 480q2 -2 3 -2.5l3 -1.5q1 -1 2.5 -1.5t2.5 -0.5q3 -1 6.5 -1h7.5q1 -1 2.5 -1h2.5h2h2h1h2h10.5t11.5 1q5 1 10 2.5t10 2.5l-128 -478q-3 0 -7 0.5t-9 1.5q-4 1 -9 1.5t-10 0.5h-1.5h-0.5h-1.5h-1.5h-2h-2q-2 0 -4.5 -0.5t-4.5 -0.5q-3 -1 -5.5 -1.5t-4.5 -0.5
q-4 -1 -8.5 -1h-7.5l128 480v0v0z" />
    <glyph glyph-name="Lacute" unicode="&#x139;" 
 />
    <glyph glyph-name="lacute" unicode="&#x13a;" 
 />
    <glyph glyph-name="Lcaron" unicode="&#x13d;" 
 />
    <glyph glyph-name="lcaron" unicode="&#x13e;" 
 />
    <glyph glyph-name="Ldot" unicode="&#x13f;" 
 />
    <glyph glyph-name="ldot" unicode="&#x140;" 
 />
    <glyph glyph-name="Lslash" unicode="&#x141;" horiz-adv-x="500" 
 />
    <glyph glyph-name="lslash" unicode="&#x142;" horiz-adv-x="500" 
 />
    <glyph glyph-name="Nacute" unicode="&#x143;" 
 />
    <glyph glyph-name="nacute" unicode="&#x144;" 
 />
    <glyph glyph-name="Ncaron" unicode="&#x147;" 
 />
    <glyph glyph-name="ncaron" unicode="&#x148;" 
 />
    <glyph glyph-name="Odblacute" unicode="&#x150;" 
 />
    <glyph glyph-name="odblacute" unicode="&#x151;" 
 />
    <glyph glyph-name="OE" unicode="&#x152;" horiz-adv-x="1000" 
d="M106 339q33 101 81.5 173t112.5 113q65 41 135.5 61.5t147.5 20.5q10 0 22 -1.5t25 -3.5t26.5 -5t27.5 -7q21 -7 40.5 -16.5t35.5 -21.5q17 -12 26.5 -25.5t10.5 -30.5l18 97h331q-1 -4 -2.5 -6.5t-2.5 -4.5l-2 -4l-2 -4q-1 -3 -2.5 -5t-1.5 -4q-1 -2 -1.5 -4.5
t-0.5 -4.5q-1 -4 -2.5 -8.5t-1.5 -9.5v-6v-6v-2.5v-3.5q-17 5 -38 8t-45 4q-24 2 -48.5 2.5t-50.5 1.5h-14.5h-15.5h-14h-14l-65 -242h118q6 -2 12 -2h13h12.5t13.5 1q6 0 13 0.5t14 1.5q6 1 12.5 2.5t13.5 2.5q-1 -2 -2 -3.5t-2 -3.5q-1 -1 -2 -2.5t-2 -3.5
q-1 -1 -1.5 -2.5t-0.5 -2.5l-1.5 -3t-0.5 -3q-1 -1 -1 -1.5v-1.5q-1 -1 -1 -2v-2q-1 -4 -2 -7.5t-1 -7.5v-4v-4v-2v-1v-3v-3q-14 2 -27.5 3.5t-24.5 2.5h-12.5t-12.5 1h-11.5h-11.5l-118 2l-80 -299q11 -2 24 -2h26h27.5t26.5 1h10.5h10.5q16 1 31.5 2t30.5 2q20 2 37.5 4.5
t31.5 6.5l-3.5 -7t-3.5 -6q-1 -1 -1.5 -2.5t-1.5 -2.5l-1.5 -3t-0.5 -3q-1 -1 -1 -1.5v-1.5q-1 -1 -1 -2v-2q-1 -4 -2 -7.5t-1 -7.5q-1 -4 -0.5 -8t1.5 -7h-347l31 87q-34 -29 -69 -50t-71 -35q-36 -13 -70 -20.5t-68 -8.5h-2h-1h-2h-2h-2.5h-3.5q-68 0 -123.5 22t-97.5 68
q-43 46 -53.5 107.5t10.5 138.5v1.5t1 1.5v1.5v1.5q1 2 1.5 4t0.5 4q0 1 0.5 2t0.5 2q1 0 1 1v2t0.5 1.5l0.5 0.5q0 1 0.5 1t0.5 1l0.5 1t0.5 2v2v0zM734 362q15 64 13.5 114.5t-18.5 86.5q-19 35 -42 58.5t-52 34.5q-8 3 -16 5t-16 3q-8 2 -15.5 2.5t-15.5 0.5
q-67 0 -124.5 -25t-104.5 -75q-48 -50 -81 -105.5t-51 -115.5v-1.5v-0.5q0 -1 -0.5 -1.5t-0.5 -1.5v-1.5v-1.5q-1 -1 -1 -1.5v-1.5q-16 -58 -15.5 -112t19.5 -102q18 -49 58.5 -73.5t104.5 -25.5h3.5h2.5h3.5h2.5q64 -1 117.5 22.5t95.5 70.5q41 47 72 98.5t50 108.5
q1 2 1.5 4.5t1.5 5.5q1 2 1.5 4.5t0.5 4.5q1 2 1.5 3.5t0.5 2.5q1 1 1 2v2q1 2 2 4.5t1 4.5v2v0z" />
    <glyph glyph-name="oe" unicode="&#x153;" horiz-adv-x="890" 
d="M92 228q12 46 39 89t68 82t94 59t118 20q29 0 51 -4.5t38 -12.5t29 -17t23 -19q3 -4 6 -8.5t7 -9.5l6 -8t6 -7q3 3 6.5 6t6.5 5q7 6 13.5 11t12.5 9l18 12t18 11q6 3 11.5 5.5t11.5 5.5q12 5 23.5 8.5t22.5 5.5q16 3 33 5t35 2q50 0 84 -14t51 -42t19.5 -64.5t-9.5 -81.5
q-1 -5 -2.5 -10.5t-3.5 -10.5q-1 -5 -3.5 -10.5t-4.5 -10.5l-345 2q-3 -7 -5 -12l-4 -10q-1 -2 -1.5 -4.5t-1.5 -4.5q-1 -3 -1.5 -5.5t-1.5 -4.5q-10 -35 -6.5 -64.5t20.5 -53.5q18 -24 43.5 -36t59.5 -12q29 0 54 4t47 13q22 8 42 19.5t39 26.5l-4 -45q-19 -16 -41.5 -28
t-47.5 -19q-25 -8 -53 -12t-57 -4q-35 0 -62.5 6.5t-48.5 17.5q-21 13 -34 28t-21 33q-23 -21 -47 -37t-50 -27q-25 -10 -54 -15.5t-61 -5.5q-54 0 -91 10t-58 30t-33 43t-14 48q-3 16 -3 31.5t2 30.5q3 15 5.5 27t4.5 22l1 2v0zM179 228q-12 -46 -11.5 -82.5t14.5 -65.5
t39 -43.5t61 -14.5t66.5 13t56.5 39t45 55.5t32 60.5l2 6l2 6q0 2 1 3.5t1 2.5q0 2 1 4.5t2 4.5q0 2 1 4.5t1 4.5q1 2 1.5 4t0.5 5q0 2 0.5 4t1.5 4q1 5 2 9.5t2 8.5q5 35 3.5 67t-12.5 61q-10 29 -32 43.5t-57 14.5q-32 0 -64 -14t-64 -43q-31 -28 -55.5 -69.5t-41.5 -94.5
l1 2v0zM853 276q1 1 1 2.5v2.5t0.5 2t0.5 2t0.5 2t0.5 2v1.5v0.5v0.5v0.5v0.5t1 1.5v0.5v1.5q5 27 5 51.5t-4 46.5q-4 23 -25.5 34t-61.5 11q-33 0 -61 -12.5t-53 -37.5t-42.5 -54t-29.5 -61l268 2v0v0z" />
    <glyph glyph-name="Racute" unicode="&#x154;" 
 />
    <glyph glyph-name="racute" unicode="&#x155;" 
 />
    <glyph glyph-name="Rcaron" unicode="&#x158;" 
 />
    <glyph glyph-name="rcaron" unicode="&#x159;" 
 />
    <glyph glyph-name="Sacute" unicode="&#x15a;" 
 />
    <glyph glyph-name="sacute" unicode="&#x15b;" 
 />
    <glyph glyph-name="Scedilla" unicode="&#x15e;" 
 />
    <glyph glyph-name="scedilla" unicode="&#x15f;" 
 />
    <glyph glyph-name="Scaron" unicode="&#x160;" horiz-adv-x="500" 
 />
    <glyph glyph-name="scaron" unicode="&#x161;" horiz-adv-x="500" 
 />
    <glyph glyph-name="Tcedilla" unicode="&#x162;" 
 />
    <glyph glyph-name="tcedilla" unicode="&#x163;" 
 />
    <glyph glyph-name="Tcaron" unicode="&#x164;" 
 />
    <glyph glyph-name="tcaron" unicode="&#x165;" 
 />
    <glyph glyph-name="Uring" unicode="&#x16e;" 
 />
    <glyph glyph-name="uring" unicode="&#x16f;" 
 />
    <glyph glyph-name="udblacute" unicode="&#x170;" 
 />
    <glyph glyph-name="Udblacute" unicode="&#x171;" 
 />
    <glyph glyph-name="Ydieresis" unicode="&#x178;" horiz-adv-x="500" 
 />
    <glyph glyph-name="Zacute" unicode="&#x179;" 
 />
    <glyph glyph-name="zacute" unicode="&#x17a;" 
 />
    <glyph glyph-name="Zdot" unicode="&#x17b;" 
 />
    <glyph glyph-name="zdot" unicode="&#x17c;" 
 />
    <glyph glyph-name="Zcaron" unicode="&#x17d;" 
 />
    <glyph glyph-name="zcaron" unicode="&#x17e;" 
 />
    <glyph glyph-name="florin" unicode="&#x192;" horiz-adv-x="205" 
d="M134 0l204 764h63l-204 -764h-63v0v0z" />
    <glyph glyph-name="hungarumlaut" unicode="&#x2ba;" horiz-adv-x="500" 
 />
    <glyph glyph-name="tilde" unicode="&#x2c6;" horiz-adv-x="331" 
d="M149 559q6 16 15 29.5t21 24.5q11 11 22.5 19.5t23.5 14.5q5 2 9 4.5t8 3.5q4 2 7.5 2.5t7.5 1.5h2t2 1h1h2h3.5h3.5q5 0 9.5 -0.5t9.5 -2.5q5 -1 10 -2.5t10 -3.5q2 -1 3.5 -2t3.5 -1q2 -1 3.5 -2t3.5 -2q3 -1 5.5 -2.5t4.5 -3.5q1 0 2.5 -0.5t2.5 -1.5q4 -2 8 -4.5
t8 -4.5q3 -2 7 -4l8 -4l10 -4t10 -2q2 -1 5 -1h5q8 0 16.5 3t17.5 9t18 16.5t19 26.5l31 -6q-3 -5 -6 -10.5t-7 -11.5l-8 -12t-9 -12q-10 -11 -21 -21t-24 -19t-27 -13.5t-29 -4.5q-12 0 -22.5 1.5t-20.5 5.5t-17.5 8.5t-15.5 8.5q-7 4 -14.5 7.5t-14.5 7.5q-3 2 -6 3.5
l-5 2.5q-3 1 -6 1.5t-6 0.5q-9 0 -17 -2t-13 -5q-3 -1 -5.5 -3.5t-5.5 -4.5t-5.5 -5t-5.5 -6q-2 -3 -4.5 -5.5l-4.5 -4.5q-1 -1 -2 -2.5t-2 -2.5q-1 -2 -2 -3t-2 -3l-31 2v0v0z" />
    <glyph glyph-name="caron" unicode="&#x2c7;" horiz-adv-x="500" 
 />
    <glyph glyph-name="macron" unicode="&#x2c9;" horiz-adv-x="500" 
 />
    <glyph glyph-name="breve" unicode="&#x2d8;" horiz-adv-x="331" 
d="M240 693q-2 -31 2.5 -51.5t15.5 -31.5q11 -10 27.5 -15.5t37.5 -5.5q9 0 18 1t18 4q8 2 17 5.5t18 7.5q19 9 35.5 30t31.5 54l31 2q-8 -32 -21.5 -57t-30.5 -43q-18 -18 -35.5 -31t-34.5 -21q-9 -4 -16.5 -7t-14.5 -5q-7 -1 -13.5 -2t-11.5 -1q-3 -1 -5 -1h-4h-2h-1h-2
h-2h-3h-3h-3.5h-3.5t-4 0.5t-4 0.5q-1 1 -2 1.5t-2 0.5q-19 4 -35 15t-28 30q-11 19 -11.5 48.5t10.5 69.5l31 2v0v0z" />
    <glyph glyph-name="dotaccent" unicode="&#x2d9;" horiz-adv-x="500" 
 />
    <glyph glyph-name="ring" unicode="&#x2da;" horiz-adv-x="331" 
d="M253 622q1 2 2 5t3 7q1 4 3 8t5 8q8 15 21 28.5t30 26.5q17 12 35.5 18.5t39.5 6.5q20 -2 34 -8t23 -17q8 -10 13.5 -21.5t6.5 -23.5v-6v-5q0 -3 -0.5 -5.5t-0.5 -4.5t-0.5 -3.5t-0.5 -3.5q0 -3 -0.5 -6t-1.5 -6q0 -1 -0.5 -2t-1.5 -2l-1.5 -3t-0.5 -2q-1 -3 -1.5 -5
t-1.5 -4q-7 -16 -19 -30.5t-29 -27.5t-35.5 -19.5t-38.5 -6.5q-21 0 -37 6.5t-27 19.5q-12 13 -17.5 27.5t-4.5 30.5v1.5v0.5v3.5v3.5q1 2 1.5 4.5t1.5 4.5v2v0zM300 622q-2 -15 -0.5 -25.5t8.5 -17.5q6 -7 14.5 -11t18.5 -4v0h1v0v0h0.5h1.5q11 0 22.5 3.5t22.5 10.5
t18 17.5t11 24.5q4 15 2.5 26.5t-8.5 19.5t-15.5 12t-19.5 4q-10 0 -21.5 -3.5t-22.5 -11.5q-10 -7 -18.5 -19t-14.5 -28v2v0z" />
    <glyph glyph-name="ogonek" unicode="&#x2db;" horiz-adv-x="500" 
 />
    <glyph glyph-name="circumflex" unicode="&#x2dc;" horiz-adv-x="331" 
d="M157 528l182 181h47l86 -181h-40l-89 110l-147 -110h-39v0v0z" />
    <glyph glyph-name="Gamma" unicode="&#x393;" 
 />
    <glyph glyph-name="Theta" unicode="&#x398;" 
 />
    <glyph glyph-name="summation" unicode="&#x3a3;" 
 />
    <glyph glyph-name="Phi" unicode="&#x3a6;" 
 />
    <glyph glyph-name="Omega" unicode="&#x3a9;" 
 />
    <glyph glyph-name="alpha" unicode="&#x3b1;" 
 />
    <glyph glyph-name="delta" unicode="&#x3b4;" 
 />
    <glyph glyph-name="epsilon" unicode="&#x3b5;" 
 />
    <glyph glyph-name="pi" unicode="&#x3c0;" 
 />
    <glyph glyph-name="sigma" unicode="&#x3c3;" 
 />
    <glyph glyph-name="tau" unicode="&#x3c4;" 
 />
    <glyph glyph-name="phi" unicode="&#x3c6;" 
 />
    <glyph glyph-name="glyph276" unicode="&#x2013;" horiz-adv-x="504" 
d="M67 252h512l-15 -55h-512l15 55v0v0z" />
    <glyph glyph-name="emdash" unicode="&#x2014;" horiz-adv-x="1000" 
d="M59 252h1000l-15 -55h-1000l15 55v0v0z" />
    <glyph glyph-name="underscoredbl" unicode="&#x2017;" 
 />
    <glyph glyph-name="quoteleft" unicode="&#x2018;" 
d="M209 488l181 205l13 -8l-133 -236q-4 -9 -8.5 -15.5t-9.5 -12.5l-4.5 -4.5l-4.5 -4.5q-3 -3 -6.5 -5.5t-6.5 -3.5q-3 -2 -6.5 -3t-6.5 -2h-1.5h-0.5q-1 -1 -1.5 -1h-0.5h-2h-2q-8 -1 -14 2t-11 9q-4 6 -5 14t2 18q2 5 3.5 10.5t5.5 11.5q2 5 7.5 11t11.5 13v2v0z" />
    <glyph glyph-name="quoteright" unicode="&#x2019;" 
d="M158 417l145 244q5 7 10.5 13.5t12.5 11.5q6 5 12.5 8t13.5 4h0.5t1.5 1h0.5h1.5h2h2q7 0 12.5 -3t9.5 -8q5 -5 6 -12t-1 -16q-1 -4 -3.5 -9t-4.5 -10q-3 -5 -7 -10.5t-9 -10.5l-183 -211l-22 8v0v0z" />
    <glyph glyph-name="quotesinglbase" unicode="&#x201a;" 
 />
    <glyph glyph-name="quotedblleft" unicode="&#x201c;" horiz-adv-x="441" 
d="M214 504l180 205l13 -8l-133 -236q-6 -13 -12.5 -22t-14.5 -15q-7 -6 -13 -9t-12 -5h-1.5h-1.5q-1 -1 -1.5 -1h-0.5h-2h-2q-8 -1 -14 2t-11 9q-4 6 -5 14t2 18q2 5 4 10.5t5 11.5q3 5 8 11t11 13l1 2v0zM387 504l180 205l14 -8l-134 -236q-6 -13 -12.5 -22t-14.5 -15
q-7 -6 -13 -9t-12 -5h-1.5h-1.5q-1 -1 -1.5 -1h-0.5h-2h-2q-8 -1 -14 2t-11 9q-4 6 -5 14t2 18q2 5 4 10.5t5 11.5q3 5 8 11t11 13l1 2v0z" />
    <glyph glyph-name="quotedblright" unicode="&#x201d;" horiz-adv-x="441" 
d="M180 409l-22 8l145 244q5 10 11.5 17.5t13.5 12.5t13.5 9t13.5 5h0.5h1.5h0.5t1.5 1h0.5h1.5q8 0 15 -3.5t11 -10.5q5 -7 6 -15.5t-2 -18.5q-1 -4 -3 -7.5t-4 -7.5t-5 -7.5t-6 -7.5l-193 -219v0v0zM353 409l-22 8l145 244q5 10 11.5 17.5t13.5 12.5t13.5 9t13.5 5h0.5
h1.5h0.5t1.5 1h0.5h1.5q8 0 15 -3.5t11 -10.5q5 -7 6 -15.5t-2 -18.5q-1 -4 -3 -7.5t-4 -7.5t-5 -7.5t-6 -7.5l-193 -219v0v0z" />
    <glyph glyph-name="quotedblbase" unicode="&#x201e;" horiz-adv-x="441" 
d="M4 -157l145 244q5 7 11 14t13 11q7 5 13.5 8t13.5 4h0.5h1.5h1.5h1.5q8 0 13.5 -2.5t9.5 -7.5q5 -5 6 -12.5t-1 -16.5q-1 -4 -3.5 -9t-5.5 -10q-2 -5 -6 -10.5t-9 -10.5l-183 -210l-22 8v0v0zM177 -157l145 244q5 7 11 14t13 11q7 5 13.5 8t13.5 4h0.5h1.5h1.5h1.5
q8 0 13.5 -2.5t9.5 -7.5q5 -5 6 -12.5t-1 -16.5q-1 -4 -3.5 -9t-5.5 -10q-2 -5 -6 -10.5t-9 -10.5l-183 -210l-22 8v0v0z" />
    <glyph glyph-name="dagger" unicode="&#x2020;" horiz-adv-x="504" 
d="M163 465l172 -8l61 228q1 -1 2 -1.5t2 -1.5q2 -1 4 -1.5t4 -1.5q3 -1 6.5 -1.5t7.5 -0.5h1.5h1.5h0.5h1.5h1.5h1.5h0.5h1.5h10.5t10.5 1t10.5 2.5t10.5 2.5l-61 -226l176 8q-3 -8 -6 -14t-5 -11t-3.5 -9.5t-2.5 -9.5t-2.5 -9.5t-2.5 -9.5v-8.5t1 -9.5l-172 10l-105 -394
h-6.5t-7.5 1t-7 1.5t-6 1.5h-2.5h-3.5h-2h-2q-5 0 -10.5 -0.5t-11.5 -1.5q-5 -1 -9.5 -1.5t-9.5 -0.5l105 394l-176 -8q2 2 4.5 6.5t3.5 8.5q2 5 4 9.5t3 9.5q2 5 2.5 10t1.5 10t1.5 11t0.5 12v2v0z" />
    <glyph glyph-name="daggerdbl" unicode="&#x2021;" horiz-adv-x="504" 
d="M405 693q1 -2 2 -2.5t2 -0.5q1 -1 2 -1.5t2 -0.5q2 -1 4.5 -1h5.5q1 0 1.5 -0.5t1.5 -0.5t2.5 -0.5t3.5 -0.5h4.5h4.5h9.5t9.5 1t8.5 2.5t7.5 2.5l-50 -187l183 8l-5.5 -11t-4.5 -10q-1 -4 -2.5 -9.5t-3.5 -10.5q-1 -5 -2.5 -10.5t-2.5 -10.5q-1 -4 -1 -7.5v-6.5v-3v-2
l-178 10l-53 -197l176 8q-1 -2 -1.5 -3.5t-1.5 -2.5q-2 -3 -3.5 -5.5t-2.5 -5.5q-2 -4 -3.5 -9.5t-3.5 -10.5q0 -3 -0.5 -5.5t-1.5 -4.5q-1 -3 -1.5 -5.5t-0.5 -4.5q-1 -5 -0.5 -9t1.5 -7l-164 10l-50 -189h-6.5t-7.5 1t-7 1.5t-6 1.5h-2.5h-3.5h-2h-2h-6t-5 -1
q-3 0 -6 -0.5t-6 -0.5q-5 -1 -9.5 -1.5t-9.5 -0.5l50 189l-175 -8q2 1 4 4.5t3 7.5q2 4 4 8.5t3 9.5q0 1 0.5 1.5t0.5 1.5t0.5 1.5t0.5 1.5v2v2l0.5 1t0.5 2q0 2 0.5 3.5t0.5 3.5v3v3v3.5t1 3.5v3v3l171 -6l53 197l-183 -8q1 0 2 1.5t2 3.5q0 2 1 4l2 4q2 5 4.5 10t3.5 11v2
t1 2q0 1 0.5 1.5t0.5 1.5v0.5v1.5q1 5 1.5 9.5t0.5 8.5q1 5 1 8.5v7.5l180 -6l50 189v0v0z" />
    <glyph glyph-name="glyph287" unicode="&#x2022;" horiz-adv-x="606" 
d="M140 260q4 13 11.5 24t20.5 18q12 8 24.5 11.5t25.5 3.5t24 -3t19 -11q8 -7 10.5 -18.5t-1.5 -26.5q-6 -17 -15.5 -29.5t-20.5 -20.5q-12 -7 -24 -11t-23 -4h-1.5h-0.5v0v0h-1v0q-13 0 -23 4.5t-18 13.5q-8 8 -9.5 20t2.5 27v2v0z" />
    <glyph glyph-name="ellipsis" unicode="&#x2026;" horiz-adv-x="1000" 
d="M120 39q7 18 15 31.5t19 21.5t22.5 12.5t22.5 5.5h0.5h1.5h1.5h1.5q11 -1 20.5 -6t16.5 -14t9 -20t-2 -25q-6 -16 -14.5 -27.5t-19.5 -17.5q-4 -3 -7.5 -5t-7.5 -3q-8 -4 -15.5 -5.5t-14.5 -1.5q-11 0 -20.5 3t-17.5 10q-8 6 -10.5 16t-0.5 23v2v0zM459 39q7 18 15 31.5
t19 21.5t22.5 12.5t22.5 5.5h0.5h1.5h1.5h1.5q11 -1 20.5 -6t16.5 -14t9 -20t-2 -25q-6 -16 -14.5 -27.5t-19.5 -17.5q-4 -3 -7.5 -5t-7.5 -3q-8 -4 -15.5 -5.5t-14.5 -1.5q-11 0 -20.5 3t-17.5 10q-8 6 -10.5 16t-0.5 23v2v0zM797 39q7 18 15 31.5t19 21.5t22.5 12.5
t22.5 5.5h0.5h1.5h1.5h1.5q11 -1 20.5 -6t16.5 -14t9 -20t-2 -25q-6 -16 -13.5 -27t-18.5 -18q-6 -3 -11.5 -6t-10.5 -5q-5 -1 -10.5 -2.5t-11.5 -1.5h-1.5h-0.5v0v0h-1v0q-11 0 -20.5 3t-17.5 10q-8 6 -10.5 16t-0.5 23v2v0z" />
    <glyph glyph-name="perthousand" unicode="&#x2030;" horiz-adv-x="1000" 
d="M115 -39l594 748l3.5 -3.5t4.5 -2.5q2 -1 4.5 -1.5t5.5 -0.5h1.5h1.5h2h2h2h2h2h2q2 0 5 0.5t6 1.5l6 2t5 2l-594 -746q-1 0 -1.5 0.5t-0.5 1.5h-0.5h-0.5q-1 1 -2 1h-2q-2 1 -3.5 2t-3.5 1h-3.5h-4.5h-7.5t-8.5 -1q-4 -1 -8 -2.5t-9 -2.5v0v0zM410 150q1 3 2 7t3 8
q2 5 3.5 9.5t4.5 8.5q12 23 29.5 44t42.5 40t53 28.5t61 9.5q26 0 46.5 -11t35.5 -33q14 -22 16 -52.5t-9 -68.5q-9 -34 -27 -61.5t-45 -50.5q-27 -22 -55 -33t-58 -12h-2h-2h-1.5h-1.5q-1 1 -2 1h-2h-1.5h-1.5q-27 0 -47.5 10.5t-34.5 32.5t-16 52t8 69l1 2v0zM479 142
q-7 -28 -8.5 -51t3.5 -41q6 -18 16.5 -27t25.5 -9h0.5h1.5h0.5h1.5q-1 -1 -0.5 -1h1.5h0.5h1.5q18 0 34 10t30 31q15 21 25.5 43.5t17.5 47.5v0v1v0v0v0.5v1.5q8 26 9.5 49.5t-1.5 43.5q-4 20 -12.5 30t-22.5 10h-1.5h-1.5h-2h-2q-14 0 -27 -6.5t-26 -19.5q-12 -13 -22 -27
t-18 -29q-5 -8 -9 -16t-6 -16q-4 -7 -6 -14t-4 -13l1 2v0zM743 157q13 37 32.5 65t45.5 46t53.5 27.5t56.5 9.5q30 0 50.5 -9.5t30.5 -28.5q11 -19 15.5 -40t2.5 -44q-1 -3 -1.5 -6t-0.5 -6q0 -1 -0.5 -2.5t-0.5 -3.5q-1 -2 -1.5 -4t-0.5 -4q0 -3 -0.5 -5t-1.5 -4
q-9 -36 -26 -65.5t-40 -52.5q-24 -23 -54 -34.5t-65 -11.5q-33 0 -56 9.5t-37 28.5q-14 20 -15 53t12 80l1 2v0zM812 150q-1 -4 -1.5 -7t-1.5 -5t-1.5 -4.5t-1.5 -4.5q-4 -22 -4.5 -41.5t1.5 -37.5q3 -18 14 -27t30 -9q16 0 30.5 7.5t28.5 23.5q14 15 24.5 36t17.5 47
q0 2 0.5 3.5t1.5 3.5q0 1 0.5 3t1.5 3q0 2 0.5 3.5t0.5 3.5q0 1 0.5 3t0.5 4q6 32 8.5 56t0.5 39t-13.5 23t-31.5 8q-16 0 -30 -6.5t-25 -19.5q-10 -13 -18.5 -26.5t-15.5 -28.5q-3 -7 -5.5 -14t-4.5 -14q-3 -7 -4.5 -13t-3.5 -11l1 2v0zM178 520q1 2 2 6l2 8t3 8l4 8
q10 23 26.5 45t38.5 41q23 20 52 29.5t64 9.5t59 -11t36 -34q12 -22 13.5 -49t-6.5 -59q-1 -2 -1.5 -4.5t-1.5 -5.5q0 -1 -0.5 -2.5t-1.5 -2.5l-1.5 -3t-0.5 -2q0 -2 -1 -4t-1 -4l-2 -4t-1 -4q0 -1 -1 -2.5t-1 -2.5q-1 -3 -2 -5t-2 -5q-10 -22 -26.5 -42.5t-39.5 -39.5
q-22 -19 -47 -28.5t-53 -9.5h-2h-2h-1.5t-1.5 1h-1.5h-1.5h-1.5h-1.5q-30 0 -52 10t-38 31q-15 21 -16.5 52t9.5 73v2v0zM247 512q0 -2 -0.5 -3.5t-0.5 -3.5q0 -1 -0.5 -2.5t-0.5 -2.5t-0.5 -2t-0.5 -2q0 -2 -0.5 -3t-0.5 -2q-2 -22 -2.5 -41.5t0.5 -37.5q2 -18 12 -27
t29 -9q23 0 41.5 10t31.5 30t23.5 43.5t17.5 50.5q2 5 3.5 12t3.5 16q2 8 4 17t3 19q1 14 -0.5 27.5t-5.5 25.5t-14 18.5t-27 6.5q-16 0 -30.5 -6.5t-25.5 -18.5q-12 -12 -20.5 -25.5t-15.5 -27.5q-5 -10 -9 -19t-7 -17q-3 -9 -5 -16t-4 -12l1 2v0z" />
    <glyph glyph-name="guilsinglleft" unicode="&#x2039;" horiz-adv-x="331" 
d="M140 228l174 181v-3t1 -1h1.5h1.5q1 -1 2 -1.5t2 -0.5q0 -1 0.5 -1.5t1.5 -0.5q2 -1 4 -2.5t4 -2.5q1 0 2 -0.5t2 -1.5q4 -1 9 -1.5t12 -0.5l-162 -164l68 -157q-7 -5 -14 -8.5l-13 -6.5q-7 -4 -11.5 -8.5t-9.5 -10.5l-75 191v0v0z" />
    <glyph glyph-name="guilsinglright" unicode="&#x203a;" horiz-adv-x="331" 
d="M247 220l-57 166q0 -1 0.5 -1h1.5t1.5 0.5l1.5 1.5q3 1 5.5 2.5t5.5 2.5q3 2 5.5 3.5t5.5 2.5q5 3 10.5 7.5t9.5 9.5l73 -195l-182 -181q-1 4 -4 8t-7 7q-2 2 -4 3.5t-4 2.5q-2 2 -4 3.5t-4 2.5h-0.5t-0.5 1h-0.5h-0.5q-1 0 -1.5 0.5t-0.5 1.5l150 151v0v0z" />
    <glyph glyph-name="exclamdbl" unicode="&#x203c;" 
 />
    <glyph glyph-name="nsuperior" unicode="&#x207f;" 
 />
    <glyph glyph-name="franc" unicode="&#x20a3;" 
 />
    <glyph glyph-name="peseta" unicode="&#x20a7;" 
 />
    <glyph glyph-name="trademark" unicode="&#x2122;" horiz-adv-x="953" 
d="M252 268l106 393q-14 -2 -28.5 -3t-30.5 -3q-16 -1 -32 -3.5t-33 -5.5h-2h-1q-1 -1 -2 -1h-2h-2h-2q-1 -1 -2 -1h-2l13 49h315l-12 -47q-11 1 -24 3.5t-28 4.5t-30.5 3t-32.5 2h-2h-2h-2h-2l-105 -391q-1 0 -3.5 0.5t-4.5 0.5q-1 0 -2 0.5t-2 0.5q-3 1 -6 1.5t-7 0.5h-4
t-4 -1q-2 0 -4 -0.5t-4 -0.5t-3.5 -0.5t-3.5 -1.5q-2 0 -3.5 -0.5t-3.5 -1.5v2v0zM496 268l177 425h16q1 -9 4 -25t7 -39q5 -23 11.5 -48t13.5 -51v-4.5t1 -4.5q0 -1 0.5 -2t0.5 -2t0.5 -2.5t1.5 -3.5q5 -22 10.5 -42t10.5 -38q6 -19 11 -32.5t9 -22.5l250 317h15l-66 -425
q-1 0 -3.5 0.5t-4.5 0.5q-1 0 -2 0.5t-2 0.5q-3 1 -6 1.5t-7 0.5h-4t-4 -1q-2 0 -4 -0.5t-4 -0.5t-3.5 -0.5t-3.5 -1.5q-2 0 -3.5 -0.5t-3.5 -1.5l51 309q-13 -17 -26 -33t-24 -31q-13 -15 -25 -30t-23 -30q-14 -17 -27.5 -34.5t-26.5 -34.5q-13 -18 -26.5 -36t-26.5 -36
q-4 -4 -7 -8.5t-6 -9.5q-4 -4 -7 -8.5t-6 -9.5l-7 2l-75 307l-109 -315q-1 -1 -1.5 -1t-0.5 1q-1 0 -1.5 0.5t-1.5 0.5h-1.5t-0.5 1q-1 0 -1.5 0.5t-1.5 0.5h-2.5h-3.5h-1.5t-0.5 1h-0.5h-1.5h-2h-1q-1 -1 -2 -1h-2h-2.5h-3.5q-2 -1 -3.5 -1.5t-3.5 -0.5q-1 0 -2 -0.5
l-1 -0.5q-1 -1 -2 -1.5t-2 -0.5v2v0z" />
    <glyph glyph-name="arrowleft" unicode="&#x2190;" 
 />
    <glyph glyph-name="arrowup" unicode="&#x2191;" 
 />
    <glyph glyph-name="arrowright" unicode="&#x2192;" horiz-adv-x="500" 
 />
    <glyph glyph-name="arrowdown" unicode="&#x2193;" 
 />
    <glyph glyph-name="arrowboth" unicode="&#x2194;" 
 />
    <glyph glyph-name="arrowupdn" unicode="&#x2195;" 
 />
    <glyph glyph-name="arrowupdnbase" unicode="&#x21a8;" 
 />
    <glyph glyph-name="partialdiff" unicode="&#x2202;" 
 />
    <glyph glyph-name="Delta" unicode="&#x2206;" 
 />
    <glyph glyph-name="product" unicode="&#x220f;" 
 />
    <glyph glyph-name="minus" unicode="&#x2212;" 
 />
    <glyph glyph-name="fraction" unicode="&#x2215;" horiz-adv-x="500" 
 />
    <glyph glyph-name="periodcentered" unicode="&#x2219;" 
d="M224 339v-1v0v0l1 1v0.5v0.5q8 32 25.5 61.5t42.5 56.5q26 27 64 42t89 18q38 0 64.5 -13t42.5 -39q15 -25 18 -56t-7 -66q-14 -41 -34.5 -73t-49.5 -55q-28 -22 -60 -33.5t-67 -11.5q-38 0 -66.5 12.5t-45.5 37.5q-17 26 -21.5 54.5t4.5 61.5v2v0z" />
    <glyph glyph-name="radical" unicode="&#x221a;" 
 />
    <glyph glyph-name="infinity" unicode="&#x221e;" 
 />
    <glyph glyph-name="orthogonal" unicode="&#x221f;" 
 />
    <glyph glyph-name="intersection" unicode="&#x2229;" 
 />
    <glyph glyph-name="integral" unicode="&#x222b;" 
 />
    <glyph glyph-name="approxequal" unicode="&#x2248;" 
 />
    <glyph glyph-name="notequal" unicode="&#x2260;" 
 />
    <glyph glyph-name="equivalence" unicode="&#x2261;" 
 />
    <glyph glyph-name="lessequal" unicode="&#x2264;" 
 />
    <glyph glyph-name="greaterequal" unicode="&#x2265;" 
 />
    <glyph glyph-name="house" unicode="&#x2302;" 
 />
    <glyph glyph-name="revlogicalnot" unicode="&#x2310;" 
 />
    <glyph glyph-name="integraltp" unicode="&#x2320;" 
 />
    <glyph glyph-name="integralbt" unicode="&#x2321;" 
 />
    <glyph glyph-name="2500" unicode="&#x2500;" 
 />
    <glyph glyph-name="2502" unicode="&#x2502;" 
 />
    <glyph glyph-name="250c" unicode="&#x250c;" 
 />
    <glyph glyph-name="2510" unicode="&#x2510;" 
 />
    <glyph glyph-name="2514" unicode="&#x2514;" 
 />
    <glyph glyph-name="2518" unicode="&#x2518;" 
 />
    <glyph glyph-name="251c" unicode="&#x251c;" 
 />
    <glyph glyph-name="2524" unicode="&#x2524;" 
 />
    <glyph glyph-name="252c" unicode="&#x252c;" 
 />
    <glyph glyph-name="2534" unicode="&#x2534;" 
 />
    <glyph glyph-name="253c" unicode="&#x253c;" 
 />
    <glyph glyph-name="2550" unicode="&#x2550;" 
 />
    <glyph glyph-name="2551" unicode="&#x2551;" 
 />
    <glyph glyph-name="2552" unicode="&#x2552;" 
 />
    <glyph glyph-name="2553" unicode="&#x2553;" 
 />
    <glyph glyph-name="2554" unicode="&#x2554;" 
 />
    <glyph glyph-name="2555" unicode="&#x2555;" 
 />
    <glyph glyph-name="2556" unicode="&#x2556;" 
 />
    <glyph glyph-name="2557" unicode="&#x2557;" 
 />
    <glyph glyph-name="2558" unicode="&#x2558;" 
 />
    <glyph glyph-name="2559" unicode="&#x2559;" 
 />
    <glyph glyph-name="255a" unicode="&#x255a;" 
 />
    <glyph glyph-name="255b" unicode="&#x255b;" 
 />
    <glyph glyph-name="255c" unicode="&#x255c;" 
 />
    <glyph glyph-name="255d" unicode="&#x255d;" 
 />
    <glyph glyph-name="255e" unicode="&#x255e;" 
 />
    <glyph glyph-name="255f" unicode="&#x255f;" 
 />
    <glyph glyph-name="2560" unicode="&#x2560;" 
 />
    <glyph glyph-name="2561" unicode="&#x2561;" 
 />
    <glyph glyph-name="2562" unicode="&#x2562;" 
 />
    <glyph glyph-name="2563" unicode="&#x2563;" 
 />
    <glyph glyph-name="2564" unicode="&#x2564;" 
 />
    <glyph glyph-name="2565" unicode="&#x2565;" 
 />
    <glyph glyph-name="2566" unicode="&#x2566;" 
 />
    <glyph glyph-name="2567" unicode="&#x2567;" 
 />
    <glyph glyph-name="2568" unicode="&#x2568;" 
 />
    <glyph glyph-name="2569" unicode="&#x2569;" 
 />
    <glyph glyph-name="256a" unicode="&#x256a;" 
 />
    <glyph glyph-name="256b" unicode="&#x256b;" 
 />
    <glyph glyph-name="256c" unicode="&#x256c;" 
 />
    <glyph glyph-name="upblock" unicode="&#x2580;" 
 />
    <glyph glyph-name="dnblock" unicode="&#x2584;" 
 />
    <glyph glyph-name="block" unicode="&#x2588;" 
 />
    <glyph glyph-name="lfblock" unicode="&#x258c;" 
 />
    <glyph glyph-name="rtblock" unicode="&#x2590;" 
 />
    <glyph glyph-name="ltshade" unicode="&#x2591;" 
 />
    <glyph glyph-name="shade" unicode="&#x2592;" 
 />
    <glyph glyph-name="dkshade" unicode="&#x2593;" 
 />
    <glyph glyph-name="filledbox" unicode="&#x25a0;" horiz-adv-x="500" 
 />
    <glyph glyph-name="filledrect" unicode="&#x25ac;" 
 />
    <glyph glyph-name="triagup" unicode="&#x25b2;" 
 />
    <glyph glyph-name="triagrt" unicode="&#x25ba;" 
 />
    <glyph glyph-name="triagdn" unicode="&#x25bc;" 
 />
    <glyph glyph-name="triaglf" unicode="&#x25c4;" 
 />
    <glyph glyph-name="lozenge" unicode="&#x25ca;" 
 />
    <glyph glyph-name="circle" unicode="&#x25cb;" 
 />
    <glyph glyph-name="invbullet" unicode="&#x25d8;" 
 />
    <glyph glyph-name="invcircle" unicode="&#x25d9;" 
 />
    <glyph glyph-name="smileface" unicode="&#x263a;" 
 />
    <glyph glyph-name="invsmileface" unicode="&#x263b;" 
 />
    <glyph glyph-name="sun" unicode="&#x263c;" 
 />
    <glyph glyph-name="female" unicode="&#x2640;" 
 />
    <glyph glyph-name="male" unicode="&#x2642;" 
 />
    <glyph glyph-name="spade" unicode="&#x2660;" 
 />
    <glyph glyph-name="club" unicode="&#x2663;" 
 />
    <glyph glyph-name="heart" unicode="&#x2665;" 
 />
    <glyph glyph-name="diamond" unicode="&#x2666;" 
 />
    <glyph glyph-name="musicalnote" unicode="&#x266a;" 
 />
    <glyph glyph-name="musicalnotedbl" unicode="&#x266b;" 
 />
    <glyph glyph-name="apple" unicode="&#xf000;" 
 />
    <glyph glyph-name="fi" unicode="&#xf001;" horiz-adv-x="559" 
d="M94 0l116 433h-70q1 -1 2 0.5t2 3.5q0 2 1.5 4t2.5 5v0l1 1v0.5v0.5v0.5v1.5q0 2 0.5 3t0.5 3q0 1 0.5 2.5t0.5 2.5v5.5t-1 3.5l70 2q32 78 65 132t68 84t68 45t64 16h4h4q1 -1 3 -1h4q4 0 7.5 -0.5t7.5 -1.5q-7 -12 -11.5 -22.5t-7.5 -19.5q-1 -5 -2.5 -9.5t-2.5 -9.5
q-2 -4 -3 -8.5t-3 -9.5l-9 -6q-1 -1 -1.5 -1h-1.5h-0.5t-0.5 1h-1v0q-3 2 -5.5 3t-4.5 2q-2 2 -4.5 3t-5.5 2q-6 2 -12 3t-14 1q-25 0 -43.5 -8t-30.5 -24q-13 -16 -21.5 -34t-13.5 -38q0 -1 -0.5 -2l-0.5 -1q-1 -1 -1 -2v-2t-0.5 -2l-0.5 -1q0 -1 -0.5 -2t-0.5 -2
q-2 -7 -3 -14l-2 -14t-2.5 -14t-1.5 -13q-1 -4 -1.5 -8.5t-0.5 -8.5q-1 -4 -1.5 -8t-0.5 -7l110 2q-1 -2 -2 -3l-1 -1l-1 -1v-1q-1 0 -1 -0.5t-1 -1.5q-1 -2 -2 -4.5t-1 -4.5q-1 -3 -1.5 -6t-1.5 -6t-0.5 -6t1.5 -6l-109 2l-116 -433h-4t-4 1q-3 0 -5 0.5t-4 0.5
q-2 1 -5.5 1t-6.5 1h-2.5h-3.5q-5 0 -10.5 -0.5t-11.5 -1.5q-5 -1 -10.5 -1.5t-11.5 -0.5v0v0zM378 0l130 488q2 -2 3.5 -3t2.5 -1q2 -1 4 -1h4q2 -1 3.5 -1.5t3.5 -0.5q2 -1 3.5 -1h3.5h7.5h7.5h6h6q2 0 5 0.5t6 0.5q5 1 10.5 2.5t10.5 2.5l-130 -486h-4.5t-4.5 1
q-3 0 -5.5 0.5t-4.5 0.5q-4 1 -9.5 1.5t-10.5 0.5h-4h-4q-4 -1 -7.5 -1t-8.5 -1q-6 -1 -12 -1.5t-12 -0.5v0v0zM547 661q3 13 10 23t17 17t19.5 10.5t19.5 3.5q11 0 20.5 -3.5t16.5 -10.5t8.5 -17.5t-2.5 -24.5q-5 -14 -12.5 -24.5t-18.5 -17.5l-10 -6t-10 -4q-5 -2 -10 -3
t-10 -1q-10 0 -18.5 3.5t-14.5 10.5q-7 8 -8 18.5t2 23.5l1 2v0z" />
    <glyph glyph-name="fl" unicode="&#xf002;" horiz-adv-x="559" 
d="M94 0l116 433h-70q1 -1 2 0.5t2 3.5q0 2 1.5 4t2.5 5v0l1 1v0.5v0.5v0.5v1.5q0 2 0.5 3t0.5 3q0 1 0.5 2.5t0.5 2.5v5.5t-1 3.5l70 2q32 78 65 132t68 84t68 45t64 16h4h4q1 -1 3 -1h4q4 0 7.5 -0.5t7.5 -1.5q-7 -12 -11.5 -22.5t-7.5 -19.5q-1 -5 -2.5 -9.5t-2.5 -9.5
q-2 -4 -3 -8.5t-3 -9.5l-9 -6q-1 -1 -1.5 -1h-1.5h-0.5t-0.5 1h-1v0q-3 2 -5.5 3t-4.5 2q-2 2 -4.5 3t-5.5 2q-6 2 -12 3t-14 1q-25 0 -43.5 -8t-30.5 -24q-13 -16 -21.5 -34t-13.5 -38q0 -1 -0.5 -2l-0.5 -1q-1 -1 -1 -2v-2t-0.5 -2l-0.5 -1q0 -1 -0.5 -2t-0.5 -2
q-2 -7 -3 -14l-2 -14t-2.5 -14t-1.5 -13q-1 -4 -1.5 -8.5t-0.5 -8.5q-1 -4 -1.5 -8t-0.5 -7l110 2q-1 -2 -2 -3l-1 -1l-1 -1v-1q-1 0 -1 -0.5t-1 -1.5q-1 -2 -2 -4.5t-1 -4.5q-1 -3 -1.5 -6t-1.5 -6t-0.5 -6t1.5 -6l-109 2l-116 -433h-4t-4 1q-3 0 -5 0.5t-4 0.5
q-2 1 -5.5 1t-6.5 1h-2.5h-3.5q-5 0 -10.5 -0.5t-11.5 -1.5q-5 -1 -10.5 -1.5t-11.5 -0.5v0v0zM380 8l206 772q3 -2 5.5 -3t4.5 -2q2 0 4.5 -1t5.5 -1q5 -1 10.5 -1h10.5h2h2h1h2h4t4 1h6.5t7.5 1t8.5 2t8.5 2l-206 -770q-2 -1 -4.5 -0.5t-4.5 1.5q-3 0 -5.5 0.5t-4.5 0.5
q-4 1 -9.5 1.5t-10.5 0.5h-4h-4q-4 -1 -7.5 -1t-8.5 -1q-6 -1 -12 -1.5t-13 -2.5l1 2v0z" />
    <glyph glyph-name="degree" horiz-adv-x="331" 
d="M253 622q1 2 2 5t3 7q1 4 3 8t5 8q8 15 21 28.5t30 26.5q17 12 35.5 18.5t39.5 6.5q20 -2 34 -8t23 -17q8 -10 13.5 -21.5t6.5 -23.5v-6v-5q0 -3 -0.5 -5.5t-0.5 -4.5t-0.5 -3.5t-0.5 -3.5q0 -3 -0.5 -6t-1.5 -6q0 -1 -0.5 -2t-1.5 -2l-1.5 -3t-0.5 -2q-1 -3 -1.5 -5
t-1.5 -4q-7 -16 -19 -30.5t-29 -27.5t-35.5 -19.5t-38.5 -6.5q-21 0 -37 6.5t-27 19.5q-12 13 -17.5 27.5t-4.5 30.5v1.5v0.5v3.5v3.5q1 2 1.5 4.5t1.5 4.5v2v0zM300 622q-2 -15 -0.5 -25.5t8.5 -17.5q6 -7 14.5 -11t18.5 -4v0h1v0v0h0.5h1.5q11 0 22.5 3.5t22.5 10.5
t18 17.5t11 24.5q4 15 2.5 26.5t-8.5 19.5t-15.5 12t-19.5 4q-10 0 -21.5 -3.5t-22.5 -11.5q-10 -7 -18.5 -19t-14.5 -28v2v0z" />
    <glyph glyph-name="bullet" horiz-adv-x="606" 
d="M140 260q4 13 11.5 24t20.5 18q12 8 24.5 11.5t25.5 3.5t24 -3t19 -11q8 -7 10.5 -18.5t-1.5 -26.5q-6 -17 -15.5 -29.5t-20.5 -20.5q-12 -7 -24 -11t-23 -4h-1.5h-0.5v0v0h-1v0q-13 0 -23 4.5t-18 13.5q-8 8 -9.5 20t2.5 27v2v0z" />
    <glyph glyph-name="endash" horiz-adv-x="504" 
d="M67 252h512l-15 -55h-512l15 55v0v0z" />
    </font>
</defs>
</svg>
