<svg xmlns="http://www.w3.org/2000/svg" xmlns:xlink="http://www.w3.org/1999/xlink" width="98" height="63" viewBox="0 0 98 63">
  <defs>
    <clipPath id="clip-path">
      <rect id="Rectangle_994" data-name="Rectangle 994" width="98" height="63" transform="translate(88 203)" fill="#fff"/>
    </clipPath>
  </defs>
  <g id="Mask_Group_5" data-name="Mask Group 5" transform="translate(-88 -203)" clip-path="url(#clip-path)">
    <g id="LOGO_-_HORIZON_OF_KHUFU_WHITE_" data-name="LOGO - HORIZON OF KHUFU WHITE " transform="translate(88.623 202.816)">
      <g id="a">
        <path id="Path_59" data-name="Path 59" d="M47.353,51.516H45.389l-3.045-7.309-1.827,7.309H38.554V27.935h1.964V43.662l.6-2.4.382-1.528,2.95-11.8h1.964L43.082,41.262l4.272,10.253Z" fill="#fff"/>
        <path id="Path_60" data-name="Path 60" d="M24.722,35.5V33.537H20.269V51.378h1.964V39.966h2.49V38h-2.49V35.5Z" fill="#fff"/>
        <path id="Path_61" data-name="Path 61" d="M6.158,5.6H2.432V0H.573V22.347H2.432V7.46H6.158V22.347H8.017V0H6.158Z" fill="#fff"/>
        <path id="Path_62" data-name="Path 62" d="M39.711,6.514A4.194,4.194,0,0,0,36.3.008H34.4V22.365h1.861V8.4l3.606,13.938,1.936-.008-3.742-14.4a3.731,3.731,0,0,0,1.646-1.42Zm-3.08,0-.362-.011V1.841l.369.008h0a2.523,2.523,0,0,1,.274.018,2.331,2.331,0,0,1-.2,4.644c-.028,0-.054,0-.082,0Z" fill="#fff"/>
        <rect id="Rectangle_995" data-name="Rectangle 995" width="1.861" height="22.347" transform="translate(45.118)" fill="#fff"/>
        <path id="Path_63" data-name="Path 63" d="M89,0V14.9L85.277,0H83.416V20.44H78.647a9.7,9.7,0,0,0-19.028,0H52.595L55.938.008h-5.6V1.869H53.75L50.335,22.347H85.278V7.449L89,22.347h1.861V0H89Z" fill="#fff"/>
        <path id="Path_64" data-name="Path 64" d="M.56,42.459a8.864,8.864,0,1,1,8.864,8.864A8.864,8.864,0,0,1,.56,42.459Zm15.868,0a7,7,0,1,0-7,7A7,7,0,0,0,16.427,42.459Z" fill="#fff"/>
        <path id="Path_65" data-name="Path 65" d="M57.19,27.943V51.524H55.226V35.815H51.3V51.524H49.333V27.943H51.3v5.91h3.929v-5.91Z" fill="#fff"/>
        <path id="Path_66" data-name="Path 66" d="M94.789,27.944V47.66a1.961,1.961,0,0,1-1.961,1.961h-.01a1.961,1.961,0,0,1-1.961-1.961V27.944H88.892V47.6a3.92,3.92,0,0,0,3.921,3.921h.02A3.92,3.92,0,0,0,96.754,47.6V27.944H94.789Z" fill="#fff"/>
        <path id="Path_67" data-name="Path 67" d="M80.967,33.87V27.944h5.524v1.983H82.808v3.931h3.683v1.954H82.808v15.7H80.967v-15.7" fill="#fff"/>
        <g id="Group_109" data-name="Group 109">
          <path id="Path_68" data-name="Path 68" d="M77.674,27.943v13.98a8.632,8.632,0,0,1-8.632,8.632h0a8.631,8.631,0,0,1-8.632-8.632" fill="none" stroke="#fff" stroke-miterlimit="10" stroke-width="1.823"/>
          <path id="Path_69" data-name="Path 69" d="M72.8,35.746c-.036-.026-.155-.083-.193-.109a3.348,3.348,0,0,1-.816-1.012.922.922,0,0,0-.769-.482.23.23,0,0,1-.178-.1,4.759,4.759,0,0,1-.7-1.265c-.052-.131-.109-.26-.165-.389-.044-.1-.188-.266-.273-.273-.118.018-.273.309-.336.488a3.242,3.242,0,0,0-.158.722c0,.041.457.431.454.472-.059-.057-.573-.5-.622-.563a3.967,3.967,0,0,1-.291-.4c-.162-.245-.473-.7-.62-.7a.606.606,0,0,0-.322.372,5.937,5.937,0,0,0-.318,1.3c-.023.134-.041.269-.062.4a.665.665,0,0,0,.042.353c.024.047.075.152.1.2a.286.286,0,0,1,0,.416,10.322,10.322,0,0,0-.379,1.317c-.135.643-.188,2.178-1.01,2.86a12.261,12.261,0,0,0-2.632,2.671A9.571,9.571,0,0,0,62.2,46.894c0,1.665,1.925,2.725,2.615,2.956l.952.451s.568-.039.852-.029c.152,0,.3,0,.457,0,.263,0,1.17-.023,1.174-.258a12.513,12.513,0,0,0-.042-1.406,5.758,5.758,0,0,0-1.286-2.878c-.08-.111-.167-.22-.266-.349a6.384,6.384,0,0,1,1.033,1.368,3.425,3.425,0,0,1,.944-1.869c.024-.029-.251-.952-.387-1.533l.1.157c.5,1.845,1.419,5.945,1.694,6.538.129.276,1.11-.465,1.11-.465s-.008-.059-.02-.163c.007-.02.011-.038.018-.057l-.02.056c-.116-.929-.535-4.231-.6-6.218a2.268,2.268,0,0,1,.155-.873,2.785,2.785,0,0,0,.382-1.224,5.459,5.459,0,0,0-.326-2.044,1.6,1.6,0,0,1-.109-.389,3.921,3.921,0,0,1-.046-1.035c0-.011,0-.023.007-.034.024-.157.1-.462.266-.526s1.236-.186,1.384-.258c.064-.031.253-.137.289-.286.01-.038.082-.056.121-.1a1.363,1.363,0,0,0,.212-.485c.02-.08.034-.129-.062-.2Z" fill="#fff"/>
          <path id="Path_70" data-name="Path 70" d="M61.32,41.93A44.832,44.832,0,0,1,62,37.106c.042-.178.167-.787.2-.962.026-.129.051-.255.073-.382l.008-.051a8.469,8.469,0,0,0-.839-6.089c-.544-.8-1.871-.983-2.272-.108,1.379.635,1.965,2.911,1.582,5.431l-.291,1.381a24.765,24.765,0,0,0-.965,5.609" fill="#fff"/>
        </g>
        <path id="Path_71" data-name="Path 71" d="M21.211.008A11.164,11.164,0,1,0,32.375,11.173,11.165,11.165,0,0,0,21.211.008Zm0,20.469a9.3,9.3,0,1,1,9.3-9.305,9.3,9.3,0,0,1-9.3,9.305Z" fill="#fff"/>
        <text id="JOURNEY_IN_ANCIENT_EGYPT" data-name="JOURNEY IN ANCIENT EGYPT" transform="translate(0 61.368)" fill="#fff" font-size="6" font-family="Optima-Bold, Optima" font-weight="700" letter-spacing="0.08em"><tspan x="0" y="0">JOURNEY IN ANCIENT EGYPT</tspan></text>
      </g>
      <g id="b">
        <path id="Path_72" data-name="Path 72" d="M82.224,20.456h-3.6a9.581,9.581,0,0,0-19.142,0h-4.14" fill="#fff"/>
      </g>
    </g>
  </g>
</svg>
